<svg xmlns="http://www.w3.org/2000/svg" viewBox="0 0 440 440"><filter id="b"><feGaussianBlur stdDeviation="12" /></filter><path fill="#3c2727" d="M0 0h440v440H0z"/><g filter="url(#b)" transform="translate(.9 .9) scale(1.71875)" fill-opacity=".5"><ellipse fill="#ff8265" rx="1" ry="1" transform="rotate(106.8 21.9 99) scale(47.22525 81.06641)"/><ellipse fill="#fff" rx="1" ry="1" transform="matrix(-7.1314 2.59562 -44.2137 -121.47612 77.4 136.3)"/><ellipse fill="#000006" rx="1" ry="1" transform="rotate(-4.1 2848.5 -395.4) scale(37.36175 159.30767)"/><ellipse fill="#ff482e" rx="1" ry="1" transform="rotate(-170.3 74.9 47.8) scale(70.87577 32.24441)"/><ellipse rx="1" ry="1" transform="matrix(43.4958 4.80198 -27.98225 253.46005 246.6 157)"/><ellipse fill="#000712" cx="187" cy="17" rx="76" ry="76"/><ellipse fill="#ffff20" rx="1" ry="1" transform="matrix(-16.00397 -.47642 .41867 -14.06407 42.9 33.8)"/><path d="M271 187L37 262l217 9z"/></g></svg>