<svg xmlns="http://www.w3.org/2000/svg" viewBox="0 0 440 440"><filter id="b"><feGaussianBlur stdDeviation="12" /></filter><path fill="#343338" d="M0 0h440v440H0z"/><g filter="url(#b)" transform="translate(.9 .9) scale(1.71875)" fill-opacity=".5"><ellipse fill="#a2bcce" rx="1" ry="1" transform="matrix(7.4149 81.16967 -66.8328 6.10523 127.8 156.7)"/><ellipse fill="#ff7b57" rx="1" ry="1" transform="matrix(28.9744 9.38798 -10.17749 31.4111 197.4 61.8)"/><ellipse cy="125" rx="62" ry="255"/><path d="M182.4 252.3L244.1 5l83.5 20.8L265.9 273z"/><ellipse rx="1" ry="1" transform="matrix(-252.79891 33.43215 -4.54078 -34.3353 127.2 3.8)"/><ellipse fill="#ff7157" rx="1" ry="1" transform="matrix(-18.1 -32.7881 15.01977 -8.29136 210 56)"/><ellipse cx="121" cy="248" rx="255" ry="18"/><path fill="#fff" d="M110 130h69v10h-69z"/></g></svg>