<svg xmlns="http://www.w3.org/2000/svg" viewBox="0 0 440 440"><filter id="b"><feGaussianBlur stdDeviation="12" /></filter><path fill="#2f3e3d" d="M0 0h440v440H0z"/><g filter="url(#b)" transform="translate(.9 .9) scale(1.71875)" fill-opacity=".5"><ellipse fill="#ffff2f" cx="57" cy="49" rx="26" ry="26"/><ellipse fill="#6eb6c7" rx="1" ry="1" transform="matrix(92.38732 2.02104 -1.37636 62.91728 127 172.6)"/><ellipse fill="#fff" rx="1" ry="1" transform="rotate(-115.7 105.6 -26.5) scale(19.74769 51.86588)"/><ellipse rx="1" ry="1" transform="rotate(5.4 -1130.6 2633.8) scale(30.3059 254.99997)"/><ellipse rx="1" ry="1" transform="matrix(-22.8069 -253.97804 33.65402 -3.02209 13.3 174)"/><ellipse cx="134" cy="12" rx="189" ry="16"/><ellipse rx="1" ry="1" transform="matrix(-253.22034 .8839 -.07893 -22.61238 141.4 255)"/><path fill="#00ef0c" d="M183 102l12 33-131-3z"/></g></svg>