<?xml version="1.0" encoding="UTF-8"?>
<svg width="40px" height="40px" viewBox="0 0 40 40" version="1.1" xmlns="http://www.w3.org/2000/svg" xmlns:xlink="http://www.w3.org/1999/xlink">
  <g id="overview" transform="translate(11.000000, 10.000000)">
      <path d="M11.1921711,12.6063847 L15.4163136,16.8305271 C15.8009753,17.2151889 16.4379028,17.2189514 16.8284271,16.8284271 C17.2216741,16.4351802 17.2198916,15.8056781 16.8305271,15.4163136 L12.6063847,11.1921711 C12.2048733,11.7282681 11.7282681,12.2048733 11.1921711,12.6063847 Z M13.154395,10.3379826 C13.2013227,10.3769596 13.2468482,10.4184211 13.2907932,10.4623661 L17.5376339,14.7092068 C18.318512,15.4900849 18.3183156,16.7527522 17.5355339,17.5355339 C16.7558498,18.315218 15.4857604,18.3141875 14.7092068,17.5376339 L10.4623661,13.2907932 C10.4183908,13.2468179 10.3768926,13.2013147 10.3378718,13.1544553 C9.34572243,13.6936862 8.20863293,14 7,14 C3.13400675,14 0,10.8659932 0,7 C0,3.13400675 3.13400675,0 7,0 C10.8659932,0 14,3.13400675 14,7 C14,8.20867794 13.6936634,9.34580713 13.154395,10.3379826 Z M7,13 C10.3137085,13 13,10.3137085 13,7 C13,3.6862915 10.3137085,1 7,1 C3.6862915,1 1,3.6862915 1,7 C1,10.3137085 3.6862915,13 7,13 Z M7,10 C8.65685425,10 10,8.65685425 10,7 C10,5.34314575 8.65685425,4 7,4 C5.34314575,4 4,5.34314575 4,7 C4,8.65685425 5.34314575,10 7,10 Z M7,11 C4.790861,11 3,9.209139 3,7 C3,4.790861 4.790861,3 7,3 C9.209139,3 11,4.790861 11,7 C11,9.209139 9.209139,11 7,11 Z" class="svg-dark" fill-rule="nonzero"></path>
      <path d="M7,13 C3.6862915,13 1,10.3137085 1,7 C1,3.6862915 3.6862915,1 7,1 C10.3137085,1 13,3.6862915 13,7 C13,10.3137085 10.3137085,13 7,13 Z M7,11 C9.209139,11 11,9.209139 11,7 C11,4.790861 9.209139,3 7,3 C4.790861,3 3,4.790861 3,7 C3,9.209139 4.790861,11 7,11 Z" class="svg-lightest" opacity="0.4"></path>
      <path d="M11.1921711,12.6063847 L15.4163136,16.8305271 C15.8009753,17.2151889 16.4379028,17.2189514 16.8284271,16.8284271 C17.2216741,16.4351802 17.2198916,15.8056781 16.8305271,15.4163136 L12.6063847,11.1921711 C12.2048733,11.7282681 11.7282681,12.2048733 11.1921711,12.6063847 Z" class="svg-light" fill-rule="nonzero" opacity="0.7"></path>
  </g>
  <g id="preview" transform="translate(10.000000, 12.000000)">
      <path d="M5.04963683,5.75790896 C5.0169034,6.00060905 5,6.24833052 5,6.5 C5,9.53756612 7.46243388,12 10.5,12 C13.5375661,12 16,9.53756612 16,6.5 C16,6.24833052 15.9830966,6.00060905 15.9503632,5.75790896 C18.4488913,7.36722561 20,9.5 20,9.5 C20,9.5 16,15 10.5,15 C5,15 1,9.5 1,9.5 C1,9.5 2.55110865,7.36722561 5.04963683,5.75790896 Z" class="svg-lightest" opacity="0.4"></path>
      <path d="M10.5,15 C16,15 20,9.5 20,9.5 C20,9.5 16,4 10.5,4 C5,4 1,9.5 1,9.5 C1,9.5 5,15 10.5,15 Z M10.5,16 C7.83000569,16 5.32804193,14.8766693 3.05582705,13.025235 C2.27408859,12.3882629 1.57479399,11.7075336 0.965400826,11.0258396 C0.596071685,10.6126918 0.335103259,10.2859508 0.191263916,10.0881717 C-0.0637546386,9.73752119 -0.0637546386,9.26247881 0.191263916,8.9118283 C0.335103259,8.71404921 0.596071685,8.38730825 0.965400826,7.9741604 C1.57479399,7.29246635 2.27408859,6.61173709 3.05582705,5.97476501 C5.32804193,4.12333067 7.83000569,3 10.5,3 C13.1699943,3 15.6719581,4.12333067 17.944173,5.97476501 C18.7259114,6.61173709 19.425206,7.29246635 20.0345992,7.9741604 C20.4039283,8.38730825 20.6648967,8.71404921 20.8087361,8.9118283 C21.0637546,9.26247881 21.0637546,9.73752119 20.8087361,10.0881717 C20.6648967,10.2859508 20.4039283,10.6126918 20.0345992,11.0258396 C19.425206,11.7075336 18.7259114,12.3882629 17.944173,13.025235 C15.6719581,14.8766693 13.1699943,16 10.5,16 Z M4.00000022,6.50171842 C4.00092875,10.0907795 6.91072195,13 10.5,13 C14.0892781,13 16.9990713,10.0907795 16.9999998,6.50171842 C16.6723874,6.24803059 16.3218472,5.99718398 15.9503632,5.75790896 C15.9830966,6.00060905 16,6.24833052 16,6.5 C16,9.53756612 13.5375661,12 10.5,12 C7.46243388,12 5,9.53756612 5,6.5 C5,6.24833052 5.0169034,6.00060905 5.04963683,5.75790896 C4.67815284,5.99718398 4.32761257,6.24803059 4.00000022,6.50171842 Z M12.9501147,7.00060999 C11.868596,7.02708627 11,7.9121074 11,9 C11,9.32258406 11.0763715,9.62733059 11.2120201,9.89714501 C10.9863611,9.96407039 10.7473764,10 10.5,10 C9.11928813,10 8,8.88071187 8,7.5 C8,6.11928813 9.11928813,5 10.5,5 C11.7096945,5 12.7187153,5.85918593 12.9501147,7.00060999 Z M20.3737047,5.16781808 C20.5571637,5.37420946 20.5385733,5.69024565 20.3321819,5.87370466 C20.1257905,6.05716367 19.8097543,6.0385733 19.6262953,5.83218192 C19.5122243,5.70385195 19.2838851,5.46994357 18.9514834,5.16571146 C18.3932825,4.65481578 17.7509633,4.14323405 17.0351499,3.66602515 C15.0014953,2.31025539 12.7958,1.5 10.5,1.5 C8.20419996,1.5 5.99850473,2.31025539 3.9648501,3.66602515 C3.24903675,4.14323405 2.60671746,4.65481578 2.04851663,5.16571146 C1.71611488,5.46994357 1.48777575,5.70385195 1.37370466,5.83218192 C1.19024565,6.0385733 0.874209465,6.05716367 0.667818081,5.87370466 C0.461426696,5.69024565 0.442836332,5.37420946 0.626295341,5.16781808 C0.662606583,5.12696793 0.729176451,5.05535891 0.824830085,4.95737226 C0.981378411,4.79700568 1.16460641,4.61909966 1.37335837,4.42803854 C1.96750129,3.88424672 2.64940075,3.34114095 3.4101499,2.83397485 C5.59524527,1.37724461 7.98330004,0.5 10.5,0.5 C13.0167,0.5 15.4047547,1.37724461 17.5898501,2.83397485 C18.3505992,3.34114095 19.0324987,3.88424672 19.6266416,4.42803854 C19.8353936,4.61909966 20.0186216,4.79700568 20.1751699,4.95737226 C20.2708235,5.05535891 20.3373934,5.12696793 20.3737047,5.16781808 Z" class="svg-dark" fill-rule="nonzero"></path>
  </g>
  <g id="analytics" transform="translate(9.000000, 9.000000)">
      <path d="M14.5315937,15.7508743 C13.9263858,18.8888494 12.7953738,21 11.5,21 C10.2046262,21 9.07361425,18.8888494 8.46840629,15.7508743 C5.44823623,16.7957364 3.05442017,16.8718266 2.40673326,15.75 C1.75904635,14.6281734 3.02185048,12.593113 5.43681259,10.5 C3.02185048,8.40688702 1.75904635,6.37182663 2.40673326,5.25 C3.05442017,4.12817337 5.44823623,4.20426363 8.46840629,5.24912567 C9.07361425,2.11115065 10.2046262,0 11.5,0 C12.7953738,0 13.9263858,2.11115065 14.5315937,5.24912567 C17.5517638,4.20426363 19.9455798,4.12817337 20.5932667,5.25 C21.2409536,6.37182663 19.9781495,8.40688702 17.5631874,10.5 C19.9781495,12.593113 21.2409536,14.6281734 20.5932667,15.75 C19.9455798,16.8718266 17.5517638,16.7957364 14.5315937,15.7508743 Z M11.5,15 C13.9852814,15 16,12.9852814 16,10.5 C16,8.01471863 13.9852814,6 11.5,6 C9.01471863,6 7,8.01471863 7,10.5 C7,12.9852814 9.01471863,15 11.5,15 Z" class="svg-lightest" opacity="0.4"></path>
      <path d="M14.5315937,15.7508743 C14.6529881,15.1214498 14.7532276,14.4507126 14.8293952,13.7474132 C14.4787402,13.9674631 14.1186305,14.1842854 13.75,14.3971143 C13.3813695,14.6099432 13.013541,14.8133962 12.6476447,15.0070475 C13.2948036,15.292734 13.9257989,15.5412928 14.5315937,15.7508743 Z M14.3139318,16.7450084 C13.4130075,16.4378147 12.4677472,16.0485551 11.5,15.5854624 C10.5322528,16.0485551 9.5869925,16.4378147 8.68606816,16.7450084 C9.32371735,19.3265992 10.3467181,21 11.5,21 C12.6532819,21 13.6762826,19.3265992 14.3139318,16.7450084 Z M14.9375654,8.51532072 C14.4014787,8.15848925 13.8376115,7.80816875 13.25,7.46891109 C12.6623885,7.12965342 12.0770684,6.81649032 11.5,6.53064144 C10.9229316,6.81649032 10.3376115,7.12965342 9.75,7.46891109 C9.16238849,7.80816875 8.59852125,8.15848925 8.06243465,8.51532072 C8.02145283,9.15800107 8,9.82148467 8,10.5 C8,11.1785153 8.02145283,11.8419989 8.06243465,12.4846793 C8.59852125,12.8415108 9.16238849,13.1918312 9.75,13.5310889 C10.3376115,13.8703466 10.9229316,14.1835097 11.5,14.4693586 C12.0770684,14.1835097 12.6623885,13.8703466 13.25,13.5310889 C13.8376115,13.1918312 14.4014787,12.8415108 14.9375654,12.4846793 C14.9785472,11.8419989 15,11.1785153 15,10.5 C15,9.82148467 14.9785472,9.15800107 14.9375654,8.51532072 Z M14.8293952,7.25258679 C14.7532276,6.54928743 14.6529881,5.87855016 14.5315937,5.24912567 C13.9257989,5.45870725 13.2948036,5.70726595 12.6476447,5.99295254 C13.013541,6.18660377 13.3813695,6.39005676 13.75,6.60288568 C14.1186305,6.81571461 14.4787402,7.03253692 14.8293952,7.25258679 Z M8.17060476,13.7474132 C8.24677238,14.4507126 8.34701186,15.1214498 8.46840629,15.7508743 C9.07420111,15.5412928 9.70519636,15.292734 10.3523553,15.0070475 C9.98645899,14.8133962 9.61863051,14.6099432 9.25,14.3971143 C8.88136949,14.1842854 8.52125979,13.9674631 8.17060476,13.7474132 Z M8.68606816,4.25499164 C9.5869925,4.56218534 10.5322528,4.95144486 11.5,5.41453759 C12.4677472,4.95144486 13.4130075,4.56218534 14.3139318,4.25499164 C13.6762826,1.67340082 12.6532819,0 11.5,0 C10.3467181,0 9.32371735,1.67340082 8.68606816,4.25499164 Z M8.46840629,5.24912567 C8.34701186,5.87855016 8.24677238,6.54928743 8.17060476,7.25258679 C8.52125979,7.03253692 8.88136949,6.81571461 9.25,6.60288568 C9.61863051,6.39005676 9.98645899,6.18660377 10.3523553,5.99295254 C9.70519636,5.70726595 9.07420111,5.45870725 8.46840629,5.24912567 Z M15.2803874,17.0478231 C14.527704,20.039934 13.2166189,22 11.5,22 C9.78338105,22 8.47229605,20.039934 7.71961258,17.0478231 C4.75202674,17.8920356 2.39901733,17.7366356 1.54070786,16.25 C0.682398382,14.7633644 1.72432279,12.6478985 3.93922516,10.5 C1.72432279,8.35210151 0.682398382,6.23663562 1.54070786,4.75 C2.39901733,3.26336438 4.75202674,3.10796444 7.71961258,3.95217691 C8.47229605,0.960065955 9.78338105,-1 11.5,-1 C13.2166189,-1 14.527704,0.960065955 15.2803874,3.95217691 C18.2479733,3.10796444 20.6009827,3.26336438 21.4592921,4.75 C22.3176016,6.23663562 21.2756772,8.35210151 19.0607748,10.5 C21.2756772,12.6478985 22.3176016,14.7633644 21.4592921,16.25 C20.6009827,17.7366356 18.2479733,17.8920356 15.2803874,17.0478231 Z M15.50137,16.0594406 C18.0559178,16.7980156 20.0166258,16.7487715 20.5932667,15.75 C21.1699077,14.7512285 20.2322004,13.0285835 18.3153018,11.1855677 C17.5988021,11.8121942 16.7890633,12.4361839 15.9041396,13.0427312 C15.8213161,14.1123712 15.6857946,15.1256204 15.50137,16.0594406 Z M7.49863003,4.94055936 C4.94408221,4.20198435 2.98337423,4.25122854 2.40673326,5.25 C1.83009229,6.24877146 2.76779956,7.97141647 4.68469819,9.81443228 C5.40119791,9.18780577 6.21093671,8.56381605 7.09586036,7.95726879 C7.17868387,6.8876288 7.31420541,5.87437958 7.49863003,4.94055936 Z M7.09586036,13.0427312 C6.21093671,12.4361839 5.40119791,11.8121942 4.68469819,11.1855677 C2.76779956,13.0285835 1.83009229,14.7512285 2.40673326,15.75 C2.98337423,16.7487715 4.94408221,16.7980156 7.49863003,16.0594406 C7.31420541,15.1256204 7.17868387,14.1123712 7.09586036,13.0427312 Z M7.02296005,11.7596343 C7.00771878,11.3459332 7,10.9256578 7,10.5 C7,10.0743422 7.00771878,9.65406684 7.02296005,9.24036574 C6.45196874,9.65797852 5.92121296,10.0801571 5.43681259,10.5 C5.92121296,10.9198429 6.45196874,11.3420215 7.02296005,11.7596343 Z M15.9041396,7.95726879 C16.7890633,8.56381605 17.5988021,9.18780577 18.3153018,9.81443228 C20.2322004,7.97141647 21.1699077,6.24877146 20.5932667,5.25 C20.0166258,4.25122854 18.0559178,4.20198435 15.50137,4.94055936 C15.6857946,5.87437958 15.8213161,6.8876288 15.9041396,7.95726879 Z M15.97704,9.24036574 C15.9922812,9.65406684 16,10.0743422 16,10.5 C16,10.9256578 15.9922812,11.3459332 15.97704,11.7596343 C16.5480313,11.3420215 17.078787,10.9198429 17.5631874,10.5 C17.078787,10.0801571 16.5480313,9.65797852 15.97704,9.24036574 Z M11.5,12 C10.6715729,12 10,11.3284271 10,10.5 C10,9.67157288 10.6715729,9 11.5,9 C12.3284271,9 13,9.67157288 13,10.5 C13,11.3284271 12.3284271,12 11.5,12 Z" class="svg-dark" fill-rule="nonzero"></path>
  </g>
  <g id="insights" transform="translate(13.000000, 9.000000)" fill-rule="nonzero">
      <path d="M4,16 L11,16 L11,18 C11,19.6568542 9.65685425,21 8,21 L7,21 C5.34314575,21 4,19.6568542 4,18 L4,16 Z" class="svg-light" opacity="0.7"></path>
      <path d="M4,12.9781821 C2.19584363,11.8231129 1,9.80120857 1,7.5 C1,3.91014913 3.91014913,1 7.5,1 C11.0898509,1 14,3.91014913 14,7.5 C14,9.80120857 12.8041564,11.8231129 11,12.9781821 L11,15 L4,15 L4,12.9781821 Z M6,9 C6.55228475,9 7,8.55228475 7,8 C7,7.44771525 6.55228475,7 6,7 C5.44771525,7 5,7.44771525 5,8 C5,8.55228475 5.44771525,9 6,9 Z M9,9 C9.55228475,9 10,8.55228475 10,8 C10,7.44771525 9.55228475,7 9,7 C8.44771525,7 8,7.44771525 8,8 C8,8.55228475 8.44771525,9 9,9 Z" class="svg-lightest" opacity="0.4"></path>
      <path d="M4,16 L4,17 L11,17 L11,16 L4,16 Z M3,17.5024853 L3,13.5006475 C1.13377882,12.1003889 0,9.89655713 0,7.5 C0,3.35786438 3.35786438,0 7.5,0 C11.6421356,0 15,3.35786438 15,7.5 C15,9.89655713 13.8662212,12.1003889 12,13.5006475 L12,17.5024853 C12,19.9853706 9.98237411,22 7.5,22 C5.0138547,22 3,19.9889229 3,17.5024853 Z M4.33544184,19 L10.663203,19 C10.8110519,18.6891388 10.9143484,18.3530627 10.9647775,18 L4.03503483,18 C4.08523241,18.3532089 4.18810558,18.6892546 4.33544184,19 Z M5.0485027,20 C5.67994505,20.6188832 6.54533695,21 7.5,21 C8.45207641,21 9.3169185,20.6185725 9.94872253,20 L5.0485027,20 Z M7,15 L7,9.73441065 C6.70657678,9.90335909 6.36540536,10 6,10 C4.8954305,10 4,9.11227036 4,8 C4,6.8954305 4.88772964,6 6,6 C6.59737364,6 7.13357692,6.25964905 7.50005038,6.67404212 C7.86527056,6.26059723 8.39996123,6 9,6 C10.1045695,6 11,6.88772964 11,8 C11,9.1045695 10.1122704,10 9,10 C8.63571286,10 8.29417337,9.90344332 8,9.7341197 L8,15 L11,15 L11,12.9781821 C12.8041564,11.8231129 14,9.80120857 14,7.5 C14,3.91014913 11.0898509,1 7.5,1 C3.91014913,1 1,3.91014913 1,7.5 C1,9.80120857 2.19584363,11.8231129 4,12.9781821 L4,15 L7,15 Z M5,8 C5,8.55672889 5.4444532,9 6,9 C6.55672889,9 7,8.5555468 7,8 C7,7.44327111 6.5555468,7 6,7 C5.44327111,7 5,7.4444532 5,8 Z M8,8 C8,8.55672889 8.4444532,9 9,9 C9.55672889,9 10,8.5555468 10,8 C10,7.44327111 9.5555468,7 9,7 C8.44327111,7 8,7.4444532 8,8 Z" class="svg-dark"></path>
  </g>
  <g id="result-rankings" transform="translate(10.000000, 9.000000)">
      <path d="M1,10 L20,10 L20,12 C20,12 13.683431,20.000014 10.5,20 C7.31656898,19.999986 1,11.9999167 1,11.9999167 L1,10 Z" class="svg-light" opacity="0.7"></path>
      <path d="M1,10 L1,9.00008333 C1,9.00008333 7.31656898,1.00001396 10.5,1 C13.683431,0.999986039 20,9 20,9 L20,10 L1,10 Z" class="svg-lightest" opacity="0.4"></path>
      <path d="M11,5.70710678 L11,10.5000002 C11,10.7761425 10.7761424,11.0000002 10.5,11.0000002 C10.2238576,11.0000002 10,10.7761425 10,10.5000002 L10,5.70710678 L8.35355339,7.35355339 C8.15829124,7.54881554 7.84170876,7.54881554 7.64644661,7.35355339 C7.45118446,7.15829124 7.45118446,6.84170876 7.64644661,6.64644661 L10.1464466,4.14644661 C10.3417088,3.95118446 10.6582912,3.95118446 10.8535534,4.14644661 L13.3535534,6.64644661 C13.5488155,6.84170876 13.5488155,7.15829124 13.3535534,7.35355339 C13.1582912,7.54881554 12.8417088,7.54881554 12.6464466,7.35355339 L11,5.70710678 Z M19.4176128,11 L13.4117647,11 C13.1843533,11 13,10.7761424 13,10.5 C13,10.2238576 13.1843533,9.99999999 13.4117647,9.99999999 L19.4176831,9.99999999 C19.3112401,9.14867289 18.9315845,8.32498281 18.2781603,7.67155856 L13.3284414,2.72183972 C11.7688687,1.16226699 9.23366363,1.15973465 7.67155856,2.72183972 L2.72183972,7.67155856 C2.06900248,8.3243958 1.68899922,9.1481892 1.58238717,9.99999999 L7.58823529,9.99999999 C7.81564666,9.99999999 8,10.2238576 8,10.5 C8,10.7761424 7.81564666,11 7.58823529,11 L1.5823169,11 C1.67161286,11.714186 1.95318721,12.4089219 2.42736823,13 L18.5726017,13 C19.0464067,12.4092844 19.3281867,11.7144985 19.4176128,11 Z M5.39339827,16 L15.6066017,16 L17.6066017,14 L3.39339829,14 L5.39339827,16 Z M6.39339827,17 L7.67155856,18.2781603 C9.23113129,19.837733 11.7663364,19.8402654 13.3284414,18.2781603 L14.6066017,17 L6.39339827,17 Z M6.96445178,2.01473294 C8.91630498,0.0628797385 12.0846744,0.0638591463 14.0355482,2.01473294 L18.9852671,6.96445178 C20.9371203,8.91630498 20.9361409,12.0846744 18.9852671,14.0355482 L14.0355482,18.9852671 C12.083695,20.9371203 8.91532557,20.9361409 6.96445178,18.9852671 L2.01473294,14.0355482 C0.0628797385,12.083695 0.0638591463,8.91532557 2.01473294,6.96445178 L6.96445178,2.01473294 Z" class="svg-dark" fill-rule="nonzero"></path>
  </g>
  <g id="weights" transform="translate(11.000000, 11.000000)" fill-rule="nonzero">
      <path d="M4,8 L2,8 L2,2 L4,2 L4,8 Z M4,10 L4,17 L2,17 L2,10 L4,10 Z M11,4 L8,4 L8,1 L11,1 L11,4 Z M11,6 L11,18 L8,18 L8,6 L11,6 Z M15,2 L17,2 L17,12 L15,12 L15,2 Z M15,14 L17,14 L17,17 L15,17 L15,14 Z" class="svg-lightest" opacity="0.4"></path>
      <path d="M4,7 L4,3.00010618 C4,2.44462286 3.55456703,2 3,2 C2.44328303,2 2,2.44448875 2,3.00010618 L2,7 L4,7 Z M2,11 L2,15.9998938 C2,16.5553771 2.44543297,17 3,17 C3.55671697,17 4,16.5555113 4,15.9998938 L4,11 L2,11 Z M5,7.2652795 C5.59775298,7.60921887 6,8.25412245 6,9 C6,9.7400222 5.5968137,10.3861719 5,10.7320709 L5,15.9998938 C5,17.104522 4.11227036,18 3,18 C1.8954305,18 1,17.1099416 1,15.9998938 L1,10.7347205 C0.402247022,10.3907811 0,9.74587755 0,9 C0,8.2599778 0.403186297,7.61382811 1,7.26792909 L1,3.00010618 C1,1.89547804 1.88772964,1 3,1 C4.1045695,1 5,1.89005841 5,3.00010618 L5,7.2652795 Z M1,9 C1,9.55696315 1.44375481,10 1.99791312,10 L4.00208688,10 C4.55081221,10 5,9.55092748 5,9 C5,8.44303685 4.55624519,8 4.00208688,8 L1.99791312,8 C1.44918779,8 1,8.44907252 1,9 Z M11,3.00000845 L11,2.50345613 C11,1.67089443 10.3294336,1 9.5,1 C8.66617883,1 8,1.66887878 8,2.50345613 L8,3.00000835 C8.00197229,3.00000278 8.00394531,3 8.00591905,3 L10.9940809,3 C10.9960546,3 10.9980277,3.00000282 11,3.00000845 Z M8,6.99999155 L8,16.4965439 C8,17.3291056 8.67056638,18 9.5,18 C10.3338212,18 11,17.3311212 11,16.4965439 L11,6.99999165 C10.9980277,6.99999722 10.9960547,7 10.9940809,7 L8.00591905,7 C8.00394537,7 8.00197235,6.99999718 8,6.99999155 Z M12,3.26758211 C12.5979381,3.61209211 13,4.25578372 13,5 C13,5.74117195 12.6008304,6.38817947 12,6.73368098 L12,16.4965439 C12,17.8791645 10.8903379,19 9.5,19 C8.11928813,19 7,17.8823974 7,16.4965439 L7,6.73241789 C6.40206189,6.38790789 6,5.74421628 6,5 C6,4.25882805 6.3991696,3.61182053 7,3.26631902 L7,2.50345613 C7,1.12083549 8.10966206,0 9.5,0 C10.8807119,0 12,1.11760258 12,2.50345613 L12,3.26758211 Z M7,5 C7,5.55606434 7.44643687,6 8.00591905,6 L10.9940809,6 C11.5569509,6 12,5.55649805 12,5 C12,4.44393566 11.5535631,4 10.9940809,4 L8.00591905,4 C7.44304908,4 7,4.44350195 7,5 Z M15,15 L15,15.9998938 C15,16.5553771 15.445433,17 16,17 C16.556717,17 17,16.5555113 17,15.9998938 L17,15 L15,15 Z M17,11 L17,3.00010618 C17,2.44462286 16.554567,2 16,2 C15.443283,2 15,2.44448875 15,3.00010618 L15,11 L17,11 Z M18,11.2652795 C18.597753,11.6092189 19,12.2541224 19,13 C19,13.7400222 18.5968137,14.3861719 18,14.7320709 L18,15.9998938 C18,17.104522 17.1122704,18 16,18 C14.8954305,18 14,17.1099416 14,15.9998938 L14,14.7347205 C13.402247,14.3907811 13,13.7458776 13,13 C13,12.2599778 13.4031863,11.6138281 14,11.2679291 L14,3.00010618 C14,1.89547804 14.8877296,1 16,1 C17.1045695,1 18,1.89005841 18,3.00010618 L18,11.2652795 Z M14,13 C14,13.5569631 14.4437548,14 14.9979131,14 L17.0020869,14 C17.5508122,14 18,13.5509275 18,13 C18,12.4430369 17.5562452,12 17.0020869,12 L14.9979131,12 C14.4491878,12 14,12.4490725 14,13 Z" class="svg-dark"></path>
  </g>
  <g id="synonyms" transform="translate(10.000000, 11.000000)" fill-rule="nonzero">
      <path d="M14.5,7 C10.5,7 8.5,4.98408389 6,5 C3.5,4.98408389 2,7 2,7 C2,7 2.5,2 6.5,2 C10.5,2 12.5,4 15,4 C17.5,4 19,2 19,2 C19,2 18.5,7 14.5,7 Z M14.5,15 C10.5,15 8.5,12.9840839 6,13 C3.5,12.9840839 2,15 2,15 C2,15 2.5,10 6.5,10 C10.5,10 12.5,12 15,12 C17.5,12 19,10 19,10 C19,10 18.5,15 14.5,15 Z" class="svg-lightest" opacity="0.4"></path>
      <path d="M14.5,7 C18.5,7 19,2 19,2 C19,2 17.5,4 15,4 C12.5,4 10.5,2 6.5,2 C2.5,2 2,7 2,7 C2,7 3.5,4.98408389 6,5 C8.5,4.98408389 10.5,7 14.5,7 Z M14.5,8 C12.6653994,8 11.2579445,7.66450688 9.34610602,6.93410134 C9.3062513,6.9188751 8.44291507,6.58390928 8.20778861,6.49666018 C7.81368881,6.35042036 7.49886294,6.2465694 7.20425322,6.16863202 C6.76833699,6.05331277 6.38220684,5.99758697 5.99363369,5.99997973 C5.13119564,5.99448907 4.34507424,6.29390783 3.64548763,6.80656381 C3.22327591,7.11595991 2.9331804,7.42102508 2.80227451,7.59695528 C2.19670697,8.4108042 0.904023552,7.90988886 1.00496281,6.90049628 C1.07850425,6.16508188 1.32269853,5.11853496 1.85557281,4.0527864 C2.79206672,2.17979859 4.32580488,1 6.5,1 C8.34077428,1 9.7514555,1.33521138 11.6684953,2.06551227 C11.7151955,2.08330281 12.5662588,2.41257008 12.7989701,2.49878578 C13.19112,2.64407083 13.5043518,2.74754884 13.7976627,2.82576506 C14.2353021,2.9424689 14.6228379,3 15,3 C15.8627331,3 16.6493575,2.70033357 17.3493283,2.19126392 C17.7752811,1.88148004 18.0678818,1.57615762 18.2,1.4 C18.807457,0.590057362 20.0957776,1.09209991 19.9950372,2.09950372 C19.9214957,2.83491812 19.6773015,3.88146504 19.1444272,4.9472136 C18.2079333,6.82020141 16.6741951,8 14.5,8 Z M14.5,15 C18.5,15 19,10 19,10 C19,10 17.5,12 15,12 C12.5,12 10.5,10 6.5,10 C2.5,10 2,15 2,15 C2,15 3.5,12.9840839 6,13 C8.5,12.9840839 10.5,15 14.5,15 Z M14.5,16 C12.6653994,16 11.2579445,15.6645069 9.34610602,14.9341013 C9.3062513,14.9188751 8.44291507,14.5839093 8.20778861,14.4966602 C7.81368881,14.3504204 7.49886294,14.2465694 7.20425322,14.168632 C6.76833699,14.0533128 6.38220684,13.997587 5.99363369,13.9999797 C5.13119564,13.9944891 4.34507424,14.2939078 3.64548763,14.8065638 C3.22327591,15.1159599 2.9331804,15.4210251 2.80227451,15.5969553 C2.19670697,16.4108042 0.904023552,15.9098889 1.00496281,14.9004963 C1.07850425,14.1650819 1.32269853,13.118535 1.85557281,12.0527864 C2.79206672,10.1797986 4.32580488,9 6.5,9 C8.34077428,9 9.7514555,9.33521138 11.6684953,10.0655123 C11.7151955,10.0833028 12.5662588,10.4125701 12.7989701,10.4987858 C13.19112,10.6440708 13.5043518,10.7475488 13.7976627,10.8257651 C14.2353021,10.9424689 14.6228379,11 15,11 C15.8627331,11 16.6493575,10.7003336 17.3493283,10.1912639 C17.7752811,9.88148004 18.0678818,9.57615762 18.2,9.4 C18.807457,8.59005736 20.0957776,9.09209991 19.9950372,10.0995037 C19.9214957,10.8349181 19.6773015,11.881465 19.1444272,12.9472136 C18.2079333,14.8202014 16.6741951,16 14.5,16 Z" class="svg-dark"></path>
  </g>
  <g id="content" transform="translate(11.000000, 11.000000)">
      <rect class="svg-lightest" fill-rule="nonzero" opacity="0.4" x="4" y="4" width="11" height="11"></rect>
      <path d="M1,4.00012623 C1,2.34320226 2.33396149,1 4.00012623,1 L14.9998738,1 C16.6567977,1 18,2.33396149 18,4.00012623 L18,14.9998738 C18,16.6567977 16.6660385,18 14.9998738,18 L4.00012623,18 C2.34320226,18 1,16.6660385 1,14.9998738 L1,4.00012623 Z M4,4 L4,15 L15,15 L15,4 L4,4 Z" class="svg-light" opacity="0.7"></path>
      <path d="M1,5.00723574 L1,13.9927643 C1,16.212833 2.79410055,18 5.00723574,18 L13.9927643,18 C16.212833,18 18,16.2058994 18,13.9927643 L18,5.00723574 C18,2.78716697 16.2058994,1 13.9927643,1 L5.00723574,1 C2.78716697,1 1,2.79410055 1,5.00723574 Z M0,5.00723574 C0,2.2396858 2.237009,0 5.00723574,0 L13.9927643,0 C16.7603142,0 19,2.237009 19,5.00723574 L19,13.9927643 C19,16.7603142 16.762991,19 13.9927643,19 L5.00723574,19 C2.2396858,19 0,16.762991 0,13.9927643 L0,5.00723574 Z M4,5.99201702 L4,13.007983 C4,14.0998238 4.8918564,15 5.99201702,15 L13.007983,15 C14.0998238,15 15,14.1081436 15,13.007983 L15,5.99201702 C15,4.90017617 14.1081436,4 13.007983,4 L5.99201702,4 C4.90017617,4 4,4.8918564 4,5.99201702 Z M3,5.99201702 C3,4.34179089 4.34566186,3 5.99201702,3 L13.007983,3 C14.6582091,3 16,4.34566186 16,5.99201702 L16,13.007983 C16,14.6582091 14.6543381,16 13.007983,16 L5.99201702,16 C4.34179089,16 3,14.6543381 3,13.007983 L3,5.99201702 Z M12.5,6 C12.7761424,6 13,6.22385763 13,6.5 C13,6.77614237 12.7761424,7 12.5,7 L6.5,7 C6.22385763,7 6,6.77614237 6,6.5 C6,6.22385763 6.22385763,6 6.5,6 L12.5,6 Z M12.5,8 C12.7761424,8 13,8.22385763 13,8.5 C13,8.77614237 12.7761424,9 12.5,9 L6.5,9 C6.22385763,9 6,8.77614237 6,8.5 C6,8.22385763 6.22385763,8 6.5,8 L12.5,8 Z M12.5,10 C12.7761424,10 13,10.2238576 13,10.5 C13,10.7761424 12.7761424,11 12.5,11 L6.5,11 C6.22385763,11 6,10.7761424 6,10.5 C6,10.2238576 6.22385763,10 6.5,10 L12.5,10 Z M9.5,12 C9.77614237,12 10,12.2238576 10,12.5 C10,12.7761424 9.77614237,13 9.5,13 L6.5,13 C6.22385763,13 6,12.7761424 6,12.5 C6,12.2238576 6.22385763,12 6.5,12 L9.5,12 Z" class="svg-dark" fill-rule="nonzero"></path>
  </g>
  <g id="domains" transform="translate(11.000000, 10.000000)" fill-rule="nonzero">
      <path d="M9.5,18 C4.80557963,18 1,14.1944204 1,9.5 C1,4.80557963 4.80557963,1 9.5,1 C14.1944204,1 18,4.80557963 18,9.5 C18,14.1944204 14.1944204,18 9.5,18 Z M9.5,15 C12.5375661,15 15,12.5375661 15,9.5 C15,6.46243388 12.5375661,4 9.5,4 C6.46243388,4 4,6.46243388 4,9.5 C4,12.5375661 6.46243388,15 9.5,15 Z" class="svg-lightest" opacity="0.4"></path>
      <path d="M9.5,15 C6.46243388,15 4,12.5375661 4,9.5 C4,6.46243388 6.46243388,4 9.5,4 C12.5375661,4 15,6.46243388 15,9.5 C15,12.5375661 12.5375661,15 9.5,15 Z M9.5,12 C10.8807119,12 12,10.8807119 12,9.5 C12,8.11928813 10.8807119,7 9.5,7 C8.11928813,7 7,8.11928813 7,9.5 C7,10.8807119 8.11928813,12 9.5,12 Z" class="svg-light" opacity="0.7"></path>
      <path d="M9.5,18 C14.1944204,18 18,14.1944204 18,9.5 C18,4.80557963 14.1944204,1 9.5,1 C4.80557963,1 1,4.80557963 1,9.5 C1,14.1944204 4.80557963,18 9.5,18 Z M9.5,19 C4.25329488,19 0,14.7467051 0,9.5 C0,4.25329488 4.25329488,0 9.5,0 C14.7467051,0 19,4.25329488 19,9.5 C19,14.7467051 14.7467051,19 9.5,19 Z M9.5,15 C12.5375661,15 15,12.5375661 15,9.5 C15,6.46243388 12.5375661,4 9.5,4 C6.46243388,4 4,6.46243388 4,9.5 C4,12.5375661 6.46243388,15 9.5,15 Z M9.5,16 C5.91014913,16 3,13.0898509 3,9.5 C3,5.91014913 5.91014913,3 9.5,3 C13.0898509,3 16,5.91014913 16,9.5 C16,13.0898509 13.0898509,16 9.5,16 Z M9.5,12 C10.8807119,12 12,10.8807119 12,9.5 C12,8.11928813 10.8807119,7 9.5,7 C8.11928813,7 7,8.11928813 7,9.5 C7,10.8807119 8.11928813,12 9.5,12 Z M9.5,13 C7.56700338,13 6,11.4329966 6,9.5 C6,7.56700338 7.56700338,6 9.5,6 C11.4329966,6 13,7.56700338 13,9.5 C13,11.4329966 11.4329966,13 9.5,13 Z" class="svg-dark"></path>
  </g>
  <g id="team" transform="translate(11.000000, 9.000000)">
      <path d="M9.5,16 C8.19849922,16 5.92867916,15.301309 5.21867902,15.071967 C6.2180252,14.4440451 7,13.7220225 7,13 C7,11 5,9.5 5,8 C5,7 6,7 6,7 C6,7 5.63276969,5.16384846 6.34481805,3.7169438 C5.59636943,3.85234527 5,4 5,4 C5,4 5.5,3 6.5,2.5 C7.5,2 9.09362246,2 9.5,2 C10.5,2 11.0000001,1.5 11.0000001,1.5 C11.0000001,1.5 11.1974169,1.90168379 11.2179593,2.32210181 C13.7144703,3.42764851 13,7 13,7 C13,7 14,7 14,8 C14,9.5 12,11 12,13 C12,13.7214058 12.7806394,14.4428115 13.7787605,15.0703577 C13.0509936,15.2980208 10.7089662,16 9.5,16 Z" class="svg-lightest" fill-rule="nonzero" opacity="0.4"></path>
      <path d="M1,18 L18,18 L18,17 L14,15 C14,15 10.9429525,16 9.5,16 C7.94295249,16 5.00000004,15 5.00000004,15 L1,17 L1,18 Z" class="svg-light" opacity="0.7"></path>
      <path d="M4.68478029,15.3881627 C2.99541458,16.3348618 1,17 1,17 L1,18 L18,18 L18,17 C18,17 16.0045854,16.3348618 14.3152197,15.3881627 C14.3031541,15.3979375 14.2905279,15.40724 14.2773501,15.4160251 C14.0540141,15.5649158 13.6392595,15.7722931 13.0331139,15.9743416 C12.0452966,16.3036141 10.8669811,16.5 9.5,16.5 C8.13301894,16.5 6.9547034,16.3036141 5.96688612,15.9743416 C5.36074049,15.7722931 4.94598589,15.5649158 4.7226499,15.4160251 C4.70947215,15.40724 4.69684595,15.3979375 4.68478029,15.3881627 Z M5.65291876,14.7825785 C5.81894929,14.857536 6.02901326,14.9409581 6.28311388,15.0256584 C7.1702966,15.3213859 8.24198106,15.5 9.5,15.5 C10.7580189,15.5 11.8297034,15.3213859 12.7168861,15.0256584 C12.9709867,14.9409581 13.1810507,14.857536 13.3470812,14.7825785 C12.5644421,14.2268573 12,13.6134286 12,13 C12,11 14,9.5 14,8 C14,7 13,7 13,7 C13,7 13.7144703,3.42764851 11.2179593,2.32210181 C11.1974169,1.90168379 11.0000001,1.5 11.0000001,1.5 C11.0000001,1.5 10.5,2 9.5,2 C9.09362246,2 7.5,2 6.5,2.5 C5.5,3 5,4 5,4 C5,4 5.59636943,3.85234527 6.34481805,3.7169438 C5.63276969,5.16384846 6,7 6,7 C6,7 5,7 5,8 C5,9.5 7,11 7,13 C7,13.6134286 6.43555794,14.2268573 5.65291876,14.7825785 Z M4.10557281,3.5527864 C4.26083641,3.2422592 4.5398992,2.82366501 4.95955989,2.40400433 C5.28162958,2.08193463 5.64476324,1.80958439 6.0527864,1.60557281 C6.62388877,1.32002163 7.32028457,1.1548085 8.11440097,1.06837166 C8.61320234,1.01407885 9.01358047,1 9.5,1 C9.7775129,1 10.0003512,0.944290432 10.1777864,0.8555728 C10.2628189,0.813056599 10.302463,0.783323497 10.2928933,0.792893181 C10.7775724,0.308214179 11.5951327,0.4437592 11.8974673,1.05891881 C11.944061,1.1537231 12.0028124,1.2930747 12.0599571,1.46715265 C12.0818996,1.5339952 12.1019742,1.60126853 12.1199296,1.66897258 C13.2544545,2.36956088 13.8544446,3.5372526 14.036903,4.94730227 C14.1004186,5.43815501 14.1102566,5.90079366 14.0884141,6.30825245 C14.6473388,6.64542819 15,7.23245065 15,8 C15,8.88670511 14.798791,9.2975068 13.8516583,10.8365974 C13.2351087,11.8384906 13,12.3968737 13,13 C13,13.3227954 13.9275119,14.095722 15.4472136,14.8555728 C16.0729274,15.1684297 16.7486138,15.4612271 17.4249463,15.7242453 C17.8304083,15.881925 18.1433869,15.9937031 18.3162278,16.0513167 C18.7245699,16.1874307 19,16.5695696 19,17 L19,18 C19,18.5522847 18.5522847,19 18,19 L1,19 C0.44771525,19 0,18.5522847 0,18 L0,17 C0,16.5695696 0.275430095,16.1874307 0.683772234,16.0513167 C0.856613108,15.9937031 1.16959175,15.881925 1.57505374,15.7242453 C2.2513862,15.4612271 2.92707263,15.1684297 3.5527864,14.8555728 C5.07248811,14.095722 6,13.3227954 6,13 C6,12.3968737 5.76489132,11.8384906 5.14834168,10.8365974 C4.20120899,9.2975068 4,8.88670511 4,8 C4,7.23037426 4.35457184,6.64225346 4.91612648,6.30552154 C4.89154336,5.87836013 4.90074432,5.43955158 4.95495453,5.00073087 C4.26477703,4.97452537 3.76892762,4.22607679 4.10557281,3.5527864 Z" class="svg-dark" fill-rule="nonzero"></path>
  </g>
  <g id="install" transform="translate(11.000000, 10.000000)" fill-rule="nonzero">
      <path d="M9.5,18 C4.80557963,18 1,14.1944204 1,9.5 C1,4.80557963 4.80557963,1 9.5,1 C14.1944204,1 18,4.80557963 18,9.5 C18,14.1944204 14.1944204,18 9.5,18 Z M8.90046024,5.49769878 L8,10 L5.5,10 L9.5,14 L13.5,10 L11,10 L10.0995398,5.49769878 C10.0429688,5.21484375 9.77614237,5 9.5,5 C9.23193359,5 8.95543453,5.22282734 8.90046024,5.49769878 Z" class="svg-light" opacity="0.4"></path>
      <path d="M9.5,18 C14.1944204,18 18,14.1944204 18,9.5 C18,4.80557963 14.1944204,1 9.5,1 C4.80557963,1 1,4.80557963 1,9.5 C1,14.1944204 4.80557963,18 9.5,18 Z M9.5,19 C4.25329488,19 0,14.7467051 0,9.5 C0,4.25329488 4.25329488,0 9.5,0 C14.7467051,0 19,4.25329488 19,9.5 C19,14.7467051 14.7467051,19 9.5,19 Z M8.90046024,5.49769878 L8,10 L5.5,10 L9.5,14 L13.5,10 L11,10 L10.0995398,5.49769878 C10.0429687,5.21484375 9.77614237,5 9.5,5 C9.23193359,5 8.95543453,5.22282734 8.90046024,5.49769878 Z M11.8198039,9 L13.5,9 C14.3909049,9 14.8370716,10.0771419 14.2071068,10.7071068 L10.2071068,14.7071068 C9.81658249,15.0976311 9.18341751,15.0976311 8.79289322,14.7071068 L4.79289322,10.7071068 C4.16292836,10.0771419 4.60909515,9 5.5,9 L7.1801961,9 L7.91987957,5.30158265 C8.06765853,4.56268786 8.75179251,4 9.5,4 C10.2562872,4 10.9307455,4.55470796 11.0801204,5.30158265 L11.8198039,9 Z" class="svg-dark"></path>
  </g>
  <g id="customize" transform="translate(11.000000, 9.000000)" fill-rule="nonzero">
      <path d="M1,17 L1,19 L13,19 L13,16 C13,15 14,14.0000001 15,14.0000001 C16,14.0000001 16.5,15.0000001 17.5,15.0000001 C18.5,15.0000001 19,14.5000001 19,13.0187286 C19,11.5374571 18.5,11 17.5,11 C16.5,11 15.9675827,12.0000012 15,12 C14,11.9999987 13,11 13,10.0000003 L13,7 L10,7 C9,7 8.0000001,6 8.0000001,5 C8.0000001,4 9.0000001,3.5 9.0000001,2.5 C9.0000001,1.5 8.5000001,1 7.0187286,1 C5.53745709,1 4.99999998,1.5 4.99999998,2.5 C4.99999998,3.5 6.00000123,4.03241731 5.99999998,5 C5.9999987,6 5,7 4.00000033,7 L1,7 L1,9 C1,9.99999998 2,10.9999987 3,11 C3.96758269,11.0000012 4,10 5.5,9.99999996 C7,9.99999993 8,11.5374571 8,13.0187286 C8,14.5000001 7,16.0000002 5.5,16.0000001 C4,16 4,15.0000001 3,15.0000001 C2,15.0000001 1,16 1,17 Z" class="svg-lightest" opacity="0.4"></path>
      <path d="M1,17 L1,19 L13,19 L13,16 C13,15 14,14.0000001 15,14.0000001 C16,14.0000001 16.5,15.0000001 17.5,15.0000001 C18.5,15.0000001 19,14.5000001 19,13.0187286 C19,11.5374571 18.5,11 17.5,11 C16.5,11 15.9675827,12.0000012 15,12 C14,11.9999987 13,11 13,10.0000003 L13,7 L10,7 C9,7 8.0000001,6 8.0000001,5 C8.0000001,4 9.0000001,3.5 9.0000001,2.5 C9.0000001,1.5 8.5000001,1 7.0187286,1 C5.53745709,1 4.99999998,1.5 4.99999998,2.5 C4.99999998,3.5 6.00000123,4.03241731 5.99999998,5 C5.9999987,6 5,7 4.00000033,7 L1,7 L1,9 C1,9.99999998 2,10.9999987 3,11 C3.96758269,11.0000012 4,10 5.5,9.99999996 C7,9.99999993 8,11.5374571 8,13.0187286 C8,14.5000001 7,16.0000002 5.5,16.0000001 C4,16 4,15.0000001 3,15.0000001 C2,15.0000001 1,16 1,17 Z M0,17 C2.24265051e-14,15.4477152 1.44771525,14.0000001 3,14.0000001 C3.61108929,14.0000001 4.03037005,14.1916713 4.50469503,14.5711312 C4.53926401,14.5987864 4.66051403,14.6977864 4.68719506,14.7191313 C4.95747892,14.9353583 5.11369645,15.0000001 5.50000006,15.0000001 C6.30028203,15.0000001 7,14.1041069 7,13.0187286 C7,11.9229145 6.2910296,10.9999999 5.50000002,11 C5.11052658,11 4.9448769,11.0677869 4.67012658,11.2847736 C4.64221512,11.306817 4.50605506,11.4168761 4.46522201,11.4490394 C4.00257891,11.8134527 3.58920968,12.0000007 2.99999872,12 C1.44771443,11.999998 3.08642001e-14,10.5522842 1.24344979e-14,9 L0,7 C-3.33066907e-15,6.44771525 0.44771525,6 1,6 L4.00000033,6 C4.44771496,6 4.99999941,5.44771525 4.99999998,4.99999872 C5.00000016,4.86450134 4.93725894,4.72555129 4.69190601,4.35320794 C4.67870708,4.33318609 4.67870708,4.33318609 4.66521417,4.31273061 C4.18978554,3.59188205 3.99999998,3.17555329 3.99999998,2.5 C3.99999998,0.846790102 5.08227636,-3.99680289e-15 7.0187286,0 C8.95040552,3.99680289e-15 10.0000001,0.846013492 10.0000001,2.5 C10.0000001,3.17771426 9.81240804,3.58416373 9.3320504,4.3047002 C9.06240804,4.70916373 9.0000001,4.84438093 9.0000001,5 C9.0000001,5.44771528 9.55228478,6 10,6 L13,6 C13.5522847,6 14,6.44771525 14,7 L14,10.0000003 C14,10.4477149 14.5522847,10.9999994 15.0000013,11 C15.1354987,11.0000001 15.2744487,10.9372589 15.6467921,10.691906 C15.6668139,10.6787071 15.6668139,10.6787071 15.6872694,10.6652142 C16.4081179,10.1897855 16.8244467,9.99999997 17.5,9.99999996 C19.1532099,9.99999996 20,11.0822763 20,13.0187286 C20,14.9504055 19.1539865,16.0000001 17.5,16.0000001 C16.8222857,16.0000001 16.4158363,15.812408 15.6952998,15.3320504 C15.2908363,15.062408 15.1556191,15.0000001 15,15.0000001 C14.5522847,15.0000001 14,15.5522848 14,16 L14,19 C14,19.5522847 13.5522847,20 13,20 L1,20 C0.44771525,20 0,19.5522847 0,19 L0,17 Z" class="svg-dark"></path>
  </g>
  <g id="engage" transform="translate(12.000000, 11.000000)" fill-rule="nonzero">
      <path d="M1,12 L5,12 L5,8.49790272 C5,6.56606439 6.57093664,5 8.5,5 C10.4329966,5 12,6.57691203 12,8.49790272 L12,12 L16,12 L16,8.5 C16,4.36629279 12.6421356,1 8.5,1 C4.36629279,1 1,4.35786438 1,8.5 L1,12 Z" class="svg-light" opacity="0.4"></path>
      <path d="M5,13 L1,13 L1,16 L5,16 L5,13 Z M1,12 L5,12 L5,8.49790272 C5,6.56606439 6.57093664,5 8.5,5 C10.4329966,5 12,6.57691203 12,8.49790272 L12,12 L16,12 L16,8.5 C16,4.36629279 12.6421356,1 8.5,1 C4.36629279,1 1,4.35786438 1,8.5 L1,12 Z M6,8.49790272 L6,16.0001925 C6,16.5523709 5.54902482,17 5.00922203,17 L0.990777969,17 C0.443586406,17 0,16.5562834 0,16.0001925 L0,8.5 C0,3.80831453 3.81127073,0 8.5,0 C13.1916855,0 17,3.81127073 17,8.5 L17,16.0001925 C17,16.5523709 16.5490248,17 16.009222,17 L11.990778,17 C11.4435864,17 11,16.5562834 11,16.0001925 L11,8.49790272 C11,7.12510577 9.87662604,6 8.5,6 C7.1215553,6 6,7.12001383 6,8.49790272 Z M16,13 L12,13 L12,16 L16,16 L16,13 Z" class="svg-dark"></path>
  </g>
  <g id="conversions" transform="translate(12.000000, 9.000000)" fill-rule="nonzero">
      <rect class="svg-light" opacity="0.7" x="1" y="1" width="3" height="19"></rect>
      <path d="M4,5 C4,5 6,4 8,4 C10,4 11,5.5 13,5.5 C15,5.5 16,5 16,5 L14,8.5 L16,11 C16,11 15,11.5 13,11.5 C11,11.5 10,10 8,10 C6,10 4,11 4,11 L4,5 Z" class="svg-lightest" opacity="0.4"></path>
      <path d="M4,12.0012901 L4,19.4962901 C4,20.3267661 3.33420277,21 2.5,21 C1.67157288,21 1,20.338023 1,19.4962901 L1,4.50370994 C1,4.50253501 1.00000133,4.5013604 1.000004,4.5001861 C0.392778372,4.04408311 0,3.31791071 0,2.5 C0,1.11928813 1.11928813,0 2.5,0 C3.88071187,0 5,1.11928813 5,2.5 C5,2.90215794 4.90504255,3.28213737 4.73632586,3.61874008 C4.80048406,3.59630133 4.86632551,3.57379894 4.93377223,3.5513167 C5.96493381,3.20759618 7.00291469,3 8,3 C9.03387101,3 9.69101115,3.22747159 10.9472136,3.85557281 C11.9410112,4.35247159 12.3672043,4.5 13,4.5 C13.7926023,4.5 14.4611865,4.41642697 15.0074644,4.2798575 C15.3101738,4.20418015 15.4917656,4.13608324 15.5527864,4.10557281 C16.4377398,3.66309612 17.359127,4.63709226 16.8682431,5.49613894 L15.2054485,8.40602956 L16.7808688,10.375305 C17.1785773,10.8724406 17.0166455,11.6097112 16.4472136,11.8944272 C16.2582344,11.9889168 15.9398262,12.1083199 15.4925356,12.2201425 C14.7888135,12.396073 13.9573977,12.5 13,12.5 C11.966129,12.5 11.3089888,12.2725284 10.0527864,11.6444272 C9.05898885,11.1475284 8.63279566,11 8,11 C7.24708531,11 6.41006619,11.1674038 5.56622777,11.4486833 C5.26572087,11.5488523 4.98669099,11.6561714 4.7376693,11.762895 C4.59238606,11.8251593 4.49283657,11.8716157 4.4472136,11.8944272 C4.30063533,11.9677163 4.14835103,12.0013515 4,12.0012901 Z M4,11 C4,11 6,10 8,10 C10,10 11,11.5 13,11.5 C15,11.5 16,11 16,11 L14,8.5 L16,5 C16,5 15,5.5 13,5.5 C11,5.5 10,4 8,4 C6,4 4,5 4,5 L4,11 Z M3,5 L3,4.94999094 C2.83844503,4.98278487 2.67123292,5 2.5,5 C2.32876708,5 2.16155497,4.98278487 2,4.94999094 L2,19.4962901 C2,19.781242 2.21935257,20 2.5,20 C2.77877086,20 3,19.7776323 3,19.4962901 L3,11 L3,5 Z M2.5,4 C3.32842712,4 4,3.32842712 4,2.5 C4,1.67157288 3.32842712,1 2.5,1 C1.67157288,1 1,1.67157288 1,2.5 C1,3.32842712 1.67157288,4 2.5,4 Z" class="svg-dark"></path>
  </g>
</svg>
