<svg xmlns="http://www.w3.org/2000/svg" viewBox="0 0 2600 2340"><filter id="b"><feGaussianBlur stdDeviation="12" /></filter><path fill="#f6f9f1" d="M0 0h2600v2335H0z"/><g filter="url(#b)" transform="translate(5 5) scale(10.15625)" fill-opacity=".5"><path fill="#ff4" d="M16 165h33v58H16z"/><path fill="#f9fa4b" d="M210.5 63.6l3-57 34 1.8-3 57z"/><ellipse fill="#f8f954" rx="1" ry="1" transform="matrix(18.6867 -.22831 .38685 31.66277 134.3 100.5)"/><ellipse fill="#a1e5ff" rx="1" ry="1" transform="matrix(30.97423 -5.2648 8.55705 50.34341 98.3 45.5)"/><ellipse fill="#fffdff" rx="1" ry="1" transform="matrix(-61.18496 -7.83797 11.22517 -87.62613 220.4 150.7)"/><ellipse fill="#fffdff" cx="19" cy="99" rx="67" ry="67"/><path fill="#fff" d="M104.9 13.7L198.5 29l28.4-38.5L35.4-16z"/><ellipse fill="#fffdff" cx="90" cy="193" rx="41" ry="79"/></g></svg>