<svg xmlns="http://www.w3.org/2000/svg" viewBox="0 0 711 930"><filter id="b"><feGaussianBlur stdDeviation="12" /></filter><path fill="#e1e1e1" d="M0 0h712v930H0z"/><g filter="url(#b)" transform="translate(1.8 1.8) scale(3.63281)" fill-opacity=".5"><ellipse fill="#323232" rx="1" ry="1" transform="matrix(-1.47586 -20.58934 68.09715 -4.88126 93 70.6)"/><ellipse fill="#fff" rx="1" ry="1" transform="matrix(63.67199 55.62232 -65.53646 75.0209 191.5 176.8)"/><ellipse fill="#fff" rx="1" ry="1" transform="matrix(-17.84371 33.9334 -71.7745 -37.74227 143.6 19)"/><ellipse fill="#a5a5a5" rx="1" ry="1" transform="matrix(18.08432 12.244 -8.9153 13.16785 156.1 68.7)"/><ellipse fill="#fff" rx="1" ry="1" transform="matrix(-.84756 16.73107 -74.60189 -3.77917 11.9 105)"/><ellipse fill="#525252" cx="79" cy="73" rx="48" ry="12"/><ellipse fill="#fff" cx="101" cy="192" rx="195" ry="14"/><ellipse fill="#fff" cx="32" cy="18" rx="43" ry="47"/></g></svg>