<?xml version="1.0" encoding="UTF-8"?>
<svg width="24px" height="24px" viewBox="0 0 24 24" version="1.1" xmlns="http://www.w3.org/2000/svg" xmlns:xlink="http://www.w3.org/1999/xlink">
    <!-- Generator: Sketch 52.6 (67491) - http://www.bohemiancoding.com/sketch -->
    <title>moon</title>
    <desc>Created with Sketch.</desc>
    <g id="moon" stroke="none" stroke-width="1" fill="none" fill-rule="evenodd">
        <path d="M7,12 C7,14.7614237 9.23857625,17 12,17 C13.6784032,17 15.1636533,16.1730136 16.0705043,14.904287 C15.722047,14.9672643 15.3641601,15 15,15 C11.6862915,15 9,12.3137085 9,9 C9,8.63583993 9.03273572,8.27795299 9.09571298,7.92949574 C7.82698638,8.8363467 7,10.3215968 7,12 Z M13.0850064,5.48759049 C13.0725916,5.49420639 13.0607081,5.50069096 13.0493559,5.50704421 C11.8265875,6.1913651 11,7.49915262 11,9 C11,11.209139 12.790861,13 15,13 C16.4434624,13 17.708346,12.2354133 18.4117504,11.0891403 C18.4223667,11.0718398 18.4332304,11.0534626 18.4443415,11.0340087 L18.4443111,11.0339913 C18.5183163,10.9044189 18.6833485,10.8593728 18.8129209,10.933378 C18.8869265,10.9756462 18.9366504,11.0503547 18.9470753,11.1349405 C18.9470753,11.1349405 18.9470753,11.1349405 18.9470753,11.1349405 C18.9820102,11.4183955 19,11.7070969 19,12 C19,15.8659932 15.8659932,19 12,19 C8.13400675,19 5,15.8659932 5,12 C5,8.13400675 8.13400675,5 12,5 C12.3438723,5 12.6819534,5.02479546 13.0125527,5.072696 C13.0125527,5.072696 13.0125527,5.072696 13.0125527,5.072696 L13.0125527,5.072696 C13.1336728,5.09024509 13.2176336,5.20265863 13.2000846,5.32377868 C13.1899712,5.39357867 13.1472354,5.45439594 13.0849929,5.48756515 Z" id="Combined-Shape" fill="#000000" fill-rule="nonzero"></path>
    </g>
</svg>