<!-- To add icons here, copy/paste paths from the file downloaded from https://simpleicons.org/
     and give them an id corresponding to the social.html partial -->

<svg role="img" viewBox="0 0 24 24" xmlns="http://www.w3.org/2000/svg">

  <path id="CodePen" d="M24 8.182l-.018-.087-.017-.05c-.01-.024-.018-.05-.03-.075-.003-.018-.015-.034-.02-.05l-.035-.067-.03-.05-.044-.06-.046-.045-.06-.045-.046-.03-.06-.044-.044-.04-.015-.02L12.58.19c-.347-.232-.796-.232-1.142 0L.453 7.502l-.015.015-.044.035-.06.05-.038.04-.05.056-.037.045-.05.06c-.02.017-.03.03-.03.046l-.05.06-.02.06c-.02.01-.02.04-.03.07l-.01.05C0 8.12 0 8.15 0 8.18v7.497c0 .044.003.09.01.135l.01.046c.005.03.01.06.02.086l.015.05c.01.027.016.053.027.075l.022.05c0 .01.015.04.03.06l.03.04c.015.01.03.04.045.06l.03.04.04.04c.01.013.01.03.03.03l.06.042.04.03.01.014 10.97 7.33c.164.12.375.163.57.163s.39-.06.57-.18l10.99-7.28.014-.01.046-.037.06-.043.048-.036.052-.058.033-.045.04-.06.03-.05.03-.07.016-.052.03-.077.015-.045.03-.08v-7.5c0-.05 0-.095-.016-.14l-.014-.045.044.003zm-11.99 6.28l-3.65-2.44 3.65-2.442 3.65 2.44-3.65 2.44zm-1.034-6.674l-4.473 2.99L2.89 8.362l8.086-5.39V7.79zm-6.33 4.233l-2.582 1.73V10.3l2.582 1.726zm1.857 1.25l4.473 2.99v4.82L2.89 15.69l3.618-2.417v-.004zm6.537 2.99l4.474-2.98 3.613 2.42-8.087 5.39v-4.82zm6.33-4.23l2.583-1.72v3.456l-2.583-1.73zm-1.855-1.24L13.042 7.8V2.97l8.085 5.39-3.612 2.415v.003z"/>
  
  <path id="Dribbble" d="M12 24C5.385 24 0 18.615 0 12S5.385 0 12 0s12 5.385 12 12-5.385 12-12 12zm10.12-10.358c-.35-.11-3.17-.953-6.384-.438 1.34 3.684 1.887 6.684 1.992 7.308 2.3-1.555 3.936-4.02 4.395-6.87zm-6.115 7.808c-.153-.9-.75-4.032-2.19-7.77l-.066.02c-5.79 2.015-7.86 6.025-8.04 6.4 1.73 1.358 3.92 2.166 6.29 2.166 1.42 0 2.77-.29 4-.814zm-11.62-2.58c.232-.4 3.045-5.055 8.332-6.765.135-.045.27-.084.405-.12-.26-.585-.54-1.167-.832-1.74C7.17 11.775 2.206 11.71 1.756 11.7l-.004.312c0 2.633.998 5.037 2.634 6.855zm-2.42-8.955c.46.008 4.683.026 9.477-1.248-1.698-3.018-3.53-5.558-3.8-5.928-2.868 1.35-5.01 3.99-5.676 7.17zM9.6 2.052c.282.38 2.145 2.914 3.822 6 3.645-1.365 5.19-3.44 5.373-3.702-1.81-1.61-4.19-2.586-6.795-2.586-.825 0-1.63.1-2.4.285zm10.335 3.483c-.218.29-1.935 2.493-5.724 4.04.24.49.47.985.68 1.486.08.18.15.36.22.53 3.41-.43 6.8.26 7.14.33-.02-2.42-.88-4.64-2.31-6.38z"/>

  <path id="Github" d="M12 .297c-6.63 0-12 5.373-12 12 0 5.303 3.438 9.8 8.205 11.385.6.113.82-.258.82-.577 0-.285-.01-1.04-.015-2.04-3.338.724-4.042-1.61-4.042-1.61C4.422 18.07 3.633 17.7 3.633 17.7c-1.087-.744.084-.729.084-.729 1.205.084 1.838 1.236 1.838 1.236 1.07 1.835 2.809 1.305 3.495.998.108-.776.417-1.305.76-1.605-2.665-.3-5.466-1.332-5.466-5.93 0-1.31.465-2.38 1.235-3.22-.135-.303-.54-1.523.105-3.176 0 0 1.005-.322 3.3 1.23.96-.267 1.98-.399 3-.405 1.02.006 2.04.138 3 .405 2.28-1.552 3.285-1.23 3.285-1.23.645 1.653.24 2.873.12 3.176.765.84 1.23 1.91 1.23 3.22 0 4.61-2.805 5.625-5.475 5.92.42.36.81 1.096.81 2.22 0 1.606-.015 2.896-.015 3.286 0 .315.21.69.825.57C20.565 22.092 24 17.592 24 12.297c0-6.627-5.373-12-12-12"/>

  <path id="Goodreads" d="M19.525 15.977V.49h-2.059v2.906h-.064c-.211-.455-.481-.891-.842-1.307-.36-.412-.767-.777-1.232-1.094-.466-.314-.962-.561-1.519-.736C13.256.09 12.669 0 12.038 0c-1.21 0-2.3.225-3.246.67-.947.447-1.743 1.057-2.385 1.83-.642.773-1.133 1.676-1.47 2.711-.336 1.037-.506 2.129-.506 3.283 0 1.199.141 2.326.425 3.382.286 1.057.737 1.976 1.368 2.762.631.78 1.412 1.397 2.375 1.833.961.436 2.119.661 3.471.661 1.248 0 2.33-.315 3.262-.946s1.638-1.473 2.119-2.525h.061v2.284c0 2.044-.421 3.607-1.264 4.705-.84 1.081-2.224 1.638-4.146 1.638-.572 0-1.128-.061-1.669-.181-.542-.12-1.036-.315-1.487-.57-.437-.271-.827-.601-1.143-1.038-.316-.435-.526-.961-.632-1.593H5.064c.067.887.315 1.654.737 2.3.424.646.961 1.172 1.602 1.593.641.406 1.367.706 2.172.902.811.194 1.639.3 2.494.3 1.383 0 2.541-.195 3.486-.555.947-.376 1.714-.902 2.301-1.608.601-.708 1.021-1.549 1.293-2.556.27-1.007.42-2.134.42-3.367l-.044.062zm-7.484-.557c-.955 0-1.784-.189-2.479-.571-.697-.38-1.277-.882-1.732-1.503-.467-.621-.797-1.332-1.022-2.139s-.332-1.633-.332-2.484c0-.871.105-1.725.301-2.563.21-.84.54-1.587.992-2.24.451-.652 1.037-1.182 1.728-1.584s1.533-.605 2.51-.605 1.803.209 2.495.621c.676.415 1.247.959 1.683 1.634.436.677.751 1.429.947 2.255.195.826.285 1.656.285 2.482 0 .852-.12 1.678-.345 2.484-.226.807-.572 1.518-1.038 2.139-.465.621-1.021 1.123-1.698 1.503-.676.382-1.458.571-2.359.571h.064z"/>

  <path id="Instagram" d="M12 0C8.74 0 8.333.015 7.053.072 5.775.132 4.905.333 4.14.63c-.789.306-1.459.717-2.126 1.384S.935 3.35.63 4.14C.333 4.905.131 5.775.072 7.053.012 8.333 0 8.74 0 12s.015 3.667.072 4.947c.06 1.277.261 2.148.558 2.913.306.788.717 1.459 1.384 2.126.667.666 1.336 1.079 2.126 1.384.766.296 1.636.499 2.913.558C8.333 23.988 8.74 24 12 24s3.667-.015 4.947-.072c1.277-.06 2.148-.262 2.913-.558.788-.306 1.459-.718 2.126-1.384.666-.667 1.079-1.335 1.384-2.126.296-.765.499-1.636.558-2.913.06-1.28.072-1.687.072-4.947s-.015-3.667-.072-4.947c-.06-1.277-.262-2.149-.558-2.913-.306-.789-.718-1.459-1.384-2.126C21.319 1.347 20.651.935 19.86.63c-.765-.297-1.636-.499-2.913-.558C15.667.012 15.26 0 12 0zm0 2.16c3.203 0 3.585.016 4.85.071 1.17.055 1.805.249 2.227.415.562.217.96.477 1.382.896.419.42.679.819.896 1.381.164.422.36 1.057.413 2.227.057 1.266.07 1.646.07 4.85s-.015 3.585-.074 4.85c-.061 1.17-.256 1.805-.421 2.227-.224.562-.479.96-.899 1.382-.419.419-.824.679-1.38.896-.42.164-1.065.36-2.235.413-1.274.057-1.649.07-4.859.07-3.211 0-3.586-.015-4.859-.074-1.171-.061-1.816-.256-2.236-.421-.569-.224-.96-.479-1.379-.899-.421-.419-.69-.824-.9-1.38-.165-.42-.359-1.065-.42-2.235-.045-1.26-.061-1.649-.061-4.844 0-3.196.016-3.586.061-4.861.061-1.17.255-1.814.42-2.234.21-.57.479-.96.9-1.381.419-.419.81-.689 1.379-.898.42-.166 1.051-.361 2.221-.421 1.275-.045 1.65-.06 4.859-.06l.045.03zm0 3.678c-3.405 0-6.162 2.76-6.162 6.162 0 3.405 2.76 6.162 6.162 6.162 3.405 0 6.162-2.76 6.162-6.162 0-3.405-2.76-6.162-6.162-6.162zM12 16c-2.21 0-4-1.79-4-4s1.79-4 4-4 4 1.79 4 4-1.79 4-4 4zm7.846-10.405c0 .795-.646 1.44-1.44 1.44-.795 0-1.44-.646-1.44-1.44 0-.794.646-1.439 1.44-1.439.793-.001 1.44.645 1.44 1.439z"/>

  <path id="LinkedIn" d="M20.447 20.452h-3.554v-5.569c0-1.328-.027-3.037-1.852-3.037-1.853 0-2.136 1.445-2.136 2.939v5.667H9.351V9h3.414v1.561h.046c.477-.9 1.637-1.85 3.37-1.85 3.601 0 4.267 2.37 4.267 5.455v6.286zM5.337 7.433c-1.144 0-2.063-.926-2.063-2.065 0-1.138.92-2.063 2.063-2.063 1.14 0 2.064.925 2.064 2.063 0 1.139-.925 2.065-2.064 2.065zm1.782 13.019H3.555V9h3.564v11.452zM22.225 0H1.771C.792 0 0 .774 0 1.729v20.542C0 23.227.792 24 1.771 24h20.451C23.2 24 24 23.227 24 22.271V1.729C24 .774 23.2 0 22.222 0h.003z"/>

  <path id="Twitter" d="M23.954 4.569c-.885.389-1.83.654-2.825.775 1.014-.611 1.794-1.574 2.163-2.723-.951.555-2.005.959-3.127 1.184-.896-.959-2.173-1.559-3.591-1.559-2.717 0-4.92 2.203-4.92 4.917 0 .39.045.765.127 1.124C7.691 8.094 4.066 6.13 1.64 3.161c-.427.722-.666 1.561-.666 2.475 0 1.71.87 3.213 2.188 4.096-.807-.026-1.566-.248-2.228-.616v.061c0 2.385 1.693 4.374 3.946 4.827-.413.111-.849.171-1.296.171-.314 0-.615-.03-.916-.086.631 1.953 2.445 3.377 4.604 3.417-1.68 1.319-3.809 2.105-6.102 2.105-.39 0-.779-.023-1.17-.067 2.189 1.394 4.768 2.209 7.557 2.209 9.054 0 13.999-7.496 13.999-13.986 0-.209 0-.42-.015-.63.961-.689 1.8-1.56 2.46-2.548l-.047-.02z"/>

  <path id="YouTube" d="M23.495 6.205a3.007 3.007 0 0 0-2.088-2.088c-1.87-.501-9.396-.501-9.396-.501s-7.507-.01-9.396.501A3.007 3.007 0 0 0 .527 6.205a31.247 31.247 0 0 0-.522 5.805 31.247 31.247 0 0 0 .522 5.783 3.007 3.007 0 0 0 2.088 2.088c1.868.502 9.396.502 9.396.502s7.506 0 9.396-.502a3.007 3.007 0 0 0 2.088-2.088 31.247 31.247 0 0 0 .5-5.783 31.247 31.247 0 0 0-.5-5.805zM9.609 15.601V8.408l6.264 3.602z"/>

</svg>

