<svg width="40px" height="40px" viewBox="0 0 40 40" version="1.1" xmlns="http://www.w3.org/2000/svg" xmlns:xlink="http://www.w3.org/1999/xlink">
  <g id="overview" transform="translate(8.000000, 8.000000)">
      <path d="M12.4,11 L16.0001925,11 C16.5523709,11 16.7425645,11.367765 16.4271606,11.818342 L11.1480692,19.3599011 C10.5140081,20.2657027 10.1774867,20.1125667 10.390368,19.0481602 L11.6,13 L7.99980749,13 C7.44762906,13 7.25743549,12.632235 7.57283938,12.181658 L12.8519308,4.64009886 C13.4859919,3.73429727 13.8225133,3.88743329 13.609632,4.95183977 L12.4,11 Z" class="svg-dark"></path>
      <path d="M16.2,0 L18.9980273,0 C21.7605405,0 24,2.23630996 24,5.00197269 L24,18.9980273 C24,21.7605405 21.76369,24 18.9980273,24 L9.8,24 L11.9,21 L18.0074602,21 C19.6470745,21 21,19.6601943 21,18.0074602 L21,5.99253976 C21,4.35292554 19.6601943,3 18.0074602,3 L15.6,3 L16.2,-4.4408921e-16 Z M14.2,-4.4408921e-16 L12.1,3 L5.99253976,3 C4.35292554,3 3,4.33980569 3,5.99253976 L3,18.0074602 C3,19.6470745 4.33980569,21 5.99253976,21 L8.4,21 L7.8,24 L5.00197269,24 C2.23945945,24 0,21.76369 0,18.9980273 L0,5.00197269 C0,2.23945945 2.23630996,0 5.00197269,0 L14.2,0 Z" class="svg-light" opacity="0.7"></path>
  </g>
  <g id="preview" transform="translate(7.000000, 9.000000)">
      <path d="M14.4029351,9.25294118 C13.5721541,9.65930884 13,10.5128375 13,11.5 C13,12.8807119 14.1192881,14 15.5,14 C16.0475477,14 16.5539821,13.8239728 16.9658005,13.5254211 C16.7085264,15.4862544 15.0310403,17 13,17 C10.790861,17 9,15.209139 9,13 C9,10.790861 10.790861,9 13,9 C13.4936344,9 13.9663841,9.08941836 14.4029351,9.25294118 Z M12,1.0093689 C12,0.451909848 12.4438648,0 13,0 C13.5522847,0 14,0.443353176 14,1.0093689 L14,2.9906311 C14,3.54809015 13.5561352,4 13,4 C12.4477153,4 12,3.55664682 12,2.9906311 L12,1.0093689 Z M20.9933752,2.59241125 C21.3875583,2.19822817 22.0209666,2.19253948 22.4142136,2.58578644 C22.8047379,2.97631073 22.8078223,3.60639126 22.4075888,4.00662481 L21.0066248,5.40758875 C20.6124417,5.80177183 19.9790334,5.80746052 19.5857864,5.41421356 C19.1952621,5.02368927 19.1921777,4.39360874 19.5924112,3.99337519 L20.9933752,2.59241125 Z M5.00662481,2.59241125 L6.40758875,3.99337519 C6.80782231,4.39360874 6.80473785,5.02368927 6.41421356,5.41421356 C6.02096661,5.80746052 5.38755826,5.80177183 4.99337519,5.40758875 L3.59241125,4.00662481 C3.19217769,3.60639126 3.19526215,2.97631073 3.58578644,2.58578644 C3.97903339,2.19253948 4.61244174,2.19822817 5.00662481,2.59241125 Z" class="svg-dark"></path>
      <path d="M13,21 C5.90909116,21 1.27985359,14.5235692 1.27985359,14.5235692 C0.556551344,13.6959528 0.573009935,12.3178748 1.27985351,11.4764308 C1.27985351,11.4764308 5.90909063,5 13.0000003,5 C20.0909099,5 24.7201466,11.4764308 24.7201466,11.4764308 C25.4434487,12.3040472 25.42699,13.6821252 24.7201464,14.5235692 C24.7201464,14.5235692 20.0909088,21 13,21 Z M13,19 C16.3137085,19 19,16.3137085 19,13 C19,9.6862915 16.3137085,7 13,7 C9.6862915,7 7,9.6862915 7,13 C7,16.3137085 9.6862915,19 13,19 Z" class="svg-light" opacity="0.7"></path>
  </g>
  <g id="analytics" transform="translate(8.000000, 9.000000)">
      <path d="M20.2928932,2.29289322 L18.7118404,0.711840391 C18.3187018,0.318701799 18.4509752,0 18.990778,0 L23.5089948,0 C23.7801695,0 24,0.227880478 24,0.491005182 L24,5.00922203 C24,5.55641359 23.6774139,5.67741394 23.2881596,5.28815961 L21.7071068,3.70710678 L14.7071068,10.7071068 C14.3165825,11.0976311 13.6834175,11.0976311 13.2928932,10.7071068 L9.29289322,6.70710678 L10.7071068,6.70710678 L1.70710678,15.7071068 C1.31658249,16.0976311 0.683417511,16.0976311 0.292893219,15.7071068 C-0.0976310729,15.3165825 -0.0976310729,14.6834175 0.292893219,14.2928932 L9.29289322,5.29289322 C9.68341751,4.90236893 10.3165825,4.90236893 10.7071068,5.29289322 L14.7071068,9.29289322 L13.2928932,9.29289322 L20.2928932,2.29289322 Z" class="svg-dark" fill-rule="nonzero"></path>
      <path d="M6,14 L6,20.9931545 C6,21.5492199 5.55733967,22 5.00104344,22 L3.99895656,22 C3.44724809,22 3,21.5500512 3,20.9931545 L3,17 L6,14 Z M11,11 L11,21.0052288 C11,21.5546258 10.5573397,22 10.0010434,22 L8.99895656,22 C8.44724809,22 8,21.5490746 8,21.0052288 L8,12 L10,10 L11,11 Z M16,12 L16,20.9931545 C16,21.5492199 15.5573397,22 15.0010434,22 L13.9989566,22 C13.4472481,22 13,21.5500512 13,20.9931545 L13,12.9060109 C13.7623449,13.3493009 14.7541844,13.2458156 15.4118241,12.5881759 L16,12 Z M21,7 L21,21.0052288 C21,21.5546258 20.5573397,22 20.0010434,22 L18.9989566,22 C18.4472481,22 18,21.5490746 18,21.0052288 L18,10 L21,7 Z" class="svg-light" opacity="0.7"></path>
  </g>
  <g id="insights" transform="translate(11.000000, 7.000000)">
      <path d="M9.88888602,19 L12.5124968,11.7916885 C12.6043113,11.5394303 12.4719096,11.260617 12.2171511,11.1678926 C11.9698432,11.0778798 11.6815784,11.2041149 11.5899349,11.4559034 L9.08933452,18.3262464 L6.58906073,11.4568006 C6.49726851,11.2046035 6.21654948,11.0762098 5.96167548,11.1689764 C5.71425544,11.2590299 5.57445902,11.5410105 5.66608033,11.792738 L8.28930917,19 L4.99539757,19 C4.44565467,19 4,18.5566468 4,17.9906311 L4,16.484451 C1.58802851,14.8699283 0,12.1204161 0,9 C0,4.02943725 4.02943725,0 9,0 C13.9705627,0 18,4.02943725 18,9 C18,12.1204161 16.4119715,14.8699283 14,16.484451 L14,17.9906311 C14,18.5480902 13.5443356,19 13.0046024,19 L9.88888602,19 Z" class="svg-light" opacity="0.7"></path>
      <path d="M13,24 C13,25.1045695 11.209139,26 9,26 C6.790861,26 5,25.1045695 5,24 L5,21 L13,21 L13,24 Z" class="svg-dark"></path>
  </g>
  <g id="result-rankings" transform="translate(9.000000, 9.000000)">
      <path d="M13,6.01291026 L13,16.9977541 C13,17.527892 13.4026252,17.9612999 13.9214033,18 L20.9975383,18 C21.5511826,18 22,18.4433532 22,19.0093689 L22,20.9906311 C22,21.5480902 21.5605417,22 20.9975383,22 L1.00246167,22 C0.448817378,22 0,21.5566468 0,20.9906311 L0,19.0093689 C0,18.4519098 0.43945834,18 1.00246167,18 L8.00000002,18 C8.55228477,18 9.00000002,17.5510798 9.00000002,16.992516 L9.00000002,6.02160706 L6.04445674,6.02803301 C5.50410251,6.02920784 5.36931489,5.71168985 5.75871722,5.31880341 L10.6426572,0.391165273 C10.8376596,0.194418118 11.1544141,0.193240339 11.3490631,0.389629406 L16.2120368,5.2960758 C16.5959367,5.68340752 16.4704824,6.00536474 15.9232705,6.00655449 L13,6.01291026 Z" class="svg-dark"></path>
      <path d="M7,13 L7,16 L1.99180311,16 C1.44404538,16 1,15.5573397 1,15.0010434 L1,13.9989566 C1,13.4472481 1.45530558,13 1.99180311,13 L7,13 Z M15,13 L20.0081969,13 C20.5559546,13 21,13.4426603 21,13.9989566 L21,15.0010434 C21,15.5527519 20.5446944,16 20.0081969,16 L15,16 L15,13 Z M7,11 L1.99180311,11 C1.44404538,11 1,10.5573397 1,10.0010434 L1,8.99895656 C1,8.44724809 1.45530558,8 1.99180311,8 L7,8 L7,11 Z M15,8 L20.0081969,8 C20.5559546,8 21,8.44266033 21,8.99895656 L21,10.0010434 C21,10.5527519 20.5446944,11 20.0081969,11 L15,11 L15,8 Z" class="svg-light" opacity="0.7"></path>
  </g>
  <g id="weights" transform="translate(9.000000, 9.000000)">
      <path d="M10,1.50167562 C10,0.672323076 10.6657972,0 11.5,0 C12.3284271,0 13,0.671189427 13,1.50167562 L13,5.49832438 C13,6.32767692 12.3342028,7 11.5,7 C10.6715729,7 10,6.32881057 10,5.49832438 L10,1.50167562 Z M4,8.50167562 C4,7.67232308 4.66579723,7 5.5,7 C6.32842712,7 7,7.67118943 7,8.50167562 L7,12.4983244 C7,13.3276769 6.33420277,14 5.5,14 C4.67157288,14 4,13.3288106 4,12.4983244 L4,8.50167562 Z M15,15.5016756 C15,14.6723231 15.6657972,14 16.5,14 C17.3284271,14 18,14.6711894 18,15.5016756 L18,19.4983244 C18,20.3276769 17.3342028,21 16.5,21 C15.6715729,21 15,20.3288106 15,19.4983244 L15,15.5016756 Z" class="svg-dark"></path>
      <path d="M13,16 L13,19 L1.49485322,19 C0.669268585,19 0,18.3342028 0,17.5 C0,16.6715729 0.67042869,16 1.49485322,16 L13,16 Z M20,16 L20.5051468,16 C21.3307314,16 22,16.6657972 22,17.5 C22,18.3284271 21.3295713,19 20.5051468,19 L20,19 L20,16 Z M2,9 L2,12 L1.49485322,12 C0.669268585,12 0,11.3342028 0,10.5 C0,9.67157288 0.67042869,9 1.49485322,9 L2,9 Z M9,9 L20.5051468,9 C21.3307314,9 22,9.66579723 22,10.5 C22,11.3284271 21.3295713,12 20.5051468,12 L9,12 L9,9 Z M8,2 L8,5 L1.49485322,5 C0.669268585,5 0,4.33420277 0,3.5 C0,2.67157288 0.67042869,2 1.49485322,2 L8,2 Z M15,2 L20.5051468,2 C21.3307314,2 22,2.66579723 22,3.5 C22,4.32842712 21.3295713,5 20.5051468,5 L15,5 L15,2 Z" class="svg-light" opacity="0.7"></path>
  </g>
  <g id="synonyms" transform="translate(8.000000, 8.000000)">
      <path d="M7.9486833,10.3162278 C7.77403553,10.8401711 7.20771555,11.1233311 6.68377223,10.9486833 C6.15982892,10.7740355 5.87666893,10.2077156 6.0513167,9.68377223 C6.15910911,9.36039502 6.38875622,8.94703022 6.79289322,8.54289322 C7.44617281,7.88961363 8.35527128,7.5 9.5,7.5 C10.0434652,7.5 10.5549959,7.60951846 11.0595581,7.81601374 C11.5335903,8.01001443 11.8623053,8.20635312 12.5547002,8.66794971 C13.5216637,9.31259206 13.9277143,9.5 14.5,9.5 C15.1052713,9.5 15.5086728,9.32711363 15.7928932,9.04289322 C15.9512562,8.88453022 16.0341091,8.73539502 16.0513167,8.68377223 C16.2259645,8.15982892 16.7922844,7.87666893 17.3162278,8.0513167 C17.8401711,8.22596447 18.1233311,8.79228445 17.9486833,9.31622777 C17.8408909,9.63960498 17.6112438,10.0529698 17.2071068,10.4571068 C16.5538272,11.1103864 15.6447287,11.5 14.5,11.5 C13.4056191,11.5 12.7283363,11.1874079 11.4452998,10.3320503 C10.8638554,9.94442068 10.6112974,9.79356992 10.3020301,9.66700033 C10.0283842,9.55500902 9.77145218,9.5 9.5,9.5 C8.89472872,9.5 8.49132719,9.67288637 8.20710678,9.95710678 C8.04874378,10.1154698 7.96589089,10.264605 7.9486833,10.3162278 Z M7.9486833,15.3162278 C7.77403553,15.8401711 7.20771555,16.1233311 6.68377223,15.9486833 C6.15982892,15.7740355 5.87666893,15.2077156 6.0513167,14.6837722 C6.15910911,14.360395 6.38875622,13.9470302 6.79289322,13.5428932 C7.44617281,12.8896136 8.35527128,12.5 9.5,12.5 C10.0434652,12.5 10.5549959,12.6095185 11.0595581,12.8160137 C11.5335903,13.0100144 11.8623053,13.2063531 12.5547002,13.6679497 C13.5216637,14.3125921 13.9277143,14.5 14.5,14.5 C15.1052713,14.5 15.5086728,14.3271136 15.7928932,14.0428932 C15.9512562,13.8845302 16.0341091,13.735395 16.0513167,13.6837722 C16.2259645,13.1598289 16.7922844,12.8766689 17.3162278,13.0513167 C17.8401711,13.2259645 18.1233311,13.7922844 17.9486833,14.3162278 C17.8408909,14.639605 17.6112438,15.0529698 17.2071068,15.4571068 C16.5538272,16.1103864 15.6447287,16.5 14.5,16.5 C13.4056191,16.5 12.7283363,16.1874079 11.4452998,15.3320503 C10.8638554,14.9444207 10.6112974,14.7935699 10.3020301,14.6670003 C10.0283842,14.555009 9.77145218,14.5 9.5,14.5 C8.89472872,14.5 8.49132719,14.6728864 8.20710678,14.9571068 C8.04874378,15.1154698 7.96589089,15.264605 7.9486833,15.3162278 Z" class="svg-dark" fill-rule="nonzero"></path>
      <path d="M0,5.00197269 C0,2.23945945 2.23630996,0 5.00197269,0 L18.9980273,0 C21.7605405,0 24,2.23630996 24,5.00197269 L24,18.9980273 C24,21.7605405 21.76369,24 18.9980273,24 L5.00197269,24 C2.23945945,24 0,21.76369 0,18.9980273 L0,5.00197269 Z M3,5.99253976 L3,18.0074602 C3,19.6470745 4.33980569,21 5.99253976,21 L18.0074602,21 C19.6470745,21 21,19.6601943 21,18.0074602 L21,5.99253976 C21,4.35292554 19.6601943,3 18.0074602,3 L5.99253976,3 C4.35292554,3 3,4.33980569 3,5.99253976 Z" class="svg-light" opacity="0.7"></path>
  </g>
  <g id="content" transform="translate(8.000000, 8.000000)">
      <path d="M6,12 C6,11.4477153 6.45576096,11 7.00247329,11 L16.9975267,11 C17.5511774,11 18,11.4438648 18,12 C18,12.5522847 17.544239,13 16.9975267,13 L7.00247329,13 C6.44882258,13 6,12.5561352 6,12 Z M6,16 C6,15.4477153 6.45576096,15 7.00247329,15 L16.9975267,15 C17.5511774,15 18,15.4438648 18,16 C18,16.5522847 17.544239,17 16.9975267,17 L7.00247329,17 C6.44882258,17 6,16.5561352 6,16 Z M6,8 C6,7.44771525 6.45576096,7 7.00247329,7 L16.9975267,7 C17.5511774,7 18,7.44386482 18,8 C18,8.55228475 17.544239,9 16.9975267,9 L7.00247329,9 C6.44882258,9 6,8.55613518 6,8 Z" class="svg-dark"></path>
      <path d="M0,5.00197269 C0,2.23945945 2.23630996,0 5.00197269,0 L18.9980273,0 C21.7605405,0 24,2.23630996 24,5.00197269 L24,18.9980273 C24,21.7605405 21.76369,24 18.9980273,24 L5.00197269,24 C2.23945945,24 0,21.76369 0,18.9980273 L0,5.00197269 Z M3,5.99253976 L3,18.0074602 C3,19.6470745 4.33980569,21 5.99253976,21 L18.0074602,21 C19.6470745,21 21,19.6601943 21,18.0074602 L21,5.99253976 C21,4.35292554 19.6601943,3 18.0074602,3 L5.99253976,3 C4.35292554,3 3,4.33980569 3,5.99253976 Z" class="svg-light" opacity="0.7"></path>
  </g>
  <g id="domains" transform="translate(7.000000, 7.000000)">
      <circle class="svg-dark" cx="13" cy="13" r="2"></circle>
      <path d="M13,26 C5.82029825,26 0,20.1797017 0,13 C0,5.82029825 5.82029825,0 13,0 C20.1797017,0 26,5.82029825 26,13 C26,20.1797017 20.1797017,26 13,26 Z M13,23 C18.5228475,23 23,18.5228475 23,13 C23,7.4771525 18.5228475,3 13,3 C7.4771525,3 3,7.4771525 3,13 C3,18.5228475 7.4771525,23 13,23 Z M13,20 C9.13400675,20 6,16.8659932 6,13 C6,9.13400675 9.13400675,6 13,6 C16.8659932,6 20,9.13400675 20,13 C20,16.8659932 16.8659932,20 13,20 Z M13,18 C15.7614237,18 18,15.7614237 18,13 C18,10.2385763 15.7614237,8 13,8 C10.2385763,8 8,10.2385763 8,13 C8,15.7614237 10.2385763,18 13,18 Z" class="svg-light" opacity="0.7"></path>
  </g>
  <g id="team" transform="translate(8.000000, 8.000000)">
      <path d="M6.07351886,16.7231779 C4.34351315,17.6451531 2.32266235,18.3032074 2.32266235,18.3032074 C1.04226685,18.7940725 0,20.2389605 0,21.561702 L0,22.0326881 C0,22.5751199 0.448026248,23 1.00069463,23 L22.9993054,23 C23.5525308,23 24,22.5669197 24,22.0326881 L24,21.561702 C24,20.2344637 22.9601086,18.7800828 21.6773376,18.3032074 C21.6773376,18.3032074 19.6564868,17.6451531 17.9264811,16.7231779 L17.7682213,16.9051767 C17.4925128,17.2222415 16.9936857,17.6524798 16.2644958,18.0717641 C15.0731882,18.7567659 13.6474464,19.1666667 12,19.1666667 C10.3525536,19.1666667 8.92681182,18.7567659 7.73550424,18.0717641 C7.00631427,17.6524798 6.50748721,17.2222415 6.23177872,16.9051767 L6.07351886,16.7231779 L6.07351886,16.7231779 Z" class="svg-dark"></path>
      <path d="M7.73057818,15.6348671 C8.19929609,15.225375 8.5,14.7978784 8.5,14.375 C8.5,12.4583333 6,10.0625 6,8.625 C6,7.66666667 7,7.66666667 7,7.66666667 C7,7.66666667 7,5.85673222 7.88300366,4.26777175 C6.80173613,4.52150616 6,4.79166667 6,4.79166667 C6,4.79166667 6.5,3.35416667 8,2.39583333 C9.5,1.4375 11.5936225,0.958333333 12,0.958333333 C13,0.958333333 14.1709003,0 14.1709003,0 L14.5,1.91666667 C14.5,1.91666667 15.5,1.4375 16,1.4375 C15.981143,1.66067157 17,2.875 16,3.83333333 C15.9688322,3.86320245 15.9371207,3.89126074 15.9048624,3.91759046 C17,5.57736914 17,7.66666667 17,7.66666667 C17,7.66666667 18,7.66666667 18,8.625 C18,10.0625 15.5,12.4583333 15.5,14.375 C15.5,14.7978784 15.8007039,15.225375 16.2694218,15.6348671 L16.2317787,15.6781566 C16.0908205,15.8402585 15.7563143,16.1287702 15.2355042,16.4282359 C14.3434785,16.9411508 13.2692202,17.25 12,17.25 C10.7307798,17.25 9.65652151,16.9411508 8.76449576,16.4282359 C8.24368573,16.1287702 7.90917946,15.8402585 7.76822128,15.6781566 L7.73057818,15.6348671 L7.73057818,15.6348671 Z" class="svg-light" opacity="0.7"></path>
  </g>
  <g id="install" transform="translate(9.000000, 8.000000)">
      <path d="M0,18.9979131 C0,17.8944962 0.889673948,17 1.991155,17 L20.008845,17 C21.1085295,17 22,17.8982606 22,18.9979131 L22,21.0020869 C22,22.1055038 21.1103261,23 20.008845,23 L1.991155,23 C0.891470458,23 0,22.1017394 0,21.0020869 L0,18.9979131 Z M3,21 C3.55228475,21 4,20.5522847 4,20 C4,19.4477153 3.55228475,19 3,19 C2.44771525,19 2,19.4477153 2,20 C2,20.5522847 2.44771525,21 3,21 Z M7,21 C7.55228475,21 8,20.5522847 8,20 C8,19.4477153 7.55228475,19 7,19 C6.44771525,19 6,19.4477153 6,20 C6,20.5522847 6.44771525,21 7,21 Z" class="svg-dark"></path>
      <path d="M0.00491802328,15.7577731 C0.0247023773,15.2107059 0.101991425,14.4900428 0.196838372,14.0158081 L2.60780239,1.96098804 C2.82440715,0.877964253 3.89451376,0 4.99406028,0 L17.0059397,0 C18.1072288,0 19.1742597,0.871298835 19.3921975,1.96098804 L21.8031608,14.0158081 C21.8968373,14.4841909 21.9752302,15.2053594 21.9951214,15.7580326 C21.4668894,15.286727 20.7712008,15 20.0089096,15 L1.99109042,15 C1.2295204,15 0.533523301,15.2863737 0.00491802325,15.7577731 Z M9.00000014,3.99791312 L9,8 L6.99895653,8 C6.44266029,8 6.31604968,8.31598541 6.70591678,8.70577316 L10.6413569,12.6404123 C10.8458633,12.8448771 11.1619779,12.8390071 11.3605322,12.6404123 L15.2943703,8.70577316 C15.687291,8.31277239 15.5527517,8 15.0010433,8 L13,8 L13.0000001,3.99791312 C13.0000002,2.89826062 12.1045697,2 11.0000002,2 C9.88772986,2 9.00000018,2.89449617 9.00000014,3.99791312 Z" class="svg-light" opacity="0.7"></path>
  </g>
  <g id="customize" transform="translate(8.000000, 8.000000)">
      <path d="M6,9.9947834 C6,7.78852545 7.79171562,6 9.9947834,6 L20.0052166,6 C22.2114745,6 24,7.79171562 24,9.9947834 L24,20.0052166 C24,22.2114745 22.2082844,24 20.0052166,24 L9.9947834,24 C7.78852545,24 6,22.2082844 6,20.0052166 L6,9.9947834 Z M9,11.0085302 L9,18.9914698 C9,20.0980496 9.8992496,21 11.0085302,21 L18.9914698,21 C20.0980496,21 21,20.1007504 21,18.9914698 L21,11.0085302 C21,9.90195036 20.1007504,9 18.9914698,9 L11.0085302,9 C9.90195036,9 9,9.8992496 9,11.0085302 Z" class="svg-dark"></path>
      <path d="M14,1 C14,0.44771525 14.4433532,0 15.0093689,0 L16,0 C17.1045695,0 18,0.887729645 18,2 L18,2.9906311 C18,3.54809015 17.54658,4 16.9996142,4 L17.0454297,4 C16.4929319,4 16.0450439,3.55613518 16.0450439,3 L16.0450439,2.50468445 C16.0450439,2.22595492 15.8261884,2 15.5499959,2 L14.9985586,2 C14.4470699,2 14,1.55613518 14,1 Z M4,1 C4,1.55613518 3.5529301,2 3.00144144,2 L2.45000415,2 C2.17381158,2 1.95495605,2.22595492 1.95495605,2.50468445 L1.95495605,3 C1.95495605,3.55613518 1.50706807,4 0.95457025,4 L1.0003858,4 C0.453419983,4 0,3.54809015 0,2.9906311 L0,2 C0,0.887729645 0.8954305,0 2,0 L2.9906311,0 C3.55664682,0 4,0.44771525 4,1 Z M4,17 C4,17.5522847 3.55664682,18 2.9906311,18 L2,18 C0.8954305,18 0,17.1122704 0,16 L0,15.0093689 C0,14.4519098 0.453419983,14 1.0003858,14 L0.95457025,14 C1.50706807,14 1.95495605,14.4438648 1.95495605,15 L1.95495605,15.4953156 C1.95495605,15.7740451 2.17381158,16 2.45000415,16 L3.00144144,16 C3.5529301,16 4,16.4438648 4,17 Z M6,1 C6,0.44771525 6.45097518,0 6.99077797,0 L11.009222,0 C11.5564136,0 12,0.443864822 12,1 C12,1.55228475 11.5490248,2 11.009222,2 L6.99077797,2 C6.44358641,2 6,1.55613518 6,1 Z M0,6.99077797 C0,6.44358641 0.443864822,6 1,6 C1.55228475,6 2,6.45097518 2,6.99077797 L2,11.009222 C2,11.5564136 1.55613518,12 1,12 C0.44771525,12 0,11.5490248 0,11.009222 L0,6.99077797 Z" class="svg-light" opacity="0.7"></path>
  </g>
  <g id="engage" transform="translate(9.000000, 9.000000)">
      <path d="M0,19.0093689 C0,18.4519098 0.437881351,18 1.00292933,18 L5.99707067,18 C6.55097324,18 7,18.4433532 7,19.0093689 L7,20.9906311 C7,21.5480902 6.56211865,22 5.99707067,22 L1.00292933,22 C0.449026756,22 0,21.5566468 0,20.9906311 L0,19.0093689 Z M15,19.0093689 C15,18.4519098 15.4378814,18 16.0029293,18 L20.9970707,18 C21.5509732,18 22,18.4433532 22,19.0093689 L22,20.9906311 C22,21.5480902 21.5621186,22 20.9970707,22 L16.0029293,22 C15.4490268,22 15,21.5566468 15,20.9906311 L15,19.0093689 Z" class="svg-dark"></path>
      <path d="M21.955157,10 L22,10 L22,15.009222 C22,15.5564136 21.5621186,16 20.9970707,16 L16.0029293,16 C15.4490268,16 15,15.5490248 15,15.009222 L15,10.9999998 C15,8.790861 13.209139,7 11,7 C8.790861,7 7,8.790861 7,11 L7,15.009222 C7,15.5564136 6.56211865,16 5.99707067,16 L1.00292933,16 C0.449026756,16 0,15.5490248 0,15.009222 L0,10 L0.0448430155,10 C0.550071794,4.39349999 5.26195744,0 11,0 C16.7380426,0 21.4499282,4.39349999 21.955157,10 Z" class="svg-light" opacity="0.7"></path>
  </g>
  <g id="conversions" transform="translate(8.000000, 7.000000)">
      <path d="M3.52954328,3.28867155 L11.0428058,23.9311907 C11.2323216,24.451881 10.968858,25.0257946 10.4462619,25.2160041 C9.92728396,25.4048966 9.35222284,25.133961 9.16342056,24.615231 L1.64891106,3.9692858 C0.711757353,3.8033377 0,2.98478877 0,2 C0,0.8954305 0.8954305,0 2,0 C3.1045695,0 4,0.8954305 4,2 C4,2.49096538 3.82309198,2.94061168 3.52954328,3.28867155 Z" class="svg-dark"></path>
      <path d="M5.99528615,4.06591256 C7.00432405,3.54493673 8.43404493,3 10,3 C13,3 15,5 18,5 C21,5 24,4 24,4 C24,4 24,12 16.5,12 C14.3188051,12 11.7492339,13.941882 10.122482,15.4052901 L5.99528615,4.06591256 Z" class="svg-light" opacity="0.7"></path>
  </g>
</svg>
