<svg xmlns="http://www.w3.org/2000/svg" viewBox="0 0 716 960"><filter id="b"><feGaussianBlur stdDeviation="12" /></filter><path fill="#f8ee8e" d="M0 0h716v960H0z"/><g filter="url(#b)" transform="matrix(3.75 0 0 3.75 1.9 1.9)" fill-opacity=".5"><ellipse fill="#e5d581" rx="1" ry="1" transform="rotate(143.5 18.6 113.8) scale(28.05955 35.87274)"/><path fill="#d0c073" d="M110.8 85.6l36.4 18L44 102.1l35.2-12.4z"/><path fill="#fff" d="M0 255h191v1H0z"/><path fill="#a6925a" d="M136.7 115.8l-2.4 12.3 12-24.8-11.4 1z"/><path fill="#b09d5f" d="M68.7 190.1l34.9-3.5-28 8.7 14.4 30z"/><ellipse fill="#927d4c" cx="117" cy="186" rx="19" ry="2"/><path fill="#d6c673" d="M25.4 132.6l78.4 103.7-71.3-75.6 5.6 14z"/><ellipse fill="#fefa9a" rx="1" ry="1" transform="rotate(93.6 39 148.7) scale(133.58499 29.59194)"/></g></svg>