<svg width="40px" height="40px" viewBox="0 0 40 40" version="1.1" xmlns="http://www.w3.org/2000/svg" xmlns:xlink="http://www.w3.org/1999/xlink">
  <path d="M18.0745185,14.7237055 C16.2217556,14.7232255 14.7193856,16.2270355 14.7193856,18.0817184 C14.7193856,19.9359213 16.2217556,21.4397312 18.0745185,21.4397312 C19.9277614,21.4397312 21.4296514,19.9359213 21.4296514,18.0817184 C21.4296514,16.2270355 19.9277614,14.7237055 18.0745185,14.7237055 L18.0745185,14.7237055 Z M20.00024,31.99952 C13.3725325,31.99952 8,26.6269875 8,19.99976 C8,13.3725325 13.3725325,8 20.00024,8 C26.6274675,8 32,13.3725325 32,19.99976 C32,26.6269875 26.6274675,31.99952 20.00024,31.99952 L20.00024,31.99952 Z M20.00024,8.99070019 C13.9202016,8.99070019 8.99118018,13.9197216 8.99118018,19.99976 C8.99118018,26.0797984 13.9202016,31.0088198 20.00024,31.0088198 C26.0802784,31.0088198 31.0088198,26.0797984 31.0088198,19.99976 C31.0088198,13.9197216 26.0802784,8.99070019 20.00024,8.99070019 L20.00024,8.99070019 Z M18.0730785,22.4054719 C15.6870463,22.4054719 13.7531649,20.4696706 13.7531649,18.0817184 C13.7531649,15.6937661 15.6870463,13.7579648 18.0730785,13.7579648 C20.4586308,13.7579648 22.3929921,15.6937661 22.3929921,18.0817184 C22.3929921,20.4696706 20.4586308,22.4054719 18.0730785,22.4054719 L18.0730785,22.4054719 Z M25.8369233,25.2599748 L25.2268555,25.8705226 C25.100618,25.9967601 24.8956621,25.9967601 24.7694246,25.8705226 L22.3973121,23.4964901 C22.2797144,23.3784124 22.2763545,23.1940961 22.3785924,23.0668987 L21.1651767,21.852043 C21.4037319,21.6552469 21.6226075,21.4358913 21.8198836,21.1973361 L23.0328193,22.4112318 C23.1600168,22.3065939 23.3457731,22.3094738 23.4648107,22.4285114 L25.8369233,24.8025439 C25.9631607,24.9287814 25.9631607,25.1337373 25.8369233,25.2599748 L25.8369233,25.2599748 Z" id="overview"></path>
  <path d="M11.963797,20.1159368 C9.42014653,22.5281934 8.07588619,24.8427469 8.7617333,26.030586 C9.44758041,27.2184251 12.1240687,27.2116869 15.4849602,26.2154038 C15.2255415,25.0636619 15.0253223,23.8132543 14.9064421,22.4829516 C13.8138997,21.7152841 12.8310928,20.9163324 11.963797,20.1159368 L11.963797,20.1159368 Z M12.5918886,19.5436756 C13.2709976,20.1457772 14.0203758,20.7488413 14.8275095,21.3374666 C14.795744,20.7488413 14.7740857,20.1525153 14.7740857,19.5422317 C14.7740857,18.9348359 14.7904497,18.3365847 14.821734,17.7508472 C14.0155628,18.3394724 13.2705163,18.9410927 12.5918886,19.5436756 L12.5918886,19.5436756 Z M11.9613906,18.9646762 C12.8301302,18.1628367 13.8201566,17.363885 14.9151055,16.5952549 C15.0349482,15.2726529 15.2221724,14.0145446 15.4806285,12.868097 C12.1221435,11.8727765 9.44758041,11.8665196 8.7617333,13.0538774 C8.07636749,14.2417164 9.41870264,16.5538635 11.9613906,18.9646762 L11.9613906,18.9646762 Z M23.5192379,12.2919855 C22.7024783,8.88440824 21.3712129,6.56552306 20,6.56552306 C18.6287871,6.56552306 17.2970404,8.88488953 16.4797995,12.2915042 C17.6021822,12.6409252 18.7852083,13.1073013 19.9903741,13.6651236 C21.2037218,13.1015257 22.390117,12.6433317 23.5192379,12.2919855 L23.5192379,12.2919855 Z M22.6129572,15.0161221 C23.1414204,15.3212639 23.6467814,15.6384381 24.1410727,15.9604252 C24.0351875,14.9670298 23.8869483,14.0164698 23.7050183,13.1275157 C22.8444607,13.4138869 21.9506936,13.7580137 21.0376746,14.1623026 C21.5608436,14.4279781 22.0869004,14.7124241 22.6129572,15.0161221 L22.6129572,15.0161221 Z M17.3870428,24.0683413 C16.8585796,23.7631995 16.3532186,23.4460253 15.8589273,23.1245194 C15.9652938,24.1174335 16.1130517,25.0679936 16.2949817,25.9569477 C17.1555393,25.6705764 18.0493064,25.3264496 18.9623254,24.9221608 C18.4391564,24.6569666 17.9130996,24.3720392 17.3870428,24.0683413 L17.3870428,24.0683413 Z M18.9632879,14.1675968 C18.0526755,13.7657145 17.1560206,13.4138869 16.2969069,13.127997 C16.1149769,14.0155072 15.9705881,14.9675111 15.8637403,15.9570562 C16.3565876,15.6365129 16.8600235,15.3203013 17.3870428,15.0161221 C17.9135809,14.7119428 18.4391564,14.4337536 18.9632879,14.1675968 L18.9632879,14.1675968 Z M16.4807621,26.7929592 C17.2975217,30.2000552 18.6287871,32.5189403 20,32.5189403 C21.3712129,32.5189403 22.7029596,30.1995739 23.5206818,26.7929592 C22.3978178,26.4440195 21.2147917,25.9771621 20.0096259,25.4193398 C18.7962782,25.983419 17.609883,26.4411317 16.4807621,26.7929592 L16.4807621,26.7929592 Z M27.4081114,19.5407878 C26.7290024,18.9386862 25.9796242,18.3356221 25.1729718,17.7469968 C25.204256,18.3361034 25.2263956,18.9319481 25.2263956,19.5422317 C25.2263956,20.1501088 25.2100316,20.7478787 25.178266,21.3336162 C25.9849185,20.7449909 26.7294837,20.1433707 27.4081114,19.5407878 L27.4081114,19.5407878 Z M24.5150398,12.8690596 C24.7744585,14.0208015 24.975159,15.2712091 25.0935579,16.6015118 C26.1861003,17.3696606 27.1689072,18.168131 28.0366843,18.9685266 C30.5798535,16.55627 31.9241138,14.2417164 31.2382667,13.0538774 C30.5524196,11.8660383 27.8759313,11.8727765 24.5150398,12.8690596 L24.5150398,12.8690596 Z M31.727745,26.3135882 C30.8556362,27.8238957 27.9625646,28.0221898 24.3230026,27.0302383 C23.3628167,30.6779823 21.7442175,33.0844634 20,33.0844634 C18.2567451,33.0844634 16.6424776,30.6746132 15.6827729,27.0283131 C12.0408044,28.0221898 9.14484509,27.8248583 8.27225505,26.3135882 C7.39966501,24.8018368 8.67654387,22.1951364 11.3583264,19.5379 C8.68039424,16.8840327 7.4006276,14.2811827 8.27225505,12.7713565 C9.1443638,11.2605677 12.0374354,11.0622736 15.6769974,12.0542251 C16.6371833,8.40648109 18.2557825,6 20,6 C21.7437362,6 23.3575224,8.40985016 24.3172271,12.0561503 C27.9591956,11.0622736 30.8551549,11.2596051 31.727745,12.7713565 C32.600335,14.2826266 31.3234561,16.8893269 28.6416736,19.5465634 C31.3196058,22.200912 32.5998537,24.803762 31.727745,26.3135882 L31.727745,26.3135882 Z M28.0386094,20.1197872 C27.1698698,20.9216267 26.1798434,21.7205784 25.0848945,22.4892084 C24.9655331,23.8118104 24.7778276,25.0699188 24.5193715,26.2163664 C27.8778565,27.2116869 30.5529009,27.2179438 31.2382667,26.030586 C31.9236325,24.8432282 30.5812974,22.5305999 28.0386094,20.1197872 L28.0386094,20.1197872 Z M21.0367121,24.9168666 C21.9473245,25.3192302 22.8439794,25.6705764 23.7030931,25.9564664 C23.8855044,25.0694375 24.0294119,24.1169522 24.1362597,23.1274072 C23.6438937,23.4479505 23.1399765,23.7641621 22.6129572,24.0683413 C22.0864191,24.3725205 21.5608436,24.6507098 21.0367121,24.9168666 L21.0367121,24.9168666 Z M22.1667956,15.7890838 C21.4410009,15.3703561 20.713281,14.9978328 19.9889302,14.6474492 C19.2722801,14.9954263 18.5508171,15.375169 17.8332044,15.7890838 C17.1155918,16.2034798 16.4263756,16.6385716 15.7665185,17.0852145 C15.7078003,17.8875353 15.6664089,18.704295 15.6664089,19.5422317 C15.6664089,20.3748742 15.6986557,21.1940403 15.7564112,21.9925107 C16.4191561,22.4415601 17.1122227,22.8790584 17.8332044,23.2953796 C18.5589991,23.7141073 19.286719,24.0871119 20.0110698,24.4370142 C20.7277199,24.0890371 21.4491829,23.7097756 22.1667956,23.2953796 C22.8844082,22.8809836 23.5736244,22.4458918 24.2334815,21.9992489 C24.292681,21.1969281 24.3335911,20.3801684 24.3335911,19.5422317 C24.3335911,18.7095892 24.3013443,17.8909044 24.2435888,17.0924339 C23.5808439,16.6429033 22.8877773,16.205405 22.1667956,15.7890838 L22.1667956,15.7890838 Z M20,20.8470257 C19.2794996,20.8470257 18.695206,20.2627321 18.695206,19.5422317 C18.695206,18.8217313 19.2794996,18.2374376 20,18.2374376 C20.7205004,18.2374376 21.304794,18.8217313 21.304794,19.5422317 C21.304794,20.2627321 20.7205004,20.8470257 20,20.8470257 L20,20.8470257 Z" id="analytics"></path>
  <path d="M26.0109543,26.6755512 L28.438023,24.2484824 C28.5221524,24.1643261 28.6026765,24.0837767 28.6798371,24.0064873 L11.3201628,24.0064873 C11.3973234,24.0837766 11.4778476,24.1643261 11.561977,24.2484824 L13.9893034,26.6755512 L26.0109543,26.6755512 Z M25.1212663,27.5652391 L14.8790858,27.5652391 L15.7519624,28.438023 C17.1412102,29.8277156 17.5473527,30.2338582 18.5317924,30.7449839 C19.6452369,31.2645617 20.3547631,31.2645617 21.4682076,30.7449839 C22.4526473,30.2338582 22.8587898,29.8277156 24.2484824,28.438023 L25.1212663,27.5652391 Z M29.5511716,23.1167993 C30.1136456,22.5184728 30.4061956,22.120154 30.7449839,21.4682076 C30.9202248,21.0923481 31.0363106,20.7625658 31.0932412,20.4477355 L22.2164351,20.4477355 L22.2164351,19.5580475 L31.0942272,19.5580475 C31.037657,19.2415139 30.9212425,18.9099858 30.7449839,18.5317924 C30.4072641,17.881902 30.1154914,17.4840421 29.5564853,16.8889836 L22.2164351,16.8889836 L22.2164351,15.9992957 L28.6852437,15.9992957 C28.6064399,15.9203793 28.5241194,15.8380588 28.438023,15.7519624 L24.2484824,11.5624218 C22.8587898,10.1727292 22.4526473,9.76658666 21.4682076,9.25501608 C20.3547631,8.73588315 19.6452369,8.73588315 18.5317924,9.25501608 C17.5473527,9.76658666 17.1412102,10.1727292 15.7519624,11.5624218 L11.561977,15.7519624 C11.4758806,15.8380588 11.3935601,15.9203793 11.3147563,15.9992957 L17.7679953,15.9992957 L17.7679953,16.8889836 L10.4435147,16.8889836 C9.88450863,17.4840421 9.5927359,17.881902 9.25501608,18.5317924 C9.07876068,18.9099788 8.96234731,19.2415018 8.90577596,19.5580475 L17.7679953,19.5580475 L17.7679953,20.4477355 L8.90673538,20.4477355 C8.96365762,20.7626707 9.07975119,21.0925913 9.25501608,21.4686524 C9.59380112,22.1202981 9.88634877,22.518516 10.4488123,23.1167993 L29.5511716,23.1167993 Z M31.6106503,18.2430887 C32.1297832,19.356978 32.1297832,20.6434668 31.6106503,21.7569113 C31.0990797,22.741351 30.4046783,23.4361973 29.0149857,24.8254451 L24.8254451,29.0154305 C23.4357525,30.4046783 22.741351,31.0995246 21.7569113,31.6106503 C20.643022,32.1302281 19.356978,32.1302281 18.2430887,31.6106503 C17.258649,31.0995246 16.5642475,30.4046783 15.1745549,29.0154305 L10.9850143,24.8254451 C9.59576657,23.4361973 8.90092027,22.741351 8.38934969,21.7569113 C7.87021677,20.6434668 7.87021677,19.356978 8.38934969,18.2430887 C8.90092027,17.2590938 9.59576657,16.5642475 10.9850143,15.1749998 L15.1745549,10.9850143 C16.5642475,9.59576657 17.258649,8.90092027 18.2430887,8.38934969 C19.356978,7.87021677 20.643022,7.87021677 21.7569113,8.38934969 C22.741351,8.90092027 23.4357525,9.59576657 24.8254451,10.9850143 L29.0149857,15.1749998 C30.4046783,16.5642475 31.0990797,17.2590938 31.6106503,18.2430887 Z M19.9850977,11.3146437 L22.1603848,13.4903756 L21.5740804,14.07668 L20.4370592,12.9396588 L20.4370592,21.3374234 L19.5473713,21.3374234 L19.5473713,12.9254238 L18.396115,14.07668 L17.8093658,13.4903756 L19.9850977,11.3146437 Z" id="result-rankings"></path>
  <path d="M14.5004583,18.788101 C13.8310141,18.788101 13.2885593,19.3305558 13.2885593,20 C13.2885593,20.6694442 13.8310141,21.211899 14.5004583,21.211899 C15.1699025,21.211899 15.7123573,20.6694442 15.7123573,20 C15.7123573,19.3305558 15.1699025,18.788101 14.5004583,18.788101 L14.5004583,18.788101 Z M20,15.2983918 C19.3360553,15.2983918 18.7981002,15.836347 18.7981002,16.5002916 C18.7981002,17.1642363 19.3360553,17.7021915 20,17.7021915 C20.6639447,17.7021915 21.2018998,17.1642363 21.2018998,16.5002916 C21.2018998,15.836347 20.6639447,15.2983918 20,15.2983918 L20,15.2983918 Z M25.4995417,20.7969336 C24.8350971,20.7969336 24.2966419,21.3353887 24.2966419,21.9998333 C24.2966419,22.664278 24.8350971,23.2027331 25.4995417,23.2027331 C26.1639863,23.2027331 26.7024415,22.664278 26.7024415,21.9998333 C26.7024415,21.3353887 26.1639863,20.7969336 25.4995417,20.7969336 L25.4995417,20.7969336 Z M32,23.6221982 C32,26.0329973 32,27.2383968 31.5900342,28.5362886 C31.0740772,29.9531706 29.9581702,31.0690776 28.5412882,31.5845346 C27.2433964,31.9950004 26.0379968,31.9950004 23.6271977,31.9950004 L20,31.9950004 L20,32 L16.3873011,31.9690026 C13.9825015,31.9690026 12.7801017,31.9690026 11.4862095,31.5595367 C10.0728273,31.0455795 8.95992001,29.9321723 8.44546288,28.5192901 C8.035997,27.2248979 8.035997,26.0224981 8.035997,23.6176985 L8.00499958,20 L8,20 L8,16.3778018 C8,13.9670027 8,12.7616032 8.41096575,11.4637114 C8.92692276,10.0468294 10.0448296,8.93092242 11.4632114,8.41546538 C12.7626031,8.00499958 13.9695025,8.00499958 16.3838013,8.00499958 L20.0154987,8.00499958 L20.0154987,8 L23.6331972,8.03099742 C26.0409966,8.03099742 27.2448963,8.03099742 28.5407883,8.44046329 C29.9556704,8.95492042 31.0700775,10.0678277 31.5855345,11.4807099 C31.9950004,12.7751021 31.9950004,13.9775019 31.9950004,16.3823015 L31.9950004,20 L32,20 L32,23.6221982 L32,23.6221982 Z M31.0185818,20 L31.0185818,16.3743021 C31.0185818,13.964503 31.0185818,13.2135655 30.607616,11.9161737 C30.091659,10.5002916 29.5227064,9.93183901 28.1048246,9.41638197 C26.8059328,9.00641613 26.0539955,9.00641613 23.6406966,9.00641613 L20.0154987,8.99091742 L20.0154987,8.98291809 L16.375802,8.98291809 C13.9565036,8.98291809 13.2025665,8.98291809 11.900175,9.39388384 C10.4787934,9.91084076 9.90834097,10.4802933 9.39088409,11.900175 C8.97891842,13.2010666 8.97891842,13.9540038 8.97891842,16.3703025 L9.0104158,20 L9.01141572,20 L9.01141572,23.6256979 C9.01141572,26.035497 9.01141572,26.7869344 9.42138155,28.0838263 C9.93733856,29.4997084 10.5052912,30.068161 11.9216732,30.583618 C13.2185651,30.9935839 13.9695025,30.9935839 16.3798017,30.9935839 L20,31.0090826 L20,31.0170819 L23.6351971,31.0170819 C26.0509958,31.0170819 26.804433,31.0170819 28.1048246,30.6061162 C29.5247063,30.0891592 30.0941588,29.5197067 30.6111157,28.099825 C31.0220815,26.7994334 31.0225815,26.0459962 31.0225815,23.6296975 L31.0220815,20 L31.0185818,20 L31.0185818,20 Z M15.0004166,21.9293392 L15.0004166,26.9994167 L14.0005,26.9994167 L14.0005,21.9293392 C13.1395717,21.7058578 12.5006249,20.9309224 12.5006249,20 C12.5006249,19.0690776 13.1395717,18.2941422 14.0005,18.0706608 L14.0005,13.0005833 L15.0004166,13.0005833 L15.0004166,18.0706608 C15.8613449,18.2941422 16.5002916,19.0690776 16.5002916,20 C16.5002916,20.9309224 15.8613449,21.7058578 15.0004166,21.9293392 L15.0004166,21.9293392 Z M20.4999583,18.4296309 L20.4999583,26.9994167 L19.5000417,26.9994167 L19.5000417,18.4296309 C18.6391134,18.2061495 18.0001667,17.4312141 18.0001667,16.5002916 C18.0001667,15.5693692 18.6391134,14.7944338 19.5000417,14.5709524 L19.5000417,13.0005833 L20.4999583,13.0005833 L20.4999583,14.5714524 C21.3608866,14.7944338 21.9998333,15.5693692 21.9998333,16.5002916 C21.9998333,17.4312141 21.3608866,18.2061495 20.4999583,18.4296309 L20.4999583,18.4296309 Z M25.9995,23.9291726 L25.9995,26.9994167 L24.9995834,26.9994167 L24.9995834,23.9291726 C24.1386551,23.7061912 23.4997084,22.9307558 23.4997084,21.9998333 C23.4997084,21.0689109 24.1386551,20.2939755 24.9995834,20.0704941 L24.9995834,13.0005833 L25.9995,13.0005833 L25.9995,20.0704941 C26.8604283,20.2939755 27.4993751,21.0689109 27.4993751,21.9998333 C27.4993751,22.9307558 26.8604283,23.7061912 25.9995,23.9291726 L25.9995,23.9291726 Z" id="weights"></path>
  <path d="M31.93116,21.8406724 C31.6608445,23.1980969 30.6488481,24.2384291 29.3836277,24.6369308 C29.722759,25.8810117 29.3660865,27.2672219 28.3325008,28.2216469 C27.2989152,29.1765217 25.8573826,29.4508852 24.5980093,29.0568812 C24.1234955,30.2654298 23.0026532,31.1946674 21.5953036,31.3867218 C20.1875042,31.5787762 18.8611143,30.9828228 18.0825517,29.9460887 C16.9734037,30.6625822 15.5111814,30.7844715 14.2612534,30.1412916 C13.0113254,29.4976619 12.2997795,28.2571792 12.2961813,26.9676709 C10.9711407,26.9226933 9.71941366,26.1909075 9.09872255,24.9549226 C8.47803144,23.7193874 8.65029571,22.301693 9.42256139,21.2469679 C8.38177934,20.4567111 7.81281248,19.1478625 8.05569161,17.7859402 C8.29812097,16.4235682 9.28897787,15.3643453 10.5461023,14.9420055 C10.1822333,13.7051211 10.5105699,12.312614 11.525265,11.3383989 C12.53996,10.3646335 13.9760953,10.0628336 15.2431148,10.4320999 C15.6933407,9.21545535 16.7952923,8.2650783 18.1990438,8.04648709 C19.7066935,7.81125415 21.1392306,8.48726773 21.9087976,9.65533644 C23.0575259,8.81335545 24.6479345,8.65098626 25.9765733,9.36747969 C27.213008,10.0344977 27.8993664,11.2884737 27.8773274,12.577982 C29.2005688,12.6481471 30.4370035,13.4042208 31.0325072,14.6514501 C31.6284606,15.8991292 31.4274106,17.3132255 30.6344553,18.3535578 C31.6585956,19.1636046 32.2010257,20.4832479 31.93116,21.8406724 L31.93116,21.8406724 Z M29.8149631,18.4385655 C30.5453996,17.4805422 30.7302576,16.17889 30.1815307,15.0306114 C29.6337033,13.8823329 28.4953198,13.1865291 27.2773259,13.1217614 C27.2975659,11.9348021 26.6660801,10.7802266 25.5272469,10.1662822 C24.3043055,9.5069103 22.8407338,9.65623599 21.78331,10.4316501 C21.0749126,9.35623529 19.7561689,8.73419485 18.3681596,8.95053718 C17.0764024,9.15158713 16.0617074,10.0264018 15.6470138,11.1463444 C14.481194,10.8063137 13.158852,11.0838256 12.2251167,11.9806792 C11.2909316,12.8775329 10.988682,14.159395 11.3237653,15.2977785 C10.1664912,15.6868349 9.2543451,16.6614998 9.03125612,17.9159255 C8.80771737,19.1694517 9.33125683,20.3744021 10.2892801,21.1016901 C9.57863372,22.0727569 9.41986273,23.3775576 9.99152824,24.5145917 C10.5622942,25.6525254 11.7150705,26.3262901 12.9348635,26.3676695 C12.9380119,27.5550786 13.592886,28.6966105 14.7438632,29.288516 C15.8943907,29.8808712 17.240121,29.7688769 18.2611129,29.1090553 C18.9776063,30.0639301 20.1987486,30.6122072 21.4945537,30.4354452 C22.7899091,30.2582334 23.8216956,29.4032089 24.2588781,28.2909124 C25.4179513,28.653432 26.744791,28.4006578 27.6965173,27.5217952 C28.6477939,26.6433823 28.9761305,25.3673673 28.6639859,24.2222372 C29.8284564,23.8552199 30.7599428,22.8976464 31.008669,21.6481682 C31.2573953,20.3991398 30.7581437,19.1838446 29.8149631,18.4385655 L29.8149631,18.4385655 Z M24.0956093,21.5163838 C23.7119503,21.8181836 23.3372867,22.0408228 22.9716187,22.1838516 C22.6059507,22.3273302 22.2209423,22.3988446 21.8170433,22.3988446 C21.3564725,22.3988446 20.8374308,22.2684095 20.2590186,22.0075394 C20.1465746,21.9562649 20.0624664,21.9180339 20.0062444,21.8923967 C19.5812059,21.7084382 19.2425245,21.5869986 18.9893005,21.528078 C18.7360765,21.4691573 18.4842019,21.4399218 18.2336765,21.4399218 C17.8347251,21.4399218 17.4546642,21.5163838 17.0939437,21.6697574 C16.733673,21.8235809 16.363957,22.06646 15.9852455,22.3988446 L15.9852455,21.063909 C16.3895942,20.7468168 16.7782008,20.5178807 17.1515151,20.3771007 C17.5248293,20.2363208 17.9215319,20.1661557 18.341173,20.1661557 C18.8318788,20.1661557 19.4098412,20.3069357 20.0750602,20.5880458 L20.0827064,20.5880458 C20.1389284,20.613683 20.2234863,20.651914 20.3359303,20.7031885 C20.9291851,20.9847483 21.463969,21.1250785 21.9398322,21.1250785 C22.2875091,21.1250785 22.6378848,21.0472672 22.9909591,20.8911949 C23.3435836,20.7351226 23.7119503,20.4935928 24.0956093,20.1661557 L24.0956093,21.5163838 L24.0956093,21.5163838 Z M24.0956093,18.3288201 C23.7119503,18.6306199 23.3372867,18.8519098 22.9716187,18.9926897 C22.6059507,19.1334696 22.2209423,19.2036347 21.8170433,19.2036347 C21.3564725,19.2036347 20.8374308,19.0731996 20.2590186,18.8123295 C20.1465746,18.761055 20.0624664,18.7250729 20.0062444,18.7048329 C19.6122405,18.5307696 19.2834541,18.413378 19.0198853,18.3517587 C18.7567662,18.2905891 18.4945467,18.2595545 18.2336765,18.2595545 C17.8293278,18.2595545 17.447018,18.3351169 17.0862975,18.4862417 C16.7260268,18.6369167 16.3585597,18.8761977 15.9852455,19.2036347 L15.9852455,17.8682493 C16.3841969,17.5615019 16.7705547,17.3379632 17.1438689,17.1971832 C17.5171831,17.0564033 17.9161346,16.9862382 18.341173,16.9862382 C18.6119383,16.9862382 18.8755071,17.0141243 19.1314298,17.0703464 C19.3869026,17.1270181 19.7066935,17.2367635 20.0903526,17.4004821 C20.141627,17.4211718 20.2234863,17.4594027 20.3359303,17.5156248 C20.9291851,17.7917873 21.463969,17.9298686 21.9398322,17.9298686 C22.2974042,17.9298686 22.6518278,17.8529569 23.0022035,17.6995832 C23.3525791,17.5462095 23.7168978,17.3082779 24.0956093,16.9862382 L24.0956093,18.3288201 L24.0956093,18.3288201 Z" id="synonyms"></path>
  <path d="M31.0185818,20 L31.0185818,16.3748021 C31.0185818,13.964503 31.0185818,13.2135655 30.607616,11.9161737 C30.091659,10.5002916 29.5227064,9.93183901 28.1048246,9.41688193 C26.8059328,9.00641613 26.0539955,9.00641613 23.6406966,9.00641613 L20.0154987,8.99091742 L20.0154987,8.98291809 L16.375802,8.98291809 C13.9565036,8.98291809 13.2025665,8.98291809 11.900175,9.39388384 C10.4787934,9.91084076 9.90834097,10.4807933 9.39088409,11.900175 C8.97891842,13.2005666 8.97891842,13.9540038 8.97891842,16.3703025 L9.0104158,20 L9.01141572,20 L9.01141572,23.6256979 C9.01141572,26.035497 9.01141572,26.7864345 9.42138155,28.0838263 C9.93733856,29.4997084 10.5052912,30.068161 11.9216732,30.583618 C13.2185651,30.9935839 13.9695025,30.9935839 16.3798017,30.9935839 L20,31.0090826 L20,31.0170819 L23.6351971,31.0170819 C26.0509958,31.0170819 26.804433,31.0170819 28.1048246,30.6061162 C29.5247063,30.0891592 30.0941588,29.5197067 30.6111157,28.099825 C31.0220815,26.7994334 31.0225815,26.0459962 31.0225815,23.6296975 L31.0220815,20 L31.0185818,20 L31.0185818,20 Z M13.0005833,23.9996667 L18.500125,23.9996667 L18.500125,24.9995834 L13.0005833,24.9995834 L13.0005833,23.9996667 Z M13.0005833,20.9999167 L26.9994167,20.9999167 L26.9994167,21.9998333 L13.0005833,21.9998333 L13.0005833,20.9999167 Z M13.0005833,18.0001667 L26.9994167,18.0001667 L26.9994167,19.0000833 L13.0005833,19.0000833 L13.0005833,18.0001667 Z M13.0005833,15.0004166 L26.9994167,15.0004166 L26.9994167,16.0003333 L13.0005833,16.0003333 L13.0005833,15.0004166 Z M32,23.6221982 C32,26.0329973 32,27.2388968 31.5900342,28.5362886 C31.0740772,29.9531706 29.9581702,31.0690776 28.5412882,31.5850346 C27.2433964,31.9950004 26.0379968,31.9950004 23.6271977,31.9950004 L20,31.9950004 L20,32 L16.3873011,31.9690026 C13.9825015,31.9690026 12.7801017,31.9690026 11.4862095,31.5595367 C10.0728273,31.0455795 8.95992001,29.9321723 8.44546288,28.5192901 C8.035997,27.2248979 8.035997,26.0224981 8.035997,23.6176985 L8.00499958,20 L8,20 L8,16.3778018 C8,13.9670027 8,12.7616032 8.41096575,11.4637114 C8.92692276,10.0468294 10.0448296,8.93092242 11.4632114,8.41546538 C12.7626031,8.00499958 13.9695025,8.00499958 16.3838013,8.00499958 L20.0154987,8.00499958 L20.0154987,8 L23.6331972,8.03099742 C26.0409966,8.03099742 27.2448963,8.03099742 28.5407883,8.44046329 C29.9556704,8.95492042 31.0700775,10.0678277 31.5855345,11.4807099 C31.9950004,12.7751021 31.9950004,13.9775019 31.9950004,16.3823015 L31.9950004,20 L32,20 L32,23.6221982 L32,23.6221982 Z" id="content"></path>
  <path d="M20.00024,11.8399232 C15.4945701,11.8399232 11.8423232,15.4926501 11.8423232,19.99784 C11.8423232,24.5035099 15.4945701,28.1557569 20.00024,28.1557569 C24.5054299,28.1557569 28.1581568,24.5035099 28.1581568,19.99784 C28.1581568,15.4926501 24.5054299,11.8399232 20.00024,11.8399232 L20.00024,11.8399232 Z M20.00024,26.2372353 C16.5553489,26.2372353 13.7627647,23.4446511 13.7627647,19.99976 C13.7627647,16.5548689 16.5553489,13.7622848 20.00024,13.7622848 C23.4451311,13.7622848 26.2377152,16.5548689 26.2377152,19.99976 C26.2377152,23.4446511 23.4451311,26.2372353 20.00024,26.2372353 L20.00024,26.2372353 Z M20.00024,14.7179456 C17.0833383,14.7179456 14.7189056,17.0823784 14.7189056,19.99928 C14.7189056,22.9161817 17.0833383,25.2806144 20.00024,25.2806144 C22.9171417,25.2806144 25.2815744,22.9161817 25.2815744,19.99928 C25.2815744,17.0823784 22.9171417,14.7179456 20.00024,14.7179456 L20.00024,14.7179456 Z M20.00024,8.97582048 C13.9034019,8.97582048 8.96142077,13.9182816 8.96094078,20.0146397 C8.96094078,26.1114778 13.9034019,31.0539389 20.00024,31.0539389 C26.0965981,31.0539389 31.0390592,26.1114778 31.0390592,20.0146397 C31.0390592,13.9182816 26.0965981,8.97582048 20.00024,8.97582048 L20.00024,8.97582048 Z M20.00024,29.1104578 C14.9675406,29.1104578 10.8876222,25.0310194 10.8876222,19.99832 C10.8876222,14.9656207 14.9675406,10.8857023 20.00024,10.8857023 C25.0329393,10.8857023 29.1123778,14.9656207 29.1123778,19.99832 C29.1123778,25.0310194 25.0329393,29.1104578 20.00024,29.1104578 L20.00024,29.1104578 Z M20.00024,31.99952 C13.3725325,31.99952 8,26.6269875 8,19.99976 C8,13.3725325 13.3725325,8 20.00024,8 C26.6274675,8 32,13.3725325 32,19.99976 C32,26.6269875 26.6274675,31.99952 20.00024,31.99952 L20.00024,31.99952 Z" id="domains"></path>
  <path d="M20.00024,31.99952 C13.3725325,31.99952 8,26.6269875 8,19.99976 C8,13.3725325 13.3725325,8 20.00024,8 C26.6274675,8 32,13.3725325 32,19.99976 C32,26.6269875 26.6274675,31.99952 20.00024,31.99952 Z M27.7227134,27.8456547 C29.7511584,25.8487399 31.0088198,23.0711078 31.0088198,19.99976 C31.0088198,13.9197216 26.0802784,8.99070019 20.00024,8.99070019 C13.9202016,8.99070019 8.99118018,13.9197216 8.99118018,19.99976 C8.99118018,23.0495314 10.2313542,25.8096994 12.2348923,27.803454 C12.9574215,27.4835764 13.9239788,27.0698069 14.7328253,26.7225055 C15.700006,26.3073139 16.7905442,25.4894102 17.3041339,24.9979 C17.5748485,24.7387052 17.5695686,24.4867103 17.5705286,24.3167937 C17.5738885,23.8142437 17.5873283,23.9707206 17.5042899,23.4216116 C17.1250975,23.048179 17.0113398,22.1045179 16.6628667,21.7642047 C16.1703966,21.2822944 15.6822464,20.6895062 15.5296094,19.949361 C15.3270535,18.9649007 15.7398452,18.8396232 15.7398452,18.49979 C15.7398452,17.7879642 15.6539269,16.4324714 15.8776024,15.8118438 C16.4814304,14.1371573 18.1580368,13.0965381 19.8096838,13.0341393 L19.8082438,13.0278994 C19.8423232,13.0278994 19.8740025,13.0298194 19.9071219,13.0302994 C19.9268015,13.0298194 19.9464811,13.0278994 19.9661607,13.0278994 L19.9661607,13.0317394 C20.6439071,13.049499 21.1762165,13.150297 21.8213236,13.5093298 C22.2384352,13.7411652 23.0385792,13.6926861 23.3630527,14.0440391 C23.7096058,14.4193916 23.8737625,14.8552229 23.8857623,15.8574429 C24.1089578,16.6172677 24.1147177,17.7879642 24.1147177,18.49979 C24.1147177,18.8396232 24.5275094,18.9649007 24.3244735,19.949361 C24.1723166,20.6895062 23.6376072,21.2822944 23.1446571,21.7642047 C22.7966641,22.1045179 22.8312234,23.048179 22.452031,23.4216116 L22.4606708,23.4216116 C22.3805124,23.952001 22.4150717,23.7590448 22.4169917,24.2649547 C22.4189116,24.699826 22.6113878,24.8788624 22.7913842,25.049739 C23.3246535,25.5570889 24.1886362,26.3183536 25.1298974,26.7225055 C25.9746109,27.0850719 26.9922783,27.5208982 27.7227134,27.8456547 Z M27.2514947,28.2833481 C26.4057588,27.9174466 25.3748912,27.6120147 24.3868723,27.0335393 C23.4273715,26.4709906 22.6262675,25.7961241 22.0925181,25.2887742 C21.9130017,25.1178976 21.7805244,24.7324654 21.7786044,24.297594 C21.7766845,23.7912042 21.7397252,23.8732825 21.8198836,23.3424132 L21.8112438,23.3424132 C22.1909162,22.9694606 22.1304374,22.00228 22.4789104,21.6624468 C22.9718606,21.1805364 23.4297714,20.6895062 23.5819284,19.949361 C23.7844843,18.9649007 23.4182516,18.8396232 23.4182516,18.49979 C23.4182516,17.7879642 23.4124918,16.9887802 23.1892962,16.2289554 C23.1777764,15.2267355 22.9670607,14.7904242 22.6205076,14.4150717 C22.2960341,14.0641987 21.4958901,14.5269095 21.0787784,14.2950741 C20.4331913,13.9365213 20.6439071,13.7675646 19.9661607,13.749325 L19.9661607,13.7459651 C19.9464811,13.7459651 19.9268015,13.747885 19.9071219,13.748365 C19.8740025,13.7474051 19.8423232,13.7459651 19.8082438,13.7459651 L19.8096838,13.751725 C18.1580368,13.8141237 17.1428571,14.5086698 16.5390292,16.1833563 C16.3153537,16.8039839 16.4358313,17.7644447 16.4358313,18.4767505 C16.4358313,18.8165837 16.0115198,18.9418612 16.2140757,19.9263215 C16.3667127,20.6664667 16.9590208,21.2822944 17.451971,21.7642047 C17.800444,22.1045179 17.7423652,23.048179 18.1220376,23.4216116 C18.2045959,23.9707206 18.1772365,23.9116818 18.1743565,24.4142317 C18.1729165,24.5841483 18.1829963,25.0310194 17.9122818,25.2902142 C17.398692,25.7817244 16.3950321,26.5098698 15.4758505,26.9826603 C14.5829628,27.441755 13.4413176,27.916537 12.6967888,28.2375127 C14.6401627,29.9617508 17.1979464,31.0088198 20.00024,31.0088198 C22.7776153,31.0088198 25.3147097,29.9802893 27.2514947,28.2833481 Z" id="team"></path>
  <path d="M10.2154444,17.0060242 C9.73884236,17.5274881 9.4625642,17.9170314 9.15075186,18.5171147 C8.62617869,19.6417712 8.62617869,20.3582288 9.15075186,21.4824411 C9.4625642,22.0829686 9.73884236,22.4725119 10.2154444,22.9939758 L10.2154444,22.9624393 L10.2154444,17.0371166 L10.2154444,17.0060242 L10.2154444,17.0060242 Z M10.9852033,24.8253181 C10.9785407,24.8186554 10.9732106,24.8133253 10.9665479,24.8066627 C10.9985287,25.5093509 11.0784805,25.9797344 11.2819137,26.6229029 C11.706547,27.7888678 12.2129089,28.2952297 13.3788738,28.719863 C14.0220423,28.9232962 14.4924259,29.003248 15.1951141,29.0352288 C15.1880072,29.028122 15.1817887,29.0223477 15.1746819,29.0147967 L10.9852033,24.8253181 L10.9852033,24.8253181 Z M22.9646602,10.2132235 L22.991755,10.2132235 C22.4711794,9.73795401 22.0820802,9.46167584 21.4828853,9.15030769 C20.3582288,8.62617869 19.6422153,8.62617869 18.5175589,9.15030769 C17.9183639,9.46167584 17.5288206,9.73795401 17.0086892,10.2132235 L17.0397816,10.2132235 L22.9646602,10.2132235 L22.9646602,10.2132235 Z M29.0152408,15.1746819 C29.023236,15.1826771 29.0298987,15.1893397 29.0378939,15.1977791 C29.0059131,14.4919817 28.9264054,14.0211539 28.7220839,13.3762088 C28.2978948,12.2102438 27.7915329,11.7038819 26.6255679,11.2792486 C25.9806228,11.0753713 25.509795,10.9958636 24.8039976,10.9638828 C24.8115486,10.9714339 24.8177671,10.9772082 24.8253181,10.9847592 L29.0152408,15.1746819 L29.0152408,15.1746819 Z M15.1746819,10.9847592 C15.1822329,10.9776523 15.1884514,10.9714339 15.1955582,10.9638828 C14.49287,10.9963078 14.0220423,11.0758155 13.3788738,11.2792486 C12.2129089,11.7038819 11.706547,12.2102438 11.2819137,13.3762088 C11.0784805,14.0198214 10.9985287,14.490205 10.9665479,15.1933373 C10.9732106,15.1866747 10.9785407,15.1813446 10.9852033,15.1746819 L15.1746819,10.9847592 L15.1746819,10.9847592 Z M29.7885532,17.0104659 L29.7885532,17.0371166 L29.7885532,22.9624393 L29.7885532,22.9895341 C30.2624902,22.470291 30.5387683,22.0811919 30.8496923,21.4824411 C31.3738213,20.3582288 31.3738213,19.6417712 30.8496923,18.5171147 C30.5387683,17.9188081 30.2624902,17.529709 29.7885532,17.0104659 L29.7885532,17.0104659 Z M17.0397816,29.7863323 L17.0078009,29.7863323 C17.5288206,30.2616018 17.9179198,30.53788 18.5175589,30.8496923 C19.6422153,31.3738213 20.3582288,31.3738213 21.4828853,30.8492481 C22.0825244,30.53788 22.4716236,30.2616018 22.9921991,29.7863323 L22.9646602,29.7863323 L17.0397816,29.7863323 L17.0397816,29.7863323 Z M31.6105677,21.7569426 C31.205034,22.537806 30.6773516,23.1418868 29.7849998,24.050229 C29.7738953,25.3259057 29.7201499,26.1272012 29.4540878,26.9671401 C29.0338963,28.1220006 28.1242215,29.0316754 26.9698052,29.4518669 C26.1294221,29.7174848 25.3285708,29.7716745 24.0524499,29.7827789 C23.1432194,30.6764632 22.5386943,31.2041457 21.7569426,31.6105677 C20.6433906,32.1298108 19.3570536,32.1298108 18.2430574,31.6105677 C17.4613057,31.2041457 16.8572248,30.6760191 15.9475501,29.7827789 C14.6740943,29.7712303 13.8736871,29.7174848 13.0346366,29.4518669 C11.8797761,29.0316754 10.9701013,28.1220006 10.5499098,26.9671401 C10.284736,26.1280896 10.2305464,25.3276824 10.2189978,24.0542266 C9.32442511,23.1436635 8.79585435,22.5391385 8.38943229,21.7569426 C7.87018924,20.6433906 7.87018924,19.3566094 8.38943229,18.2430574 C8.79585435,17.4608615 9.32442511,16.8563365 10.2189978,15.9457734 C10.2305464,14.6718734 10.284736,13.8714662 10.5499098,13.0319715 C10.9701013,11.8775552 11.8797761,10.9678804 13.0346366,10.5472447 C13.8741313,10.282071 14.6745385,10.2278814 15.9479943,10.2167769 C16.8572248,9.32353676 17.4617499,8.79541017 18.2430574,8.38943229 C19.3570536,7.87018924 20.6433906,7.87018924 21.7569426,8.38943229 C22.5386943,8.79541017 23.1427752,9.32353676 24.0520057,10.2167769 C25.3281266,10.2278814 26.1294221,10.2816268 26.9698052,10.5472447 C28.1246657,10.9678804 29.0338963,11.8775552 29.4540878,13.0319715 C29.7201499,13.8723546 29.7738953,14.6736501 29.7849998,15.949771 C30.6773516,16.8581132 31.205034,17.462194 31.6105677,18.2430574 C32.1298108,19.3566094 32.1298108,20.6433906 31.6105677,21.7569426 L31.6105677,21.7569426 Z M24.8253181,29.0147967 C24.8182113,29.0223477 24.8119928,29.028122 24.8048859,29.0352288 C25.5102392,29.0036922 25.981067,28.9237403 26.6255679,28.719863 C27.7915329,28.2952297 28.2978948,27.7888678 28.7220839,26.6229029 C28.9259612,25.9784019 29.0059131,25.5075741 29.0378939,24.8022209 C29.0298987,24.8106603 29.023236,24.8173229 29.0152408,24.8253181 L24.8253181,29.0147967 L24.8253181,29.0147967 Z M28.5204275,15.7103595 L24.2896405,11.4800167 C24.090205,11.2805811 23.914755,11.1055753 23.7512978,10.9430065 C23.5212141,10.9421182 23.2742516,10.941674 22.9935317,10.941674 L17.0109101,10.941674 C16.7279693,10.941674 16.4801184,10.9421182 16.2491463,10.9430065 C16.085245,11.1055753 15.909795,11.2805811 15.7103595,11.4800167 L11.4800167,15.7103595 C11.2814695,15.9089067 11.1073521,16.0834683 10.9456716,16.2464813 C10.9447832,16.4778976 10.9443391,16.7257484 10.9443391,17.008245 L10.9443391,22.9908666 C10.9443391,23.2738074 10.9447832,23.5221024 10.9456716,23.7535187 C11.1073521,23.9165317 11.2819137,24.0910933 11.4800167,24.2896405 L15.7103595,28.5199833 C15.909795,28.7189747 16.0848008,28.8939805 16.248258,29.0561051 C16.4796743,29.0569935 16.7279693,29.0574377 17.0109101,29.0574377 L22.9935317,29.0574377 C23.2746958,29.0574377 23.5216583,29.0569935 23.751742,29.0561051 C23.9156434,28.8939805 24.0906491,28.7194189 24.2896405,28.5199833 L28.5204275,24.2896405 C28.7203072,24.0893166 28.8957572,23.9134225 29.0587702,23.7490769 C29.0596585,23.5189932 29.0601027,23.2720307 29.0601027,22.9908666 L29.0601027,17.008245 C29.0601027,16.7275251 29.0596585,16.4805626 29.0587702,16.2504789 C28.8957572,16.0865775 28.7203072,15.9106834 28.5204275,15.7103595 L28.5204275,15.7103595 Z M18.1915329,21.7827049 L17.532374,22.4418637 L15.0885115,19.997557 L17.532374,17.5532504 L18.1915329,18.211965 L16.4059409,19.997557 L18.1915329,21.7827049 L18.1915329,21.7827049 Z M22.4534123,22.4418637 L21.7946976,21.7827049 L23.5802896,19.997557 L21.7946976,18.211965 L22.4534123,17.5532504 L24.897719,19.997557 L22.4534123,22.4418637 L22.4534123,22.4418637 Z" id="install"></path>
  <path d="M8.3813827,12.006252 L9.20987614,12.8347454 C9.20787616,12.8417454 9.20487618,12.8487453 9.20287619,12.8557453 L11.5588575,15.2117266 L14.4298348,14.4462327 L15.1948287,11.5757554 L13.7843399,10.1652666 L13.7873399,10.1622666 L12.006354,8.3812807 C14.1923367,7.57478709 16.7463164,8.04678335 18.5063025,9.80626942 C20.2662886,11.5662555 20.7377848,14.1202352 19.9312912,16.3062179 L20.7557847,17.1307114 L20.0307904,17.8557057 L18.7033009,16.5287162 C19.705793,14.5997314 19.3957955,12.1632507 17.7728083,10.5397636 C16.7593163,9.52677163 15.4288269,9.02677559 14.1033374,9.03677551 L16.3443196,11.2777578 L15.2793281,15.2727261 L11.2843597,16.3372177 L9.03687751,14.0897355 C9.02387761,15.4202249 9.52337366,16.7562144 10.5398656,17.7727063 C11.7878557,19.0206964 13.515342,19.4846928 15.1248293,19.1801952 L14.0068381,20.2981863 C12.4833502,20.2586866 10.9708622,19.6711913 9.80637141,18.5062005 C8.04638536,16.7462144 7.57488909,14.1927347 8.3813827,12.006252 L8.3813827,12.006252 Z M12.9998461,31.5090975 C12.3763511,32.1325926 11.3653591,32.1325926 10.741364,31.5090975 L8.48338189,29.2506154 C7.85938684,28.6271203 7.85938684,27.6161283 8.48338189,26.9921333 L16.3873193,19.0881959 C17.0113143,18.4642008 18.0223063,18.4642008 18.6458014,19.0881959 L19.2967962,19.7386907 L26.9282358,12.1067512 L26.5367389,11.7147543 L27.7127296,9.88026883 L30.6767061,8.02178355 L31.9706959,9.3152733 L30.0947107,12.2972497 L28.2772251,13.4557405 L27.8852282,13.0637436 L20.2532887,20.6956832 L20.9042835,21.346178 C21.5277786,21.9701731 21.5277786,22.9811651 20.9042835,23.6046601 L12.9998461,31.5090975 L12.9998461,31.5090975 Z M31.2697014,31.2700994 C30.2687093,32.2710915 28.6137224,32.2390917 27.5732307,31.1986 L21.0267825,24.6521518 L21.5637783,24.1151561 C21.6282778,24.0506566 21.6817774,23.9796571 21.7327769,23.9081577 L28.2472253,30.4226061 C28.9147201,31.0896008 29.9422119,31.1431004 30.5427072,30.5426052 C31.1432024,29.9421099 31.0892028,28.9146181 30.4222081,28.2476233 L22.1367737,19.962189 L22.861768,19.2371947 L31.198202,27.5736287 C32.2386937,28.6141204 32.2706935,30.2691073 31.2697014,31.2700994 L31.2697014,31.2700994 Z M28.8862203,28.8861183 C29.1982178,28.5746208 29.7042138,28.5751207 30.0172113,28.8881183 C30.3297089,29.2006158 30.3307088,29.7071118 30.0187113,30.0186093 C29.7067138,30.3306068 29.2007178,30.3301068 28.8877203,30.0171093 C28.5752227,29.7046118 28.5742228,29.1981158 28.8862203,28.8861183 L28.8862203,28.8861183 Z M18.2833043,19.9486891 C17.8693075,19.5346924 17.1973129,19.5346924 16.7833162,19.9486891 L9.35587498,27.3761302 C8.94137827,27.790627 8.94137827,28.4621216 9.35587498,28.8761184 L11.115861,30.6366044 C11.5298578,31.0506011 12.2018524,31.0506011 12.6158492,30.6366044 L20.0432903,23.2091633 C20.457287,22.7946665 20.457287,22.1231719 20.0432903,21.7091751 L18.2833043,19.9486891 L18.2833043,19.9486891 Z" id="customize"></path>
  <path d="M30.2046366,26.0007052 C29.9312522,26.474221 29.5364657,26.8695961 29.0627311,27.1429238 L21.371792,31.583274 C20.40953,32.138996 19.2138085,32.1388596 18.2513075,31.5831594 L10.560355,27.1427858 C9.59785399,26.5870856 8.99987509,25.5516287 9.00001347,24.4404243 L9,15.5597005 C9.00027801,14.4656812 9.612674,13.4041089 10.560143,12.8574536 L18.2512999,8.41672605 C19.213562,7.86100401 20.4092835,7.86114044 21.3717845,8.41684064 L29.062737,12.8572142 C30.025238,13.4129144 30.6232169,14.4483713 30.6230785,15.5595757 L30.6228742,24.4406768 C30.6230327,24.9876067 30.4782389,25.5268121 30.2046366,26.0007052 L30.2046366,26.0007052 L30.2046366,26.0007052 Z M10.1728444,14.4353445 C9.97570257,14.7768041 9.87156817,15.1654216 9.87132571,15.5596895 L9.87133918,24.4404132 C9.87106791,25.241649 10.3021665,25.9875782 10.9960274,26.388179 L18.68698,30.8285526 C19.3808409,31.2291534 20.2423838,31.229531 20.9361388,30.8286782 L28.6270779,26.388328 C29.3091322,25.9937997 29.7512814,25.2288462 29.7515484,24.4406878 L29.7517528,15.5595868 C29.7518062,14.7587283 29.3209255,14.0124218 28.6270646,13.611821 L20.936112,9.17144745 C20.2422511,8.77084664 19.3804903,8.77084625 18.6869532,9.17132178 L10.9957963,13.6120493 C10.6546894,13.8090159 10.3699861,14.093885 10.1728444,14.4353445 L10.1728444,14.4353445 L10.1728444,14.4353445 Z M16.3314586,19.1577 C16.5780699,18.7305566 16.935427,18.3738929 17.3653125,18.1260176 L22.9201439,14.9184044 L21.1558264,11.8621657 L15.413579,15.1774098 C14.4476066,15.7351079 13.6435931,16.5377502 13.0887176,17.4988227 C11.9554384,19.4617198 11.9545265,21.8997843 13.0867078,23.8610413 C14.8396084,26.8960982 18.735123,27.9402179 21.7709345,26.187753 L27.5125868,22.8726683 L25.7478919,19.8162117 L20.192901,23.0232297 C18.8427174,23.8028495 17.1098228,23.3386813 16.3302031,21.9884976 C15.8266181,21.1161535 15.8271254,20.0312307 16.3314586,19.1577 L16.3314586,19.1577 L16.3314586,19.1577 Z M21.7297949,14.5994351 L20.3232079,15.411392 L19.4302701,13.8644715 L20.8368571,13.0525146 L21.7297949,14.5994351 L21.7297949,14.5994351 Z M26.3222378,22.5536991 L24.9156508,23.3656559 L24.022713,21.8187354 L25.4293,21.0067786 L26.3222378,22.5536991 L26.3222378,22.5536991 Z M15.575544,22.4241875 C16.5958582,24.1905517 18.8624445,24.7978258 20.6285909,23.7778889 L23.267836,22.2548026 L24.1609917,23.8013458 L21.3348673,25.432876 C18.7157732,26.9454594 15.3539503,26.0444456 13.8415848,23.4249741 C12.8644451,21.7328419 12.865221,19.6287663 13.8433878,17.9345317 C14.3217963,17.1059038 15.0155579,16.4131817 15.8496462,15.9322868 L18.675611,14.3001614 L19.5685488,15.8470818 L16.9294632,17.3707632 C16.3670984,17.6956012 15.8996488,18.1627803 15.5767884,18.7219909 C14.9171249,19.8645616 14.9166994,21.2830958 15.575544,22.4241875 L15.575544,22.4241875 L15.575544,22.4241875 Z" id="engage"></path>
  <path d="M10.2154444,17.0060242 C9.73884236,17.5274881 9.4625642,17.9170314 9.15075186,18.5171147 C8.62617869,19.6417712 8.62617869,20.3582288 9.15075186,21.4824411 C9.4625642,22.0829686 9.73884236,22.4725119 10.2154444,22.9939758 L10.2154444,22.9624393 L10.2154444,17.0371166 L10.2154444,17.0060242 L10.2154444,17.0060242 Z M10.9852033,24.8253181 C10.9785407,24.8186554 10.9732106,24.8133253 10.9665479,24.8066627 C10.9985287,25.5093509 11.0784805,25.9797344 11.2819137,26.6229029 C11.706547,27.7888678 12.2129089,28.2952297 13.3788738,28.719863 C14.0220423,28.9232962 14.4924259,29.003248 15.1951141,29.0352288 C15.1880072,29.028122 15.1817887,29.0223477 15.1746819,29.0147967 L10.9852033,24.8253181 L10.9852033,24.8253181 Z M22.9646602,10.2132235 L22.991755,10.2132235 C22.4711794,9.73795401 22.0820802,9.46167584 21.4828853,9.15030769 C20.3582288,8.62617869 19.6422153,8.62617869 18.5175589,9.15030769 C17.9183639,9.46167584 17.5288206,9.73795401 17.0086892,10.2132235 L17.0397816,10.2132235 L22.9646602,10.2132235 L22.9646602,10.2132235 Z M29.0152408,15.1746819 C29.023236,15.1826771 29.0298987,15.1893397 29.0378939,15.1977791 C29.0059131,14.4919817 28.9264054,14.0211539 28.7220839,13.3762088 C28.2978948,12.2102438 27.7915329,11.7038819 26.6255679,11.2792486 C25.9806228,11.0753713 25.509795,10.9958636 24.8039976,10.9638828 C24.8115486,10.9714339 24.8177671,10.9772082 24.8253181,10.9847592 L29.0152408,15.1746819 L29.0152408,15.1746819 Z M15.1746819,10.9847592 C15.1822329,10.9776523 15.1884514,10.9714339 15.1955582,10.9638828 C14.49287,10.9963078 14.0220423,11.0758155 13.3788738,11.2792486 C12.2129089,11.7038819 11.706547,12.2102438 11.2819137,13.3762088 C11.0784805,14.0198214 10.9985287,14.490205 10.9665479,15.1933373 C10.9732106,15.1866747 10.9785407,15.1813446 10.9852033,15.1746819 L15.1746819,10.9847592 L15.1746819,10.9847592 Z M29.7885532,17.0104659 L29.7885532,17.0371166 L29.7885532,22.9624393 L29.7885532,22.9895341 C30.2624902,22.470291 30.5387683,22.0811919 30.8496923,21.4824411 C31.3738213,20.3582288 31.3738213,19.6417712 30.8496923,18.5171147 C30.5387683,17.9188081 30.2624902,17.529709 29.7885532,17.0104659 L29.7885532,17.0104659 Z M17.0397816,29.7863323 L17.0078009,29.7863323 C17.5288206,30.2616018 17.9179198,30.53788 18.5175589,30.8496923 C19.6422153,31.3738213 20.3582288,31.3738213 21.4828853,30.8492481 C22.0825244,30.53788 22.4716236,30.2616018 22.9921991,29.7863323 L22.9646602,29.7863323 L17.0397816,29.7863323 L17.0397816,29.7863323 Z M31.6105677,21.7569426 C31.205034,22.537806 30.6773516,23.1418868 29.7849998,24.050229 C29.7738953,25.3259057 29.7201499,26.1272012 29.4540878,26.9671401 C29.0338963,28.1220006 28.1242215,29.0316754 26.9698052,29.4518669 C26.1294221,29.7174848 25.3285708,29.7716745 24.0524499,29.7827789 C23.1432194,30.6764632 22.5386943,31.2041457 21.7569426,31.6105677 C20.6433906,32.1298108 19.3570536,32.1298108 18.2430574,31.6105677 C17.4613057,31.2041457 16.8572248,30.6760191 15.9475501,29.7827789 C14.6740943,29.7712303 13.8736871,29.7174848 13.0346366,29.4518669 C11.8797761,29.0316754 10.9701013,28.1220006 10.5499098,26.9671401 C10.284736,26.1280896 10.2305464,25.3276824 10.2189978,24.0542266 C9.32442511,23.1436635 8.79585435,22.5391385 8.38943229,21.7569426 C7.87018924,20.6433906 7.87018924,19.3566094 8.38943229,18.2430574 C8.79585435,17.4608615 9.32442511,16.8563365 10.2189978,15.9457734 C10.2305464,14.6718734 10.284736,13.8714662 10.5499098,13.0319715 C10.9701013,11.8775552 11.8797761,10.9678804 13.0346366,10.5472447 C13.8741313,10.282071 14.6745385,10.2278814 15.9479943,10.2167769 C16.8572248,9.32353676 17.4617499,8.79541017 18.2430574,8.38943229 C19.3570536,7.87018924 20.6433906,7.87018924 21.7569426,8.38943229 C22.5386943,8.79541017 23.1427752,9.32353676 24.0520057,10.2167769 C25.3281266,10.2278814 26.1294221,10.2816268 26.9698052,10.5472447 C28.1246657,10.9678804 29.0338963,11.8775552 29.4540878,13.0319715 C29.7201499,13.8723546 29.7738953,14.6736501 29.7849998,15.949771 C30.6773516,16.8581132 31.205034,17.462194 31.6105677,18.2430574 C32.1298108,19.3566094 32.1298108,20.6433906 31.6105677,21.7569426 L31.6105677,21.7569426 Z M24.8253181,29.0147967 C24.8182113,29.0223477 24.8119928,29.028122 24.8048859,29.0352288 C25.5102392,29.0036922 25.981067,28.9237403 26.6255679,28.719863 C27.7915329,28.2952297 28.2978948,27.7888678 28.7220839,26.6229029 C28.9259612,25.9784019 29.0059131,25.5075741 29.0378939,24.8022209 C29.0298987,24.8106603 29.023236,24.8173229 29.0152408,24.8253181 L24.8253181,29.0147967 L24.8253181,29.0147967 Z M28.5204275,15.7103595 L24.2896405,11.4800167 C24.090205,11.2805811 23.914755,11.1055753 23.7512978,10.9430065 C23.5212141,10.9421182 23.2742516,10.941674 22.9935317,10.941674 L17.0109101,10.941674 C16.7279693,10.941674 16.4801184,10.9421182 16.2491463,10.9430065 C16.085245,11.1055753 15.909795,11.2805811 15.7103595,11.4800167 L11.4800167,15.7103595 C11.2814695,15.9089067 11.1073521,16.0834683 10.9456716,16.2464813 C10.9447832,16.4778976 10.9443391,16.7257484 10.9443391,17.008245 L10.9443391,22.9908666 C10.9443391,23.2738074 10.9447832,23.5221024 10.9456716,23.7535187 C11.1073521,23.9165317 11.2819137,24.0910933 11.4800167,24.2896405 L15.7103595,28.5199833 C15.909795,28.7189747 16.0848008,28.8939805 16.248258,29.0561051 C16.4796743,29.0569935 16.7279693,29.0574377 17.0109101,29.0574377 L22.9935317,29.0574377 C23.2746958,29.0574377 23.5216583,29.0569935 23.751742,29.0561051 C23.9156434,28.8939805 24.0906491,28.7194189 24.2896405,28.5199833 L28.5204275,24.2896405 C28.7203072,24.0893166 28.8957572,23.9134225 29.0587702,23.7490769 C29.0596585,23.5189932 29.0601027,23.2720307 29.0601027,22.9908666 L29.0601027,17.008245 C29.0601027,16.7275251 29.0596585,16.4805626 29.0587702,16.2504789 C28.8957572,16.0865775 28.7203072,15.9106834 28.5204275,15.7103595 L28.5204275,15.7103595 Z M18.1915329,21.7827049 L17.532374,22.4418637 L15.0885115,19.997557 L17.532374,17.5532504 L18.1915329,18.211965 L16.4059409,19.997557 L18.1915329,21.7827049 L18.1915329,21.7827049 Z M22.4534123,22.4418637 L21.7946976,21.7827049 L23.5802896,19.997557 L21.7946976,18.211965 L22.4534123,17.5532504 L24.897719,19.997557 L22.4534123,22.4418637 L22.4534123,22.4418637 Z" id="conversions"></path>
</svg>
