<svg xmlns="http://www.w3.org/2000/svg" viewBox="0 0 2248 2113"><filter id="b"><feGaussianBlur stdDeviation="12" /></filter><path fill="#c3e1ef" d="M0 0h2248v2107H0z"/><g filter="url(#b)" transform="translate(4.4 4.4) scale(8.78125)" fill-opacity=".5"><ellipse fill="#00abff" rx="1" ry="1" transform="rotate(63 -35.5 135.3) scale(53.55197 77.61333)"/><ellipse fill="#0a0006" rx="1" ry="1" transform="matrix(.0107 -6.12855 201.5394 .35175 131 22.3)"/><ellipse fill="#fff" rx="1" ry="1" transform="matrix(32.61087 55.26095 -219.61164 129.59834 174 186.3)"/><path fill="#009ffb" d="M35 52h41v72H35z"/><ellipse fill="#fff" rx="1" ry="1" transform="matrix(-88.5183 -.08969 .00408 -4.0282 91 88)"/><ellipse fill="#fffffd" cx="16" cy="137" rx="19" ry="110"/><path fill="#009bf9" d="M37 132h86v30H37z"/><ellipse fill="#fff" rx="1" ry="1" transform="matrix(3.68421 -.00796 .16815 77.8248 79.6 111.4)"/></g></svg>