<svg width="40px" height="40px" viewBox="0 0 40 40" version="1.1" xmlns="http://www.w3.org/2000/svg" xmlns:xlink="http://www.w3.org/1999/xlink">
  <path d="M19.6,21 L18.390368,27.0481602 C18.1774867,28.1125667 18.5140081,28.2657027 19.1480692,27.3599011 L24.4271606,19.818342 C24.7425645,19.367765 24.5523709,19 24.0001925,19 L20.4,19 L21.609632,12.9518398 C21.8225133,11.8874333 21.4859919,11.7342973 20.8519308,12.6400989 L15.5728394,20.181658 C15.2574355,20.632235 15.4476291,21 15.9998075,21 L19.6,21 Z M8,11.990053 C8,9.78640758 9.78429328,8 11.990053,8 L28.009947,8 C30.2135924,8 32,9.78429328 32,11.990053 L32,28.009947 C32,30.2135924 30.2157067,32 28.009947,32 L11.990053,32 C9.78640758,32 8,30.2157067 8,28.009947 L8,11.990053 Z M13.5,15 C14.3284271,15 15,14.3284271 15,13.5 C15,12.6715729 14.3284271,12 13.5,12 C12.6715729,12 12,12.6715729 12,13.5 C12,14.3284271 12.6715729,15 13.5,15 Z M26.5,15 C27.3284271,15 28,14.3284271 28,13.5 C28,12.6715729 27.3284271,12 26.5,12 C25.6715729,12 25,12.6715729 25,13.5 C25,14.3284271 25.6715729,15 26.5,15 Z M26.5,28 C27.3284271,28 28,27.3284271 28,26.5 C28,25.6715729 27.3284271,25 26.5,25 C25.6715729,25 25,25.6715729 25,26.5 C25,27.3284271 25.6715729,28 26.5,28 Z M13.5,28 C14.3284271,28 15,27.3284271 15,26.5 C15,25.6715729 14.3284271,25 13.5,25 C12.6715729,25 12,25.6715729 12,26.5 C12,27.3284271 12.6715729,28 13.5,28 Z" id="overview"></path>
  <path d="M22.83716,21.0225414 C22.726891,21.0076762 22.6143419,21 22.5,21 C21.1192881,21 20,22.1192881 20,23.5 C20,24.0463051 20.1752291,24.5516833 20.4725481,24.9629952 C20.3186135,24.9873515 20.1607839,25 20,25 C18.3431458,25 17,23.6568542 17,22 C17,20.3431458 18.3431458,19 20,19 C21.3146268,19 22.4317555,19.8455893 22.83716,21.0225414 Z M20,30 C12.9090912,30 8.27985359,23.5235692 8.27985359,23.5235692 C7.55655134,22.6959528 7.57300994,21.3178748 8.27985351,20.4764308 C8.27985351,20.4764308 12.9090906,14 20.0000003,14 C27.0909099,14 31.7201466,20.4764308 31.7201466,20.4764308 C32.4434487,21.3040472 32.42699,22.6821252 31.7201464,23.5235692 C31.7201464,23.5235692 27.0909088,30 20,30 Z M20,28 C23.3137085,28 26,25.3137085 26,22 C26,18.6862915 23.3137085,16 20,16 C16.6862915,16 14,18.6862915 14,22 C14,25.3137085 16.6862915,28 20,28 Z M29.7592566,13.8492086 C30.1186788,14.2685345 30.0701172,14.8998345 29.6507914,15.2592566 C29.2314655,15.6186788 28.6001655,15.5701172 28.2407434,15.1507914 C28.1770576,15.0764913 28.0228737,14.9190952 27.7789954,14.7057017 C27.3565983,14.3361043 26.8453875,13.9633464 26.246129,13.6137789 C24.51864,12.606077 22.4406617,12 20,12 C17.5593383,12 15.48136,12.606077 13.753871,13.6137789 C13.1546125,13.9633464 12.6434017,14.3361043 12.2210046,14.7057017 C11.9771263,14.9190952 11.8229424,15.0764913 11.7592566,15.1507914 C11.3998345,15.5701172 10.7685345,15.6186788 10.3492086,15.2592566 C9.92988278,14.8998345 9.88132125,14.2685345 10.2407434,13.8492086 C10.6840254,13.3320463 11.5169332,12.603252 12.746129,11.8862211 C14.76864,10.706423 17.1906617,10 20,10 C22.8093383,10 25.23136,10.706423 27.253871,11.8862211 C28.4830668,12.603252 29.3159746,13.3320463 29.7592566,13.8492086 Z" id="preview"></path>
  <path d="M28.2928932,11.2928932 L26.7118404,9.71184039 C26.3187018,9.3187018 26.4509752,9 26.990778,9 L31.5089948,9 C31.7801695,9 32,9.22788048 32,9.49100518 L32,14.009222 C32,14.5564136 31.6774139,14.6774139 31.2881596,14.2881596 L29.7071068,12.7071068 L22.7071068,19.7071068 C22.3165825,20.0976311 21.6834175,20.0976311 21.2928932,19.7071068 L18,16.4142136 L9.70710678,24.7071068 C9.31658249,25.0976311 8.68341751,25.0976311 8.29289322,24.7071068 C7.90236893,24.3165825 7.90236893,23.6834175 8.29289322,23.2928932 L17.2928932,14.2928932 C17.6834175,13.9023689 18.3165825,13.9023689 18.7071068,14.2928932 L22,17.5857864 L28.2928932,11.2928932 Z M10,27 L18,19 L20.5897496,21.5897496 C21.3686094,22.3686094 22.6277466,22.3722534 23.4118241,21.5881759 L29.2900534,15.7099466 C29.6821461,15.3178539 30,15.4446309 30,16.0008717 L30,29.0059397 C30,30.1072288 29.1017876,31 28.0092049,31 L11.9907951,31 C10.8913093,31 10,30.1122704 10,29 L10,27 Z" id="analytics" fill-rule="nonzero"></path>
  <path d="M20.4759578,26 C20.524685,25.9521109 20.5637563,25.8932865 20.5884972,25.8253114 L23.5124968,17.7916885 C23.6043113,17.5394303 23.4719096,17.260617 23.2171511,17.1678926 C22.9698432,17.0778798 22.6815784,17.2041149 22.5899349,17.4559034 L20.0893345,24.3262464 L17.5890607,17.4568006 C17.4972685,17.2046035 17.2165495,17.0762098 16.9616755,17.1689764 C16.7142554,17.2590299 16.574459,17.5410105 16.6660803,17.792738 L19.5893714,25.8244142 C19.6142065,25.8926481 19.6528714,25.9518195 19.7011124,26 L15.9953976,26 C15.4456547,26 15,25.5566468 15,24.9906311 L15,23.484451 C12.5880285,21.8699283 11,19.1204161 11,16 C11,11.0294373 15.0294373,7 20,7 C24.9705627,7 29,11.0294373 29,16 C29,19.1204161 27.4119715,21.8699283 25,23.484451 L25,24.9906311 C25,25.5480902 24.5443356,26 24.0046024,26 L20.4759578,26 Z M16,30.9999999 L16,28.9989566 C16,28.4472481 16.4530363,28 16.9970301,28 L23.0029699,28 C23.5536144,28 24,28.4426603 24,28.9989566 L24,31 C24,32.1045695 22.209139,33 20,33 C17.790861,33 16,32.1045695 16,31 Z" id="insights"></path>
  <path d="M21,15.0116281 L22.9990903,15.0038796 C23.5518775,15.0017369 23.6861267,14.6861267 23.2940879,14.2940879 L20.3549733,11.3549733 C20.158927,11.158927 19.8468974,11.1531026 19.6422642,11.3577358 L16.6710402,14.3289598 C16.2832429,14.7167571 16.4236702,15.0293661 16.9697808,15.0272493 L19,15.0193801 L19,20.0029699 C19,20.5469637 19.4477153,21 20,21 C20.5561352,21 21,20.5536144 21,20.0029699 L21,15.0116281 Z M27.1421356,27 L12.8578644,27 L10.8578644,25 L29.1421356,25 L27.1421356,27 Z M25.1421356,29 L22.8278826,31.314253 C21.2660862,32.8760494 18.732534,32.8746696 17.1721174,31.314253 L14.8578644,29 L25.1421356,29 Z M31.1333176,23.008818 C31.0894816,23.0030008 31.0447472,23 30.9993054,23 L9.00069463,23 C8.95526415,23 8.91054685,23.0030192 8.86673196,23.0088676 L8.68574701,22.8278826 C8.16144121,22.3035768 7.81330398,21.669755 7.6411787,21 L16.0044225,21 C16.555163,21 17,20.5522847 17,20 C17,19.4438648 16.5542648,19 16.0044225,19 L7.64124463,19 C7.81344398,18.3300563 8.16166371,17.6962007 8.68574701,17.1721174 L17.1721174,8.68574701 C18.7339138,7.12395056 21.267466,7.1253304 22.8278826,8.68574701 L31.314253,17.1721174 C31.8385588,17.6964232 32.186696,18.330245 32.3588213,19 L23.9955775,19 C23.444837,19 23,19.4477153 23,20 C23,20.5561352 23.4457352,21 23.9955775,21 L32.3587554,21 C32.186556,21.6699437 31.8383363,22.3037993 31.314253,22.8278826 L31.1333176,23.008818 Z" id="result-rankings"></path>
  <path d="M22.5361118,26 C23.2287348,24.8043973 24.5224479,24 26,24 C27.4797399,24 28.7718121,24.8055181 29.4637148,26 L29.9950534,26 C31.1023548,26 32,26.8877296 32,28 C32,29.1045695 31.1029738,30 29.9950534,30 L29.4638882,30 C28.7712652,31.1956027 27.4775521,32 26,32 C24.5202601,32 23.2281879,31.1944819 22.5362852,30 L10.0049466,30 C8.89764516,30 8,29.1122704 8,28 C8,26.8954305 8.89702623,26 10.0049466,26 L22.5361118,26 Z M10.5361118,18 C11.2287348,16.8043973 12.5224479,16 14,16 C15.4797399,16 16.7718121,16.8055181 17.4637148,18 L29.9950534,18 C31.1023548,18 32,18.8877296 32,20 C32,21.1045695 31.1029738,22 29.9950534,22 L17.4638882,22 C16.7712652,23.1956027 15.4775521,24 14,24 C12.5202601,24 11.2281879,23.1944819 10.5362852,22 L10.0049466,22 C8.89764516,22 8,21.1122704 8,20 C8,18.8954305 8.89702623,18 10.0049466,18 L10.5361118,18 Z M18.5361118,10 C19.2287348,8.80439726 20.5224479,8 22,8 C23.4797399,8 24.7718121,8.80551814 25.4637148,10 L29.9950534,10 C31.1023548,10 32,10.8877296 32,12 C32,13.1045695 31.1029738,14 29.9950534,14 L25.4638882,14 C24.7712652,15.1956027 23.4775521,16 22,16 C20.5202601,16 19.2281879,15.1944819 18.5362852,14 L10.0049466,14 C8.89764516,14 8,13.1122704 8,12 C8,10.8954305 8.89702623,10 10.0049466,10 L18.5361118,10 Z M20,12 C20,13.1122704 20.8954305,14 22,14 C23.1122704,14 24,13.1045695 24,12 C24,10.8877296 23.1045695,10 22,10 C20.8877296,10 20,10.8954305 20,12 Z M12,20 C12,21.1122704 12.8954305,22 14,22 C15.1122704,22 16,21.1045695 16,20 C16,18.8877296 15.1045695,18 14,18 C12.8877296,18 12,18.8954305 12,20 Z M24,28 C24,29.1122704 24.8954305,30 26,30 C27.1122704,30 28,29.1045695 28,28 C28,26.8877296 27.1045695,26 26,26 C24.8877296,26 24,26.8954305 24,28 Z" id="weights"></path>
  <path d="M31,16.5007488 C31,16.7764776 30.808238,17.1191196 30.5758945,17.2533014 C30.5758945,17.2533014 28,19 24,19 C21,19 19,15.9859562 16,16 C13,16.0140438 10.3047008,17.7736345 10.3047008,17.7736345 C9.58413446,18.1747951 9,17.8288679 9,16.9924316 L9,12.4992512 C9,12.2235224 9.19176197,11.8808804 9.42410553,11.7466986 C9.42410553,11.7466986 12,10 16,10 C19,10 21,13 24,13 C27,13 29.6952992,11.229824 29.6952992,11.229824 C30.4158655,10.8267534 31,11.1711321 31,12.0075684 L31,16.5007488 Z M31,26.5007488 C31,26.7764776 30.808238,27.1191196 30.5758945,27.2533014 C30.5758945,27.2533014 28,29 24,29 C21,29 19,25.9859562 16,26 C13,26.0140438 10.3047008,27.7736345 10.3047008,27.7736345 C9.58413446,28.1747951 9,27.8288679 9,26.9924316 L9,22.4992512 C9,22.2235224 9.19176197,21.8808804 9.42410553,21.7466986 C9.42410553,21.7466986 12,20 16,20 C19,20 21,23 24,23 C27,23 29.6952992,21.229824 29.6952992,21.229824 C30.4158655,20.8267534 31,21.1711321 31,22.0075684 L31,26.5007488 Z" id="synonyms"></path>
  <path d="M19,24.0000409 C18.4384685,24.0049496 18,24.4507661 18,25 C18,25.5561352 18.4519098,26 19.0093689,26 L20.9906311,26 C21.5566468,26 22,25.5522847 22,25 C22,24.4469837 21.5531447,24.004982 21,24.0000418 L21,16 L24.0454102,16 C24.0454102,16.546814 24.4932142,17 25.0456086,17 L24.9998016,17 C25.546665,17 26,16.5527519 26,16.0010434 L26,14.9989566 C26,14.4426603 25.5511774,14 24.9975267,14 L15.0024733,14 C14.455761,14 14,14.4472481 14,14.9989566 L14,16.0010434 C14,16.5573397 14.4471233,17 14.9986778,17 L15.0466103,17 C15.5913724,17 16.0452881,16.5522847 16.0452881,16 L19,16 L19,24.0000409 Z M8,11.990053 C8,9.78640758 9.78429328,8 11.990053,8 L28.009947,8 C30.2135924,8 32,9.78429328 32,11.990053 L32,28.009947 C32,30.2135924 30.2157067,32 28.009947,32 L11.990053,32 C9.78640758,32 8,30.2157067 8,28.009947 L8,11.990053 Z" id="content"></path>
  <path d="M20,33 C12.8202983,33 7,27.1797017 7,20 C7,12.8202983 12.8202983,7 20,7 C27.1797017,7 33,12.8202983 33,20 C33,27.1797017 27.1797017,33 20,33 Z M20,31 C26.0751322,31 31,26.0751322 31,20 C31,13.9248678 26.0751322,9 20,9 C13.9248678,9 9,13.9248678 9,20 C9,26.0751322 13.9248678,31 20,31 Z M20,29 C15.0294373,29 11,24.9705627 11,20 C11,15.0294373 15.0294373,11 20,11 C24.9705627,11 29,15.0294373 29,20 C29,24.9705627 24.9705627,29 20,29 Z M20,27 C23.8659932,27 27,23.8659932 27,20 C27,16.1340068 23.8659932,13 20,13 C16.1340068,13 13,16.1340068 13,20 C13,23.8659932 16.1340068,27 20,27 Z M20,25 C17.2385763,25 15,22.7614237 15,20 C15,17.2385763 17.2385763,15 20,15 C22.7614237,15 25,17.2385763 25,20 C25,22.7614237 22.7614237,25 20,25 Z" id="domains"></path>
  <path d="M15.7305782,24.3146439 C16.1992961,23.8873479 16.5,23.4412644 16.5,23 C16.5,21 14,18.5 14,17 C14,16 15,16 15,16 C15,16 15,14.1113728 15.8830037,12.453327 C14.8017361,12.7180934 14,13 14,13 C14,13 14.5,11.5 16,10.5 C17.5,9.5 19.5936225,9 20,9 C21,9 22.1709003,8 22.1709003,8 L22.5,10 C22.5,10 23.5,9.5 24,9.5 C23.981143,9.73287469 25,11 24,12 C23.9688322,12.0311678 23.9371207,12.060446 23.9048624,12.0879205 C25,13.8198634 25,16 25,16 C25,16 26,16 26,17 C26,18.5 23.5,21 23.5,23 C23.5,23.4412644 23.8007039,23.8873479 24.2694218,24.3146439 L24.2317787,24.3598156 C24.0908205,24.5289654 23.7563143,24.8300211 23.2355042,25.1425071 C22.3434785,25.6777225 21.2692202,26 20,26 C18.7307798,26 17.6565215,25.6777225 16.7644958,25.1425071 C16.2436857,24.8300211 15.9091795,24.5289654 15.7682213,24.3598156 L15.7305782,24.3146439 Z M14.0735189,25.4502726 L14.2317787,25.6401844 C14.5074872,25.9710346 15.0063143,26.4199789 15.7355042,26.8574929 C16.9268118,27.5722775 18.3525536,28 20,28 C21.6474464,28 23.0731882,27.5722775 24.2644958,26.8574929 C24.9936857,26.4199789 25.4925128,25.9710346 25.7682213,25.6401844 L25.9264811,25.4502726 C27.6564868,26.4123337 29.6773376,27.098999 29.6773376,27.098999 C30.9601086,27.5966081 32,29.114223 32,30.4991673 L32,30.9906311 C32,31.5480902 31.5525308,32 30.9993054,32 L9.00069463,32 C8.44802625,32 8,31.5566468 8,30.9906311 L8,30.4991673 C8,29.1189153 9.04226685,27.6112061 10.3226624,27.098999 C10.3226624,27.098999 12.3435132,26.4123337 14.0735189,25.4502726 Z" id="team"></path>
  <path d="M20,32 C13.372583,32 8,26.627417 8,20 C8,13.372583 13.372583,8 20,8 C26.627417,8 32,13.372583 32,20 C32,26.627417 26.627417,32 20,32 Z M18.0000002,16.0059191 L18,21 L15.0093689,21 C14.4433531,21 14.3187558,21.3187018 14.7119611,21.7118404 L19.6435982,26.6426411 C19.8405051,26.8395145 20.1609857,26.840005 20.3583161,26.6426411 L25.2882801,21.7118404 C25.6774684,21.3225861 25.5480899,21 24.9906309,21 L22,21 L22.0000002,16.0059191 C22.0000002,14.8865548 21.1045697,14 20.0000002,14 C18.8877299,14 18.0000002,14.8980806 18.0000002,16.0059191 Z" id="install"></path>
  <path d="M8,28 C8,26 9,25 10,25 C11,25 11.5,26 13,26 C14.5,26 16,25 16,23 C16,21 14.5,20 13,20 C11.5,20 10.9675827,21.0000012 10,21 C9,20.9999987 8,20 8,18 L8,14.9933977 C8,14.4447593 8.44494629,14 8.99339768,14 L12,14 C14,14 14.9999987,13 15,12 C15.0000013,11.0324173 14,10.5 14,9 C14,7.5 15,6 17,6 C19,6 20,7.5 20,9 C20,10.5 19,11 19,12 C19,13 20,14 22,14 L25.0066023,14 C25.5552407,14 26,14.4449463 26,14.9933977 L26,18 C26,20 27,20.9999987 28,21 C28.9675827,21.0000012 29.5,20 31,20 C32.5,20 34,21 34,23 C34,25 32.5,26 31,26 C29.5,26 29,25 28,25 C27,25 26,26 26,28 L26,31.0066023 C26,31.5552407 25.5550537,32 25.0066023,32 L8.99339768,32 C8.44475929,32 8,31.5550537 8,31.0066023 L8,28 Z" id="customize"></path>
  <path d="M30.955157,19 L31,19 L31,24.9970707 C31,25.5509732 30.5621186,26 29.9970707,26 L25.0029293,26 C24.4490268,26 24,25.5621186 24,24.9970707 L24,19.9999998 C24,17.790861 22.209139,16 20,16 C17.790861,16 16,17.790861 16,20 L16,24.9970707 C16,25.5509732 15.5621186,26 14.9970707,26 L10.0029293,26 C9.44902676,26 9,25.5621186 9,24.9970707 L9,19 L9.04484302,19 C9.55007179,13.3935 14.2619574,9 20,9 C25.7380426,9 30.4499282,13.3935 30.955157,19 Z M24,28.9989566 C24,28.4472481 24.4378814,28 25.0029293,28 L29.9970707,28 C30.5509732,28 31,28.4426603 31,28.9989566 L31,30.0010434 C31,30.5527519 30.5621186,31 29.9970707,31 L25.0029293,31 C24.4490268,31 24,30.5573397 24,30.0010434 L24,28.9989566 Z M9,28.9989566 C9,28.4472481 9.43788135,28 10.0029293,28 L14.9970707,28 C15.5509732,28 16,28.4426603 16,28.9989566 L16,30.0010434 C16,30.5527519 15.5621186,31 14.9970707,31 L10.0029293,31 C9.44902676,31 9,30.5573397 9,30.0010434 L9,28.9989566 Z" id="engage"></path>
  <path d="M12,10.7324356 L12,31.9993054 C12,32.5519738 11.5561352,33 11,33 C10.4477153,33 10,32.5525308 10,31.9993054 L10,10.7324356 C9.40219863,10.3866262 9,9.74028236 9,9 C9,7.8954305 9.8954305,7 11,7 C12.1045695,7 13,7.8954305 13,9 C13,9.74028236 12.5978014,10.3866262 12,10.7324356 Z M14,12 C14,12 16,11 18,11 C20,11 25,12.5 27,12.5 C29,12.5 31,12 31,12 L28.5,17.5 L31,23 C31,23 29,23.5 27,23.5 C25,23.5 20,22 18,22 C16,22 14,23 14,23 L14,12 Z" id="conversions"></path>
</svg>
