<svg width="24" height="24" viewBox="0 0 24 24" fill="none" xmlns="http://www.w3.org/2000/svg"><style>path{fill:#fff;} @media (prefers-color-scheme: dark) {path{fill:#000;}}</style><path fill-rule="evenodd" clip-rule="evenodd" d="M13.819 0.395357C12.2345 -0.237221 10.1477 -0.148838 8.6324 0.938486C7.0192 2.09605 6.32929 3.88724 6.50662 5.71393C6.52773 5.93132 6.5593 6.14294 6.59972 6.34916C6.2243 6.31075 5.85482 6.31687 5.54326 6.35487C5.42874 6.36884 5.29356 6.38044 5.14223 6.39342L5.1422 6.39342C4.4772 6.45048 3.5005 6.53427 2.59633 6.96353C2.57383 6.97421 2.52855 6.9945 2.46888 7.02124C2.29015 7.10132 1.98222 7.2393 1.76993 7.35055C1.46422 7.51074 0.950625 7.80699 0.594653 8.30064C-0.0397453 9.18041 -0.0696881 10.2181 0.0647955 11.0063C0.202601 11.8138 0.549315 12.6042 0.992972 13.2036C1.66547 14.1123 2.50346 14.5453 3.28138 14.8637C3.37135 14.9005 3.46463 14.9368 3.56079 14.9721C2.09842 16.4648 1.56914 18.5942 2.25505 20.6394C2.81039 22.2954 4.27584 22.8907 5.51391 22.9846C6.7056 23.075 7.94309 22.7546 8.82212 22.3325C9.7346 21.8944 10.7279 21.2063 11.3602 20.139C11.6036 19.7281 11.8203 19.2949 12.0086 18.8563C12.1864 19.2168 12.4284 19.6179 12.7733 19.9732C13.3165 20.5327 14.2524 21.3268 15.2205 21.6942C15.9317 21.9641 16.6378 21.8747 17.1114 21.7616C17.6105 21.6423 18.059 21.4458 18.3726 21.2899C19.1018 20.9274 19.8989 20.3391 20.4767 19.5767C21.0576 18.8103 21.5245 17.7065 21.1795 16.4609C20.8918 15.422 20.1147 14.7268 19.6916 14.3483L19.6484 14.3097L19.6132 14.2779C19.5026 14.178 19.3889 14.0792 19.2723 13.9819C20.4492 13.7559 21.6028 13.2693 22.5809 12.5056C23.0788 12.1169 23.7099 11.444 23.9305 10.5593C24.0331 10.1474 23.9988 9.78438 23.9718 9.57457C23.9626 9.5028 23.949 9.4151 23.9404 9.35933L23.9404 9.35929L23.9341 9.31833C23.9246 9.25461 23.9226 9.2314 23.9222 9.22362C23.8427 7.7881 22.9347 6.64183 22.0388 5.96176C21.6484 5.66548 21.1038 5.34453 20.4773 5.19582C19.9244 5.06457 19.4149 5.08837 19.1221 5.10204L19.122 5.10204C19.0683 5.10455 19.0219 5.10672 18.9838 5.10753C17.9496 5.12947 17.0775 5.45628 16.3492 5.81739C16.4287 5.46471 16.4872 5.12136 16.5288 4.80713C16.7926 2.81161 15.5727 1.09544 13.819 0.395357ZM6.36331 12.3754C6.32978 12.116 6.32163 11.8525 6.3402 11.5871C6.38731 10.9137 6.60306 10.2753 6.96041 9.70377C6.96004 9.70341 6.95967 9.70306 6.9593 9.7027C6.82497 9.5716 6.68263 9.44239 6.51918 9.29436C6.49108 9.28571 6.44793 9.27479 6.38889 9.26502C6.21321 9.23594 6.02387 9.23735 5.91419 9.25073C5.58171 9.29129 5.31663 9.31595 5.09513 9.33655C4.5538 9.38691 4.27278 9.41305 3.90458 9.58785C3.80871 9.63337 3.69507 9.68403 3.59864 9.72703L3.5075 9.76777C3.38249 9.82401 3.27731 9.87317 3.18471 9.9217C3.10993 9.96088 3.05821 9.99203 3.02424 10.0149C3.00056 10.0792 2.96514 10.2364 3.01471 10.5269C3.07722 10.8932 3.24522 11.2624 3.41734 11.4949C3.61929 11.7678 3.86657 11.9385 4.4379 12.1723C4.84783 12.3401 5.26027 12.4491 5.59282 12.4707C5.69965 12.4777 5.83234 12.4654 6.11306 12.4181L6.19922 12.4033C6.24883 12.3947 6.30384 12.3851 6.36331 12.3754ZM7.76964 15.5233C7.90741 15.4906 8.03769 15.4392 8.15755 15.372C8.64298 15.7582 9.21256 16.087 9.83362 16.2982C9.72124 16.4838 9.62938 16.6889 9.55402 16.9209C9.3556 17.5319 9.08694 18.1453 8.77114 18.6783C8.53986 19.0687 8.10886 19.4225 7.50178 19.714C7.00366 19.9532 6.30116 20.1172 5.74569 20.075C5.48117 20.055 5.32706 19.9942 5.2495 19.9453C5.19577 19.9115 5.14175 19.8644 5.09725 19.7317C4.72318 18.6163 5.07006 17.4884 5.98527 16.7506C6.34857 16.4577 6.75811 16.1923 7.23134 15.8857L7.2314 15.8856L7.23142 15.8856C7.30206 15.8398 7.37412 15.7931 7.44765 15.7453C7.49362 15.7154 7.53708 15.6854 7.57116 15.6616L7.64063 15.6127L7.66906 15.5927C7.70993 15.5639 7.74232 15.5415 7.76964 15.5233ZM14.7789 14.6785C14.5983 14.8695 14.4084 15.0555 14.2752 15.1859L14.2752 15.1859L14.2751 15.186C14.2065 15.2532 14.153 15.3057 14.1236 15.3364C14.1054 15.3554 14.0871 15.3741 14.0688 15.3926C14.116 15.5827 14.1441 15.7704 14.1625 15.9052C14.1744 15.9921 14.185 16.0787 14.194 16.1521L14.194 16.1526L14.1941 16.1529L14.1941 16.153L14.1946 16.1571C14.2042 16.2359 14.2119 16.2982 14.2196 16.3536C14.2228 16.3771 14.2257 16.396 14.2281 16.4108C14.2889 16.5609 14.3464 16.7131 14.3977 16.8486L14.4198 16.9072C14.4903 17.0931 14.5522 17.2537 14.6174 17.404C14.7528 17.7159 14.8603 17.8796 14.9443 17.966C15.3523 18.3864 15.8897 18.796 16.2506 18.9523C16.2807 18.9502 16.3301 18.9437 16.4002 18.9269C16.5871 18.8823 16.8061 18.7934 17.0151 18.6895C17.4073 18.4945 17.8167 18.1787 18.0724 17.8413C18.3251 17.5079 18.3186 17.3164 18.2925 17.2223C18.2773 17.1674 18.2394 17.0831 18.124 16.9466C17.9959 16.7952 17.8347 16.6482 17.5814 16.4193C17.1336 16.0147 16.664 15.6748 16.1757 15.4249C15.9736 15.3215 15.7717 15.2063 15.5998 15.1082L15.5997 15.1082L15.5996 15.1081L15.5996 15.1081L15.5905 15.1029C15.4059 14.9976 15.2478 14.9075 15.0915 14.8263C14.9698 14.7631 14.8666 14.7149 14.7789 14.6785ZM16.3892 11.3088C16.1839 11.3088 15.9881 11.3325 15.8365 11.3564C15.8274 11.2189 15.8145 11.0797 15.7963 10.9477C15.751 10.6193 15.6579 10.1779 15.4255 9.74463C16.0282 9.35753 16.6742 8.97521 17.3057 8.62858C18.0341 8.22874 18.5313 8.03621 19.0488 8.02523C19.147 8.02315 19.2421 8.01939 19.3178 8.01639L19.3621 8.01465C19.4506 8.01125 19.5102 8.00958 19.5625 8.00983C19.6512 8.01026 19.7065 8.01634 19.7705 8.03152C19.8537 8.05127 20.0182 8.12529 20.2027 8.2654C20.6768 8.62521 20.9186 9.06677 20.936 9.38114C20.9439 9.52328 20.9617 9.6508 20.9747 9.73841C20.9814 9.78298 20.9863 9.81455 20.9903 9.84023L20.9903 9.84032L20.9903 9.84058L20.9904 9.8408C20.9948 9.86934 20.9981 9.89062 21.0014 9.91448C20.9904 9.9333 20.9746 9.95756 20.9525 9.98683C20.8899 10.0697 20.8042 10.1554 20.7128 10.2268C20.121 10.6888 19.3861 10.9994 18.6023 11.1354C18.5149 11.1506 18.4065 11.1581 18.2037 11.1648L18.1442 11.1667C17.9691 11.1722 17.7124 11.1802 17.4543 11.2127C17.017 11.2677 16.6889 11.3088 16.3892 11.3088ZM12.457 7.81036C12.4636 7.79454 12.4702 7.77833 12.4769 7.76146C12.5142 7.66658 12.5564 7.55438 12.6026 7.43134C12.7309 7.08951 12.8906 6.66397 13.0678 6.29345C13.3022 5.8032 13.4741 5.10481 13.5629 4.43366C13.6342 3.89378 13.3286 3.35272 12.6867 3.09647C11.9222 2.79124 10.9614 2.88969 10.404 3.28969C9.72496 3.77692 9.39501 4.52376 9.48383 5.43868C9.54337 6.05204 9.75643 6.64598 10.1045 7.32533C10.1248 7.36494 10.1447 7.40463 10.1612 7.43771L10.1648 7.44497L10.1954 7.50584C10.7704 7.39898 11.4714 7.38982 12.1562 7.67426C12.2599 7.71737 12.3602 7.7628 12.457 7.81036ZM6.55377 9.30682L6.55066 9.30541C6.5528 9.30631 6.5538 9.3068 6.55377 9.30682ZM2.98627 10.0428C2.98624 10.0428 2.98693 10.0422 2.98841 10.0409L2.98627 10.0428Z" fill="black"/></svg>
