<svg xmlns="http://www.w3.org/2000/svg" fill="none" viewBox="0 0 24 24"><style>path{fill:#000;} @media (prefers-color-scheme:dark){path{fill:#fff}}</style><path fill="#000" fill-rule="evenodd" d="M13.863.406c-1.59-.65-3.683-.559-5.203.559-1.619 1.19-2.31 3.03-2.133 4.909.021.223.053.44.094.653a4.751 4.751 0 0 0-1.06.006c-.115.014-.25.026-.402.04-.668.058-1.647.144-2.554.585l-.128.06c-.18.082-.489.224-.701.338-.307.165-.822.47-1.18.977-.636.904-.666 1.97-.531 2.781.138.83.486 1.643.931 2.259.675.934 1.515 1.379 2.296 1.706.09.038.183.075.28.112-1.467 1.534-1.998 3.723-1.31 5.826.557 1.702 2.027 2.314 3.269 2.41 1.195.093 2.437-.236 3.319-.67.915-.45 1.912-1.158 2.546-2.255.244-.423.462-.868.65-1.32.179.371.422.784.768 1.15.545.575 1.484 1.391 2.455 1.769.714.277 1.422.185 1.897.07.5-.123.95-.325 1.265-.486.732-.372 1.531-.977 2.111-1.76.583-.789 1.051-1.923.705-3.204-.289-1.068-1.068-1.782-1.493-2.171l-.078-.073a11.35 11.35 0 0 0-.342-.304 7.692 7.692 0 0 0 3.319-1.518c.5-.4 1.132-1.091 1.353-2a2.77 2.77 0 0 0 .042-1.013 9.142 9.142 0 0 0-.032-.22V9.62l-.006-.042a1.356 1.356 0 0 1-.012-.097c-.08-1.476-.99-2.654-1.89-3.354-.39-.304-.937-.634-1.566-.787-.554-.135-1.065-.11-1.36-.096-.053.002-.1.005-.138.005-1.037.023-1.912.359-2.643.73.08-.362.138-.715.18-1.038.265-2.052-.96-3.816-2.718-4.536Zm-7.48 12.316a4.19 4.19 0 0 1-.023-.81 4.26 4.26 0 0 1 .622-1.937v-.001a16.448 16.448 0 0 0-.442-.42.997.997 0 0 0-.13-.03 1.807 1.807 0 0 0-.477-.015c-.334.042-.6.067-.822.089-.543.051-.825.078-1.194.258-.096.047-.21.099-.307.143l-.091.042c-.126.058-.231.108-.324.158-.075.04-.127.072-.161.096-.024.066-.06.228-.01.526.063.377.231.756.404.995.203.28.45.456 1.024.697.411.172.825.284 1.159.306.107.008.24-.005.521-.054l.087-.015.164-.028Zm1.41 3.235c.14-.033.27-.086.39-.155a5.607 5.607 0 0 0 1.681.952 3.07 3.07 0 0 0-.28.64 9.266 9.266 0 0 1-.785 1.807c-.232.401-.665.765-1.274 1.064-.5.246-1.204.415-1.761.371-.266-.02-.42-.083-.498-.133-.054-.035-.108-.083-.153-.22-.375-1.146-.027-2.306.89-3.064.365-.301.776-.574 1.251-.89h.002l.215-.143c.046-.031.09-.062.124-.087l.07-.05.028-.02.1-.072Zm7.033-.868c-.182.196-.372.387-.506.521a8.81 8.81 0 0 0-.206.212c.047.196.075.39.094.528.012.09.022.179.031.255l.001.004a12.75 12.75 0 0 0 .034.26c.06.155.118.311.17.45l.022.06c.07.192.133.357.198.512.136.32.244.489.328.577.41.433.948.854 1.31 1.014a.93.93 0 0 0 .15-.026 3.02 3.02 0 0 0 .617-.244c.394-.2.805-.525 1.061-.872.254-.343.247-.54.22-.636a.782.782 0 0 0-.168-.284 5.988 5.988 0 0 0-.544-.542 6.65 6.65 0 0 0-1.41-1.022c-.203-.106-.406-.225-.579-.325l-.009-.006c-.185-.108-.344-.2-.5-.284a4.058 4.058 0 0 0-.314-.152Zm1.615-3.464c-.206 0-.403.024-.555.049a6.199 6.199 0 0 0-.04-.42 3.736 3.736 0 0 0-.372-1.237 32.151 32.151 0 0 1 1.887-1.147c.73-.411 1.23-.61 1.748-.62.099-.002.194-.006.27-.01l.045-.001c.088-.004.148-.005.2-.005.09 0 .145.006.21.022.083.02.248.096.433.24.476.37.718.824.736 1.147.007.147.025.278.038.368l.016.104.011.077a.79.79 0 0 1-.049.074 1.368 1.368 0 0 1-.24.247 4.716 4.716 0 0 1-2.118.934 2.96 2.96 0 0 1-.4.03l-.06.002c-.175.006-.432.014-.691.047-.439.057-.768.099-1.069.099Zm-3.945-3.596.02-.05c.038-.098.08-.213.127-.34.128-.351.288-.789.466-1.17.235-.504.408-1.221.497-1.911.071-.555-.235-1.112-.88-1.375-.766-.314-1.73-.213-2.29.199-.68.5-1.011 1.268-.922 2.209.06.63.273 1.24.623 1.94l.056.114.004.008.03.063c.577-.11 1.28-.12 1.967.173.104.044.205.091.302.14Zm.283 4.845c.021-.026.04-.05.055-.071a1.503 1.503 0 0 1-.2-.28c-.635-1.136-.964-1.597-1.615-1.874l.004.002h-.002c-.015-.003-.106-.02-.298.026a1.948 1.948 0 0 0-.629.29c-.528.375-.718.803-.741 1.148-.024.345.105.791.575 1.23.406.38.87.603 1.243.655.316.043.565-.026.804-.282.108-.116.24-.248.35-.358l.115-.115c.143-.145.253-.263.34-.371ZM6.575 9.567l-.004-.001.004.001Zm-3.58.757.003-.002-.002.002Z" clip-rule="evenodd"/></svg>
