<svg xmlns="http://www.w3.org/2000/svg" fill="none" viewBox="0 0 24 24"><style>@media (prefers-color-scheme:dark){.flower{fill:#ffffff}}</style><path fill="#000000" fill-rule="evenodd" d="M20.202 14.592a4.912 4.912 0 0 1-.115.036l.072.096a5 5 0 1 1-8.16 5.78 5 5 0 1 1-8.088-5.877 5 5 0 1 1 3.09-9.508L7 5.001a5 5 0 1 1 9.998.12l.114-.038a5 5 0 1 1 3.09 9.51Zm-3.213-2.261A3 3 0 1 0 15.842 8.8a4.98 4.98 0 0 1 1.147 3.53Zm-3.763 4.518a5.009 5.009 0 0 0 3.005-2.184 3 3 0 1 1-3.005 2.183ZM7.77 14.665a5.009 5.009 0 0 0 3.003 2.183 3 3 0 1 1-3.003-2.183ZM8.157 8.8a4.98 4.98 0 0 0-1.146 3.53A3 3 0 1 1 8.158 8.8Zm5.7-1.444A4.987 4.987 0 0 0 12 7c-.656 0-1.283.126-1.857.356a3 3 0 1 1 3.714 0Z" class="flower" clip-rule="evenodd"/></svg>
