<svg viewBox="0 0 24 24" fill="none" xmlns="http://www.w3.org/2000/svg"><style>path{fill:#121113;} @media (prefers-color-scheme: dark) {path{fill:#FDFCFD;}}</style><path fill-rule="evenodd" clip-rule="evenodd" d="M13.4262 0.554837C12.6369 0.311806 11.8062 0.312211 11.168 0.312523L11.101 0.312545C10.3453 0.312545 9.19449 0.55879 8.50312 1.47575C7.6539 2.60207 7.27957 4.31085 7.45399 5.67205C7.45991 5.71826 7.46638 5.76434 7.47338 5.81026C6.52467 5.35141 5.52059 5.36887 4.6141 5.6305C3.704 5.89317 2.84958 6.31486 2.07219 6.93456C1.233 7.60352 0.692699 8.49269 0.632916 9.7236C0.5915 10.5763 0.759761 11.7572 1.32919 12.6179C1.98033 13.602 3.08045 13.9825 3.73747 14.2098L3.84166 14.2459C4.27797 14.3985 4.72514 14.5323 5.18261 14.6376C4.94953 14.7978 4.7188 14.9654 4.49446 15.1417C3.56845 15.8696 2.80138 16.8604 2.31203 17.9848L2.29248 18.0296C2.03819 18.6122 1.53883 19.7564 1.99954 20.9314C2.46566 22.1203 3.6087 22.725 4.48887 22.9053C5.51371 23.1152 6.45508 22.9496 7.32142 22.6685C7.83835 22.5007 8.278 22.242 8.65145 21.9952C8.84972 21.8641 8.99915 21.759 9.13711 21.662L9.13725 21.6619L9.13737 21.6618L9.13746 21.6617C9.30567 21.5434 9.45688 21.437 9.65884 21.3102C10.0635 21.0562 10.3957 20.7158 10.6592 20.4099C10.8405 20.1994 11.0251 19.9608 11.1792 19.7616L11.1792 19.7615L11.1801 19.7605L11.1808 19.7595C11.2413 19.6813 11.2971 19.6092 11.3462 19.5472C11.4854 19.3714 11.656 19.1489 11.8115 18.8867C12.2071 19.3777 12.6508 19.8278 13.1286 20.2223C14.2155 21.12 15.6699 22.0081 17.3717 21.8877C18.355 21.8181 19.2803 21.3675 19.994 20.8495C20.2868 20.637 20.5174 20.368 20.6687 20.1855C21.0052 19.7793 21.3668 19.3164 21.6706 18.79C21.9384 18.3259 22.1226 17.8122 22.1618 17.2492C22.2013 16.6821 22.0891 16.1309 21.8546 15.6036C21.3702 14.5141 20.4471 13.7326 19.6497 13.2444C19.315 13.0394 18.9347 12.8153 18.5202 12.6172C18.5431 12.6041 18.566 12.591 18.589 12.5781C18.6834 12.5247 18.7811 12.4701 18.8812 12.4142L18.8816 12.4139C19.5661 12.0314 20.3656 11.5846 21.0544 11.0074C21.7676 10.4098 22.429 9.6682 22.9109 8.77045C23.1487 8.32737 23.5321 7.56507 23.3726 6.63847C23.162 5.41565 22.1275 4.95828 21.5683 4.79556C20.8382 4.58311 19.9324 4.35608 19.019 4.39882C18.3632 4.42951 17.4561 4.48277 16.6378 4.90194C16.4983 4.97338 16.3591 5.05178 16.2215 5.13706C16.2141 5.07321 16.2046 5.00935 16.1927 4.94566C16.0838 4.36324 15.8429 3.79256 15.6704 3.38391L15.6312 3.29107C15.5855 3.18217 15.548 3.07755 15.5002 2.94452L15.5002 2.94445L15.5001 2.9444L15.5001 2.94435L15.5001 2.94427L15.4999 2.94382L15.4996 2.94298C15.4816 2.89287 15.4622 2.83874 15.4403 2.77883C15.3681 2.5808 15.274 2.33482 15.1438 2.09003C14.8261 1.49262 14.2442 0.806708 13.4262 0.554837ZM15.9998 8.25801C16.2964 8.81912 16.2696 9.43305 16.1932 9.85592C16.1058 10.3394 15.9169 10.7938 15.7205 11.1264C15.3563 11.7432 14.8754 12.2491 14.4625 12.6524L14.4433 12.6711C14.2123 12.8969 13.8507 13.2503 13.396 13.4756C12.5562 13.8916 11.7462 13.673 11.1657 13.3789C10.6665 13.126 10.4536 12.4882 10.69 11.9543C10.9264 11.4205 11.5227 11.1927 12.0218 11.4456C12.1731 11.5222 12.2888 11.5554 12.3731 11.564C12.4479 11.5716 12.502 11.561 12.5554 11.5345C12.6992 11.4633 12.8513 11.3292 13.1139 11.0727C13.4979 10.6977 13.814 10.3491 14.0295 9.98413C14.1112 9.84585 14.1955 9.63846 14.2295 9.4501C14.2392 9.39641 14.2429 9.35651 14.244 9.32826L14.2413 9.32697C14.1722 9.29364 14.0707 9.26247 13.9373 9.2373C13.478 9.15059 13.0804 9.12842 12.7733 9.20292C12.2577 9.32807 11.7269 9.61816 11.1731 9.99249C10.807 10.24 10.5057 10.5482 10.3447 10.8506C10.1365 11.2416 10.05 11.8557 10.069 12.5091C10.086 13.0957 10.2038 13.6777 10.4196 14.1164C10.7439 14.7754 11.5307 15.3095 12.3287 15.4267C12.6377 15.472 13.0404 15.4156 13.3715 15.2518C13.7006 15.0891 13.8354 14.8898 13.8736 14.7265C14.0076 14.1534 14.5505 13.805 15.0863 13.9483C15.6221 14.0915 15.9478 14.6723 15.8139 15.2453C15.583 16.2331 14.8908 16.8573 14.2109 17.1935C13.9318 17.3316 13.634 17.4328 13.3321 17.4971C13.6382 17.8762 13.9819 18.2244 14.3509 18.5292C15.3095 19.3208 16.2729 19.8216 17.2397 19.7532C17.7598 19.7164 18.3462 19.4602 18.871 19.0793C18.9416 19.0281 19.0325 18.9349 19.172 18.7666C19.4862 18.3874 19.7566 18.0339 19.9687 17.6663C20.1049 17.4304 20.1567 17.2436 20.1674 17.0902C20.1778 16.9409 20.1539 16.7595 20.0485 16.5224C19.8132 15.9933 19.2866 15.4869 18.6562 15.1009C17.9137 14.6463 17.2413 14.2954 16.5949 14.2089C16.1225 14.1458 15.7685 13.7399 15.7236 13.2537C15.68 13.1961 15.6414 13.1327 15.6087 13.064C15.3585 12.5374 15.5548 11.8935 16.0472 11.6259C16.3021 11.4873 16.5558 11.3369 16.824 11.1763L16.922 11.1175C17.1565 10.9768 17.4037 10.8285 17.6545 10.6867C17.7602 10.627 17.8643 10.5686 17.9667 10.5112L17.9672 10.5109C18.6664 10.1188 19.2877 9.77034 19.821 9.32346C20.3797 8.85527 20.8501 8.31331 21.1764 7.70542C21.3939 7.3001 21.4211 7.13986 21.4076 7.03842C21.4031 7.03363 21.3958 7.02662 21.385 7.0177C21.3264 6.96971 21.2144 6.90953 21.0433 6.85971C20.3383 6.65458 19.6885 6.50873 19.1064 6.53596C18.4235 6.56792 17.9056 6.62439 17.5016 6.83132C16.8526 7.16373 16.302 7.67192 15.9998 8.25801ZM10.4674 16.9932C9.72111 16.5727 9.05544 15.937 8.6498 15.1127C8.63307 15.0787 8.61675 15.0445 8.60084 15.01C8.40222 15.1167 8.2182 15.2167 8.0146 15.3404C7.91136 15.4031 7.80915 15.4649 7.70796 15.5261L7.70795 15.5261C6.97629 15.9685 6.2986 16.3783 5.67887 16.8655C5.01871 17.3844 4.47023 18.0948 4.12519 18.8876C3.98375 19.2126 3.88476 19.4612 3.83728 19.6874C3.79369 19.8949 3.80902 20.0151 3.84393 20.1042C3.95141 20.3783 4.34173 20.6971 4.86502 20.8043C5.45762 20.9257 6.05038 20.8455 6.7408 20.6214C7.01684 20.5319 7.28669 20.3825 7.60013 20.1754C7.6937 20.1135 7.81866 20.0267 7.956 19.9313C8.18073 19.7751 8.43862 19.5958 8.64644 19.4654C8.80386 19.3665 8.98033 19.2018 9.18826 18.9604C9.33279 18.7926 9.45823 18.6303 9.59591 18.4521L9.59595 18.4521L9.59636 18.4516L9.5966 18.4513C9.66659 18.3607 9.73975 18.266 9.82021 18.1644C10.0229 17.9085 10.1477 17.7241 10.2156 17.5581C10.2805 17.3994 10.3568 17.2339 10.4198 17.097L10.4199 17.0969L10.4674 16.9932ZM8.26563 8.72692C8.53122 8.89152 8.77139 9.04328 8.9947 9.20178C8.85102 9.38351 8.71941 9.58035 8.60671 9.79204C8.12811 10.691 8.04678 11.7771 8.06992 12.5754C8.07096 12.6111 8.07226 12.6471 8.07384 12.6833C8.01868 12.6887 7.96557 12.6942 7.91499 12.6994L7.8966 12.7013C7.64667 12.7272 7.4529 12.7465 7.26699 12.7465C6.33671 12.7465 5.40872 12.5433 4.46314 12.2126C3.65402 11.9297 3.19466 11.7342 2.96173 11.3821C2.73916 11.0457 2.60284 10.3984 2.63022 9.83458C2.65461 9.3324 2.83094 8.99766 3.26734 8.64979C3.82455 8.20561 4.44557 7.89484 5.13515 7.69582C5.77375 7.5115 6.33203 7.55698 6.8006 7.84186C7.00927 7.96872 7.20956 8.08862 7.40652 8.20652C7.69475 8.37905 7.97584 8.54731 8.26563 8.72692ZM13.8281 7.05886C13.8394 7.02607 13.8505 6.99515 13.861 6.96628C13.9024 6.85281 13.9328 6.77486 13.9574 6.7116L13.9574 6.71156L13.9575 6.7115C13.9898 6.62851 14.0123 6.57078 14.0368 6.49127C14.2038 5.95048 14.2732 5.588 14.2315 5.36519C14.1687 5.02922 14.015 4.66331 13.8138 4.18415L13.8068 4.16754C13.7361 3.99904 13.6705 3.81614 13.6179 3.66941C13.6033 3.62874 13.5897 3.59085 13.5773 3.55681C13.5121 3.37818 13.4607 3.25167 13.4054 3.14768C13.2433 2.84293 13.0202 2.65587 12.8729 2.61054C12.3755 2.45738 11.8075 2.45173 11.101 2.45173C10.6008 2.45173 10.1964 2.63772 10.0599 2.81863C9.58983 3.44215 9.32833 4.54548 9.43547 5.38158C9.52708 6.09655 9.83306 6.76085 10.3052 7.28184L10.3756 7.35926L10.3756 7.35927L10.3756 7.35928C10.4858 7.48017 10.6147 7.62167 10.7471 7.77954C11.2237 7.50406 11.757 7.25602 12.3308 7.11676C12.8464 6.99163 13.3698 7.00288 13.8281 7.05886Z" fill="white"/></svg>
