<svg xmlns="http://www.w3.org/2000/svg" viewBox="0 0 440 440"><filter id="b"><feGaussianBlur stdDeviation="12" /></filter><path fill="#344843" d="M0 0h440v440H0z"/><g filter="url(#b)" transform="translate(.9 .9) scale(1.71875)" fill-opacity=".5"><ellipse fill="#fff" cx="125" cy="127" rx="94" ry="36"/><path fill="#fff" d="M48.5 101h165v54h-165z"/><ellipse rx="1" ry="1" transform="matrix(-2.37032 254.01521 -28.70574 -.26786 238 97.9)"/><ellipse rx="1" ry="1" transform="matrix(-42.61283 -.37188 2.20025 -252.12407 4.3 110)"/><ellipse fill="#18fd69" rx="1" ry="1" transform="matrix(-23.96193 .96297 -1.74933 -43.52907 129.4 47.5)"/><ellipse cx="126" cy="241" rx="255" ry="44"/><ellipse rx="1" ry="1" transform="matrix(20.61947 29.87337 -97.69365 67.431 46.8 22.3)"/><ellipse rx="1" ry="1" transform="matrix(14.0856 -21.04083 114.4661 76.62838 196.2 22)"/></g></svg>