<svg xmlns="http://www.w3.org/2000/svg" viewBox="0 0 500 500"><filter id="c"><feGaussianBlur stdDeviation="55" /></filter><path fill="#aea39e" d="M0 0h500v500H0z"/><g filter='url(#c)' fill-opacity='.5'><ellipse fill="#65442e" fill-opacity=".5" rx="1" ry="1" transform="matrix(-6.47311 -119.52262 455.31973 -24.65924 171.8 449.1)"/><ellipse fill="#ffeff0" fill-opacity=".5" rx="1" ry="1" transform="rotate(97.3 118 287.7) scale(130.54563 156.72507)"/><ellipse fill="#efe6eb" fill-opacity=".5" rx="1" ry="1" transform="matrix(64.88189 -140.899 112.13604 51.63697 107.2 190.8)"/><ellipse fill="#5f3b31" fill-opacity=".5" rx="1" ry="1" transform="matrix(17.12378 -102.32767 44.12993 7.38482 240.3 325.8)"/><ellipse fill="#001705" fill-opacity=".5" rx="1" ry="1" transform="matrix(81.67523 18.54324 -11.09707 48.87794 53.5 491.2)"/><path fill="#c4a698" fill-opacity=".5" d="M530.3 422.9l-560.6-35.2 334 123z"/><ellipse fill="#8acad6" fill-opacity=".5" rx="1" ry="1" transform="matrix(1.51182 67.46712 -497.92188 11.15754 271.6 68.8)"/><path fill="#e5e3eb" fill-opacity=".5" d="M12.7 432.6L-1 381.8l166 43z"/></g></svg>