<?xml version="1.0" encoding="UTF-8" standalone="no"?>
<svg width="202px" height="55px" viewBox="0 0 202 55" version="1.1" xmlns="http://www.w3.org/2000/svg" xmlns:xlink="http://www.w3.org/1999/xlink">
    <!-- Generator: Sketch 3.8.3 (29802) - http://www.bohemiancoding.com/sketch -->
    <title>timeline-2013-icon</title>
    <desc>Created with Sketch.</desc>
    <defs>
        <rect id="path-1" x="14" y="5" width="62" height="38" rx="1"></rect>
        <mask id="mask-2" maskContentUnits="userSpaceOnUse" maskUnits="objectBoundingBox" x="0" y="0" width="62" height="38" fill="white">
            <use xlink:href="#path-1"></use>
        </mask>
        <rect id="path-3" x="30" y="9" width="30" height="6" rx="1"></rect>
        <mask id="mask-4" maskContentUnits="userSpaceOnUse" maskUnits="objectBoundingBox" x="0" y="0" width="30" height="6" fill="white">
            <use xlink:href="#path-3"></use>
        </mask>
        <rect id="path-5" x="32" y="17" width="26" height="4" rx="1"></rect>
        <mask id="mask-6" maskContentUnits="userSpaceOnUse" maskUnits="objectBoundingBox" x="0" y="0" width="26" height="4" fill="white">
            <use xlink:href="#path-5"></use>
        </mask>
        <rect id="path-7" x="32" y="17" width="26" height="4" rx="1"></rect>
        <mask id="mask-8" maskContentUnits="userSpaceOnUse" maskUnits="objectBoundingBox" x="0" y="0" width="26" height="4" fill="white">
            <use xlink:href="#path-7"></use>
        </mask>
        <rect id="path-9" x="32" y="23" width="26" height="4" rx="1"></rect>
        <mask id="mask-10" maskContentUnits="userSpaceOnUse" maskUnits="objectBoundingBox" x="0" y="0" width="26" height="4" fill="white">
            <use xlink:href="#path-9"></use>
        </mask>
        <rect id="path-11" x="32" y="29" width="26" height="4" rx="1"></rect>
        <mask id="mask-12" maskContentUnits="userSpaceOnUse" maskUnits="objectBoundingBox" x="0" y="0" width="26" height="4" fill="white">
            <use xlink:href="#path-11"></use>
        </mask>
        <rect id="path-13" x="32" y="35" width="26" height="4" rx="1"></rect>
        <mask id="mask-14" maskContentUnits="userSpaceOnUse" maskUnits="objectBoundingBox" x="0" y="0" width="26" height="4" fill="white">
            <use xlink:href="#path-13"></use>
        </mask>
        <rect id="path-15" x="0" y="5" width="20" height="26"></rect>
        <mask id="mask-16" maskContentUnits="userSpaceOnUse" maskUnits="objectBoundingBox" x="0" y="0" width="20" height="26" fill="white">
            <use xlink:href="#path-15"></use>
        </mask>
        <rect id="path-17" x="4" y="10" width="12" height="4" rx="1"></rect>
        <mask id="mask-18" maskContentUnits="userSpaceOnUse" maskUnits="objectBoundingBox" x="0" y="0" width="12" height="4" fill="white">
            <use xlink:href="#path-17"></use>
        </mask>
        <rect id="path-19" x="4" y="15" width="12" height="3" rx="1"></rect>
        <mask id="mask-20" maskContentUnits="userSpaceOnUse" maskUnits="objectBoundingBox" x="0" y="0" width="12" height="3" fill="white">
            <use xlink:href="#path-19"></use>
        </mask>
        <rect id="path-21" x="4" y="19" width="12" height="3" rx="1"></rect>
        <mask id="mask-22" maskContentUnits="userSpaceOnUse" maskUnits="objectBoundingBox" x="0" y="0" width="12" height="3" fill="white">
            <use xlink:href="#path-21"></use>
        </mask>
        <rect id="path-23" x="4" y="23" width="12" height="3" rx="1"></rect>
        <mask id="mask-24" maskContentUnits="userSpaceOnUse" maskUnits="objectBoundingBox" x="0" y="0" width="12" height="3" fill="white">
            <use xlink:href="#path-23"></use>
        </mask>
        <rect id="path-25" x="5" y="3" width="44" height="36" rx="1"></rect>
        <mask id="mask-26" maskContentUnits="userSpaceOnUse" maskUnits="objectBoundingBox" x="0" y="0" width="44" height="36" fill="white">
            <use xlink:href="#path-25"></use>
        </mask>
        <rect id="path-27" x="17" y="7" width="20" height="4" rx="1"></rect>
        <mask id="mask-28" maskContentUnits="userSpaceOnUse" maskUnits="objectBoundingBox" x="0" y="0" width="20" height="4" fill="white">
            <use xlink:href="#path-27"></use>
        </mask>
        <rect id="path-29" x="19" y="13" width="16" height="4" rx="1"></rect>
        <mask id="mask-30" maskContentUnits="userSpaceOnUse" maskUnits="objectBoundingBox" x="0" y="0" width="16" height="4" fill="white">
            <use xlink:href="#path-29"></use>
        </mask>
        <rect id="path-31" x="19" y="19" width="16" height="4" rx="1"></rect>
        <mask id="mask-32" maskContentUnits="userSpaceOnUse" maskUnits="objectBoundingBox" x="0" y="0" width="16" height="4" fill="white">
            <use xlink:href="#path-31"></use>
        </mask>
        <rect id="path-33" x="19" y="25" width="16" height="4" rx="1"></rect>
        <mask id="mask-34" maskContentUnits="userSpaceOnUse" maskUnits="objectBoundingBox" x="0" y="0" width="16" height="4" fill="white">
            <use xlink:href="#path-33"></use>
        </mask>
        <rect id="path-35" x="19" y="31" width="16" height="4" rx="1"></rect>
        <mask id="mask-36" maskContentUnits="userSpaceOnUse" maskUnits="objectBoundingBox" x="0" y="0" width="16" height="4" fill="white">
            <use xlink:href="#path-35"></use>
        </mask>
    </defs>
    <g id="Case-Studies" stroke="none" stroke-width="1" fill="none" fill-rule="evenodd">
        <g id="Wintr.mx" transform="translate(-408.000000, -2477.000000)">
            <g id="Timeline" transform="translate(273.000000, 1935.000000)">
                <g id="2013" transform="translate(45.000000, 543.000000)">
                    <g id="timeline-2013-icon" transform="translate(91.000000, 0.000000)">
                        <g id="Macbook">
                            <path d="M81,47 L81,4.00989318 C81,1.79405245 79.2094011,0 77.0005854,0 L12.9994146,0 C10.7977484,0 9,1.79529033 9,4.00989318 L9,47 L0.995349011,47 C0.441796035,47 1.66533454e-15,47.4435864 1.66533454e-15,47.990778 L1.66533454e-15,51.0020869 C1.66533454e-15,52.1017394 0.898100948,53 2.00596461,53 L87.9940354,53 C89.1092384,53 90,52.1055038 90,51.0020869 L90,47.990778 C90,47.4509752 89.5543671,47 89.004651,47 L81,47 Z" id="Rectangle-66" stroke="#C5C8D6" stroke-width="2" stroke-linecap="square" fill="#F6F8F9"></path>
                            <use id="Rectangle-70" stroke="#C5C8D6" mask="url(#mask-2)" stroke-width="2" stroke-linecap="square" fill="#FFFFFF" xlink:href="#path-1"></use>
                            <use id="Rectangle-72" stroke="#C5C8D6" mask="url(#mask-4)" stroke-width="2" stroke-linecap="square" fill="#FFFFFF" xlink:href="#path-3"></use>
                            <use id="Rectangle-72" stroke="#C5C8D6" mask="url(#mask-6)" stroke-width="2" stroke-linecap="square" fill="#FFFFFF" xlink:href="#path-5"></use>
                            <use id="Rectangle-72" stroke="#C5C8D6" mask="url(#mask-8)" stroke-width="2" stroke-linecap="square" fill="#FFFFFF" xlink:href="#path-7"></use>
                            <use id="Rectangle-72" stroke="#C5C8D6" mask="url(#mask-10)" stroke-width="2" stroke-linecap="square" fill="#FFFFFF" xlink:href="#path-9"></use>
                            <use id="Rectangle-72" stroke="#C5C8D6" mask="url(#mask-12)" stroke-width="2" stroke-linecap="square" fill="#FFFFFF" xlink:href="#path-11"></use>
                            <use id="Rectangle-72" stroke="#C5C8D6" mask="url(#mask-14)" stroke-width="2" stroke-linecap="square" fill="#FFFFFF" xlink:href="#path-13"></use>
                            <rect id="Rectangle-94" fill="#C5C8D6" x="8" y="47" width="72" height="1"></rect>
                            <polyline id="Path-20" stroke="#D6D6D6" stroke-linecap="round" stroke-linejoin="round" points="69 21 72 24 69 27"></polyline>
                            <polyline id="Path-20" stroke="#D6D6D6" stroke-linecap="round" stroke-linejoin="round" transform="translate(19.500000, 24.000000) scale(-1, 1) translate(-19.500000, -24.000000) " points="18 21 21 24 18 27"></polyline>
                        </g>
                        <g id="iPhone" transform="translate(180.000000, 17.000000)" stroke="#C5C8D6" stroke-width="2" stroke-linecap="square">
                            <rect id="Rectangle-90" fill="#F6F8F9" x="0" y="0" width="20" height="36" rx="2"></rect>
                            <use id="Rectangle-91" mask="url(#mask-16)" fill="#FFFFFF" xlink:href="#path-15"></use>
                            <use id="Rectangle-72" mask="url(#mask-18)" fill="#FFFFFF" xlink:href="#path-17"></use>
                            <use id="Rectangle-72" mask="url(#mask-20)" fill="#FFFFFF" xlink:href="#path-19"></use>
                            <use id="Rectangle-72" mask="url(#mask-22)" fill="#FFFFFF" xlink:href="#path-21"></use>
                            <use id="Rectangle-72" mask="url(#mask-24)" fill="#FFFFFF" xlink:href="#path-23"></use>
                        </g>
                        <g id="iPad" transform="translate(108.000000, 11.000000)">
                            <rect id="Rectangle-90" stroke="#C5C8D6" stroke-width="2" stroke-linecap="square" fill="#F6F8F9" x="0" y="0" width="54" height="42" rx="4"></rect>
                            <use id="Rectangle-91" stroke="#C5C8D6" mask="url(#mask-26)" stroke-width="2" stroke-linecap="square" fill="#FFFFFF" xlink:href="#path-25"></use>
                            <use id="Rectangle-72" stroke="#C5C8D6" mask="url(#mask-28)" stroke-width="2" stroke-linecap="square" fill="#FFFFFF" xlink:href="#path-27"></use>
                            <use id="Rectangle-72" stroke="#C5C8D6" mask="url(#mask-30)" stroke-width="2" stroke-linecap="square" fill="#FFFFFF" xlink:href="#path-29"></use>
                            <use id="Rectangle-72" stroke="#C5C8D6" mask="url(#mask-32)" stroke-width="2" stroke-linecap="square" fill="#FFFFFF" xlink:href="#path-31"></use>
                            <use id="Rectangle-72" stroke="#C5C8D6" mask="url(#mask-34)" stroke-width="2" stroke-linecap="square" fill="#FFFFFF" xlink:href="#path-33"></use>
                            <use id="Rectangle-72" stroke="#C5C8D6" mask="url(#mask-36)" stroke-width="2" stroke-linecap="square" fill="#FFFFFF" xlink:href="#path-35"></use>
                            <polyline id="Path-20" stroke="#D6D6D6" stroke-linecap="round" stroke-linejoin="round" transform="translate(9.000000, 21.000000) scale(-1, 1) translate(-9.000000, -21.000000) " points="8 19 10 21 8 23"></polyline>
                            <polyline id="Path-20" stroke="#D6D6D6" stroke-linecap="round" stroke-linejoin="round" points="44 19 46 21 44 23"></polyline>
                        </g>
                    </g>
                </g>
            </g>
        </g>
    </g>
</svg>