<svg xmlns="http://www.w3.org/2000/svg" viewBox="0 0 1080 1350"><filter id="b"><feGaussianBlur stdDeviation="6" /></filter><path fill="#e5dfd8" d="M0 0h1075v1350H0z"/><g filter="url(#b)" transform="translate(2.6 2.6) scale(5.27344)" fill-opacity=".5"><ellipse fill="#936847" rx="1" ry="1" transform="rotate(177 57.9 38.5) scale(25.89109 62.59058)"/><path fill="#967012" d="M64 229l72-19-80-71z"/><path fill="#753a35" d="M65 32h73v25H65z"/><ellipse fill="#fff" cx="8" cy="40" rx="41" ry="159"/><path fill="#00275d" d="M153.7 139.2l9.8-6.8-2.8 54.2-10-.2z"/><ellipse fill="#fff" cx="179" cy="62" rx="42" ry="85"/><ellipse fill="#053771" rx="1" ry="1" transform="rotate(169.1 43 81) scale(2.94342 33.91196)"/><path fill="#a60000" d="M125.7 66.7l22-47.6-13.6-4-9 12.5z"/><ellipse fill="#ddecff" rx="1" ry="1" transform="matrix(-8.96622 -20.86535 35.94542 -15.4464 105 176.1)"/><ellipse fill="#fff" rx="1" ry="1" transform="matrix(-84.3974 13.8206 -4.507 -27.5226 141.7 247)"/><path fill="#745a00" d="M124.7 66.8L150 89.5l-8.7 9.7L116 76.5z"/><path fill="#a46700" d="M125.4 205l-23.1-5.3L45.6 223 152 213z"/><path fill="#000745" d="M181 173l-15 40 16-17z"/><path fill="#6a6627" d="M120 110l14-62-47 84z"/><path fill="#d7bfbe" d="M86 7h37v70H86z"/><ellipse fill="#fff" rx="1" ry="1" transform="rotate(-133.9 40.3 25.5) scale(135.83115 18.57058)"/></g></svg>