<svg xmlns="http://www.w3.org/2000/svg" viewBox="0 0 1006 1334"><filter id="c"><feGaussianBlur stdDeviation="55" /></filter><path fill="#7c766e" d="M0 0h1005v1334H0z"/><g filter='url(#c)' fill-opacity='.5'><ellipse fill="#fff" fill-opacity=".5" rx="1" ry="1" transform="matrix(-131.12307 -269.59706 478.3513 -232.6542 549.6 870)"/><ellipse fill-opacity=".5" rx="1" ry="1" transform="matrix(-22.47957 398.85954 -266.23227 -15.00475 990 152.4)"/><ellipse fill-opacity=".5" rx="1" ry="1" transform="rotate(14.7 -1809.3 243) scale(208.79435 891.06999)"/><path fill-opacity=".5" d="M1051.6 1306l-670.1 130.2-41.8-214.8 670.1-130.3z"/><ellipse fill-opacity=".5" rx="1" ry="1" transform="rotate(-132.4 271.7 180.1) scale(226.55637 89.97692)"/><path fill="#fff" fill-opacity=".5" d="M329.8 626L218.3 763.7 40.1 619.4l111.5-137.7z"/><path fill="#ffddc6" fill-opacity=".5" d="M398.6 7.8h234.5v484.6H398.6z"/><ellipse fill-opacity=".5" rx="1" ry="1" transform="matrix(155.14472 42.15189 -157.12053 578.29963 129.5 108.4)"/></g></svg>