<svg xmlns="http://www.w3.org/2000/svg" viewBox="0 0 1080 1350"><filter id="c"><feGaussianBlur stdDeviation="55" /></filter><path fill="#e5dfd8" d="M0 0h1075v1350H0z"/><g filter='url(#c)' fill-opacity='.5'><path fill="#854c2d" fill-opacity=".5" d="M303.2 203l443-121.3-58 654z"/><ellipse fill="#935700" fill-opacity=".5" rx="1" ry="1" transform="matrix(217.80141 -38.79634 10.98309 61.6587 506.1 1133)"/><ellipse fill="#8a5f00" fill-opacity=".5" rx="1" ry="1" transform="matrix(-30.02384 -251.58663 39.02492 -4.65716 367.5 1030.4)"/><path fill="#000028" fill-opacity=".5" d="M828.2 979.5l-36.5-5.8L833 713.3l36.4 5.8z"/><ellipse fill="#fff" fill-opacity=".5" rx="1" ry="1" transform="rotate(102.8 -117.3 235.6) scale(949.82937 202.79452)"/><ellipse fill="#fff" fill-opacity=".5" rx="1" ry="1" transform="rotate(169.7 477.9 292.6) scale(183.6869 1070.50793)"/><path fill="#3a669a" fill-opacity=".5" d="M498.3 572.2h63.3v369.1h-63.3z"/><path fill="#685f14" fill-opacity=".5" d="M723.7 543l-78.5-184.9L796 468 613.7 779z"/></g></svg>