<?xml version="1.0" encoding="UTF-8"?>
<svg width="344px" height="62px" viewBox="0 0 344 62" version="1.1" xmlns="http://www.w3.org/2000/svg" xmlns:xlink="http://www.w3.org/1999/xlink">
    <!-- Generator: Sketch 52.5 (67469) - http://www.bohemiancoding.com/sketch -->
    <title>taskbar-icons</title>
    <desc>Created with Sketch.</desc>
    <defs>
        <rect id="path-1" x="0" y="0" width="274" height="62"></rect>
        <rect id="path-3" x="0" y="0" width="1280" height="22"></rect>
        <filter x="-1.3%" y="-70.5%" width="102.6%" height="250.0%" filterUnits="objectBoundingBox" id="filter-4">
            <feMorphology radius="1" operator="dilate" in="SourceAlpha" result="shadowSpreadOuter1"></feMorphology>
            <feOffset dx="0" dy="1" in="shadowSpreadOuter1" result="shadowOffsetOuter1"></feOffset>
            <feGaussianBlur stdDeviation="5" in="shadowOffsetOuter1" result="shadowBlurOuter1"></feGaussianBlur>
            <feComposite in="shadowBlurOuter1" in2="SourceAlpha" operator="out" result="shadowBlurOuter1"></feComposite>
            <feColorMatrix values="0 0 0 0 0   0 0 0 0 0   0 0 0 0 0  0 0 0 0.38855865 0" type="matrix" in="shadowBlurOuter1"></feColorMatrix>
        </filter>
        <rect id="path-5" x="0" y="0" width="70" height="62"></rect>
    </defs>
    <g id="taskbar-icons" stroke="none" stroke-width="1" fill="none" fill-rule="evenodd">
        <g id="Group-2" transform="translate(70.000000, 0.000000)">
            <mask id="mask-2" fill="white">
                <use xlink:href="#path-1"></use>
            </mask>
            <use id="Rectangle" fill="#FFFFFF" fill-rule="nonzero" xlink:href="#path-1"></use>
            <g id="menubar/mac_light" mask="url(#mask-2)">
                <g transform="translate(-1006.000000, 0.000000)">
                    <g id="Menubar" stroke-width="1">
                        <g id="container">
                            <use fill="black" fill-opacity="1" filter="url(#filter-4)" xlink:href="#path-3"></use>
                            <rect stroke-opacity="0.0694633152" stroke="#000000" stroke-width="1" fill-opacity="0.8" fill="#FFFFFF" fill-rule="evenodd" x="-0.5" y="-0.5" width="1281" height="23"></rect>
                        </g>
                        <g id="Status" transform="translate(1074.000000, 3.000000)">
                            <path d="M165,3 L167,3 L167,5 L165,5 L165,3 Z M169,3 L183,3 L183,5 L169,5 L169,3 Z M169,7 L180,7 L180,9 L169,9 L169,7 Z M169,11 L183,11 L183,13 L169,13 L169,11 Z M165,7 L167,7 L167,9 L165,9 L165,7 Z M165,11 L167,11 L167,13 L165,13 L165,11 Z" id="Notification-Center" fill-opacity="0.8" fill="#000000"></path>
                            <g id="Spotlight" transform="translate(136.000000, 2.000000)" stroke="#000000" stroke-opacity="0.8">
                                <circle id="Oval-24" stroke-width="1.25" cx="4.75" cy="4.75" r="4.75"></circle>
                                <path d="M8.5,8.5 L12.6386609,12.8629804" id="Path-43-Copy" stroke-width="1.5" stroke-linecap="round"></path>
                            </g>
                            <text id="Time" font-family="SFUIText-Regular, SF UI Text" font-size="14" font-weight="normal" fill="#000000" fill-opacity="0.75">
                                <tspan x="34" y="13">Tue 9:30 AM</tspan>
                            </text>
                            <g id="Battery" transform="translate(0.000000, 2.000000)">
                                <rect id="Rectangle-52" fill-opacity="0.8" fill="#000000" x="2" y="2" width="16" height="8"></rect>
                                <rect id="Rectangle-51" stroke-opacity="0.8" stroke="#000000" x="0.5" y="0.5" width="19" height="11" rx="2"></rect>
                                <path d="M21,8.5 C21,8.5 23,7.97602808 23,6 C23,4.02397192 21,3.5 21,3.5 L21,8.5 Z" id="Oval-25" fill-opacity="0.8" fill="#000000"></path>
                            </g>
                        </g>
                        <g id="Help-Item" transform="translate(352.000000, 0.000000)">
                            <rect id="Shape" x="0" y="0" width="49" height="22"></rect>
                            <text id="Help" font-family="SFUIText-Regular, SF UI Text" font-size="14" font-weight="normal" fill="#000000" fill-opacity="0.75">
                                <tspan x="9" y="16">Help</tspan>
                            </text>
                        </g>
                        <g id="Window-Item" transform="translate(279.000000, 0.000000)">
                            <rect id="Shape" x="0" y="0" width="73" height="22"></rect>
                            <text id="Window" font-family="SFUIText-Regular, SF UI Text" font-size="14" font-weight="normal" fill="#000000" fill-opacity="0.75">
                                <tspan x="9" y="16">Window</tspan>
                            </text>
                        </g>
                        <g id="Go-Item" transform="translate(242.000000, 0.000000)">
                            <rect id="Shape" x="0" y="0" width="37" height="22"></rect>
                            <text id="Go" font-family="SFUIText-Regular, SF UI Text" font-size="14" font-weight="normal" fill="#000000" fill-opacity="0.75">
                                <tspan x="9" y="16">Go</tspan>
                            </text>
                        </g>
                        <g id="View-Item" transform="translate(192.000000, 0.000000)">
                            <polygon id="Shape" points="0 0 50 0 50 22 0 22"></polygon>
                            <text id="View" font-family="SFUIText-Regular, SF UI Text" font-size="14" font-weight="normal" fill="#000000" fill-opacity="0.75">
                                <tspan x="9" y="16">View</tspan>
                            </text>
                        </g>
                        <g id="Edit-Item" transform="translate(148.000000, 0.000000)">
                            <polygon id="Shape" points="0 0 44 0 44 22 0 22"></polygon>
                            <text id="Edit" font-family="SFUIText-Regular, SF UI Text" font-size="14" font-weight="normal" fill="#000000" fill-opacity="0.75">
                                <tspan x="9" y="16">Edit</tspan>
                            </text>
                        </g>
                        <g id="File-Item" transform="translate(107.000000, 0.000000)">
                            <polygon id="Shape" points="0 0 41 0 41 22 0 22"></polygon>
                            <text id="File" font-family="SFUIText-Regular, SF UI Text" font-size="14" font-weight="normal" fill="#000000" fill-opacity="0.75">
                                <tspan x="9" y="16">File</tspan>
                            </text>
                        </g>
                        <g id="Main-Item" transform="translate(46.000000, 0.000000)">
                            <rect id="Shape" x="0" y="0" width="61" height="22"></rect>
                            <text id="Finder" font-family="SFUIText-Bold, SF UI Text" font-size="14" font-weight="bold" fill="#000000" fill-opacity="0.75">
                                <tspan x="8" y="16">Finder</tspan>
                            </text>
                        </g>
                        <path d="M27.6489971,6.63323782 C27.8973269,6.63323782 28.3381057,6.52769924 28.9713467,6.31661891 C29.6045877,6.10553858 30.1446969,6 30.5916905,6 C31.3366799,6 32.0009522,6.19866086 32.5845272,6.59598854 C32.7459416,6.72015344 32.9073535,6.85673278 33.0687679,7.00573066 C33.2301823,7.15472854 33.3915942,7.32855679 33.5530086,7.52722063 C33.0687655,7.94938129 32.7149008,8.3218704 32.491404,8.64469914 C32.0816598,9.21585768 31.8767908,9.85529732 31.8767908,10.5630372 C31.8767908,11.3328596 32.0940761,12.0281726 32.5286533,12.6489971 C32.950814,13.2574051 33.441258,13.6485187 34,13.8223496 C33.8758351,14.1948443 33.7206313,14.5766456 33.534384,14.967765 C33.3481366,15.3588845 33.1246431,15.7531021 32.8638968,16.1504298 C32.0692415,17.3548293 31.2683899,17.9570201 30.4613181,17.9570201 C30.1260728,17.9570201 29.685294,17.8576896 29.1389685,17.6590258 C28.6050594,17.4727784 28.139448,17.3796562 27.7421203,17.3796562 C27.3323762,17.3796562 26.8853892,17.4789866 26.4011461,17.6776504 C25.8796536,17.8887308 25.4699155,17.9942693 25.1719198,17.9942693 C24.2282665,17.9942693 23.2970438,17.1934178 22.3782235,15.5916905 C21.4594032,14.0023798 21,12.4379256 21,10.8982808 C21,9.48280095 21.3476565,8.32187655 22.0429799,7.41547278 C22.7507199,6.5214855 23.6384856,6.07449857 24.7063037,6.07449857 C25.1657139,6.07449857 25.7182394,6.16762085 26.3638968,6.35386819 C27.0219708,6.54011554 27.4503333,6.63323782 27.6489971,6.63323782 Z M30.4691547,2.37336676 C30.4691547,2.75266187 30.3802587,3.16158328 30.2024642,3.60014325 C30.0246696,4.03870322 29.7520553,4.44762463 29.3846132,4.82691974 C29.040877,5.14694999 28.7149251,5.36030028 28.4067478,5.46697703 C28.1815414,5.5262419 27.8792951,5.57365307 27.5,5.60921199 C27.511853,4.73209205 27.7400193,3.97055001 28.1845057,3.32456302 C28.6289922,2.67857604 29.372755,2.23705944 30.4158166,2 C30.4395225,2.08297081 30.4543385,2.15408757 30.460265,2.21335243 C30.4661915,2.27261729 30.4691547,2.32595487 30.4691547,2.37336676 Z" id="" fill-opacity="0.75" fill="#000000"></path>
                    </g>
                    <g id="mac/dropboxstatus-idle" opacity="0.8" transform="translate(1041.000000, 2.000000)">
                        <g id="mac/dropboxstatus-busy" fill="#000000">
                            <g id="components/20/glyph/status-cutout">
                                <path d="M9.99993114,3.99773549 L14.7877011,1 L14.7879078,1 L19.5792256,4 L14.78777,7 L9.99993111,4.00226446 L5.21209219,7 L0.420705465,4 L5.2120233,1 L5.21222997,1 L9.99993114,3.99773549 Z M9.99731403,11.5016601 C9.93892882,11.8256021 9.90844727,12.1592414 9.90844727,12.5 C9.90844727,14.0685065 10.554274,15.4861722 11.5945169,16.5015863 L9.99996556,17.5 L5.20850994,14.4998307 L9.99731403,11.5016601 Z M0.420705465,10 L5.21216108,7 L10.0036167,10 L5.21216108,13 L0.420705465,10 Z" id="Combined-Shape"></path>
                            </g>
                            <g id="components/20/status/busy_mac" transform="translate(11.000000, 8.000000)">
                                <path d="M4.5,9 C2.01471863,9 0,6.98528137 0,4.5 C0,2.01471863 2.01471863,0 4.5,0 C6.98528137,0 9,2.01471863 9,4.5 C9,6.98528137 6.98528137,9 4.5,9 Z M4.99937859,7.45862496 C6.41854099,7.22084201 7.5,5.98671515 7.5,4.5 C7.5,3.93526238 7.34395568,3.40697086 7.072632,2.95589042 L6.215088,3.47059361 C6.39597045,3.77131391 6.5,4.12350825 6.5,4.5 C6.5,5.43214348 5.86230748,6.21534589 4.99937859,6.43715109 L4.99937859,5.4000001 L3.00274658,6.9000001 L4.99937859,8.4000001 L4.99937859,7.45862496 Z M4,1.54147922 C2.58114333,1.77951827 1.5,3.01350186 1.5,4.5 C1.5,5.06542212 1.65642282,5.59430973 1.92835509,6.04574946 L2.78557006,5.53049964 C2.60428188,5.22953982 2.5,4.87694808 2.5,4.5 C2.5,3.56808029 3.13738639,2.78503014 4,2.56300874 L4,3.60000002 L6.00482178,2.10000002 L4,0.600000024 L4,1.54147922 Z" id="Combined-Shape"></path>
                            </g>
                        </g>
                    </g>
                </g>
            </g>
            <g id="menubar/windows" mask="url(#mask-2)">
                <g transform="translate(-1006.000000, 22.000000)">
                    <g id="Taskbar" stroke-width="1" fill-rule="evenodd">
                        <rect id="Shape" fill="#1F1F1F" x="0" y="0" width="1280" height="40"></rect>
                        <rect id="Separator" fill="#666666" x="1275" y="0" width="1" height="40"></rect>
                        <g id="Group-2" opacity="0" transform="translate(1097.000000, 0.000000)" fill="#0062FF">
                            <rect id="Rectangle" opacity="0.5" x="0" y="0" width="26" height="40"></rect>
                            <rect id="Rectangle" x="26" y="0" width="26" height="40"></rect>
                            <rect id="Rectangle" opacity="0.5" x="52" y="0" width="13" height="40"></rect>
                            <rect id="Rectangle" x="74" y="0" width="26" height="40"></rect>
                        </g>
                        <text id="Date" font-family="SegoeUI, Segoe UI" font-size="12" font-weight="normal" fill="#FFFFFF">
                            <tspan x="1205.44922" y="33">10/03/2017</tspan>
                        </text>
                        <text id="Time" font-family="SegoeUI, Segoe UI" font-size="12" font-weight="normal" letter-spacing="0.200000003" fill="#FFFFFF">
                            <tspan x="1224.59609" y="16">9:30</tspan>
                        </text>
                        <g id="Display" transform="translate(1128.000000, 14.000000)" stroke="#FFFFFF">
                            <rect id="Rectangle-13" x="2.5" y="0.5" width="13" height="9"></rect>
                            <rect id="Rectangle-15" x="8.5" y="10.5" width="1" height="1"></rect>
                            <rect id="Rectangle-16" x="5.5" y="12.5" width="6" height="1"></rect>
                            <rect id="Rectangle-14" fill="#000000" x="0.5" y="0.5" width="4" height="5"></rect>
                            <rect id="Rectangle-17" fill="#D8D8D8" x="2.5" y="6.5" width="1" height="6"></rect>
                            <rect id="Rectangle-18" x="1.5" y="2.5" width="2" height="1"></rect>
                            <rect id="Rectangle-19" x="2.5" y="3.5" width="1" height="1"></rect>
                        </g>
                        <path d="M1152.5,17.5 L1152.5,22.5 L1154.16667,22.5 L1158.16667,25.5 L1158.5,25.5 L1158.5,14.5 L1158.16667,14.5 L1154.16667,17.5 L1152.5,17.5 Z" id="Audio" stroke="#FFFFFF"></path>
                        <path d="M1187.5,26 L1184.5,29 L1181.5,26 L1176,26 L1176,13 L1193,13 L1193,26 L1187.5,26 Z M1179,16 L1179,17 L1190,17 L1190,16 L1179,16 Z M1179,19 L1179,20 L1190,20 L1190,19 L1179,19 Z M1179,22 L1179,23 L1186,23 L1186,22 L1179,22 Z" id="Message-Center" fill="#FFFFFF"></path>
                        <g id="Search-Bar" transform="translate(48.000000, 0.000000)">
                            <rect id="Bar" fill="#333333" x="0" y="0" width="344" height="40"></rect>
                            <text id="Search-Placeholder" font-family="Helvetica" font-size="14" font-weight="normal" letter-spacing="0.400000006" fill="#CDCDCD">
                                <tspan x="12" y="25">Search the web and Window</tspan>
                                <tspan x="200.212891" y="25">s</tspan>
                            </text>
                        </g>
                        <path d="M23,13.125 L32,12 L32,19.5 L23,19.5 L23,13.125 Z M22.5,13.1875 L22.5,19.5 L16,19.5 L16,14 L22.5,13.1875 Z M23,26.875 L23,20 L32,20 L32,28 L23,26.875 Z M22.5,26.8125 L16,26 L16,20 L22.5,20 L22.5,26.8125 Z" id="Start-Icon" fill="#FFFFFF"></path>
                    </g>
                    <g id="win/dropboxstatus-busy" transform="translate(1098.000000, 10.000000)">
                        <g id="components/20-outline/glyph/status-busy">
                            <path d="M9.72016558,10.7772098 C9.62469187,10.9444525 9.53774263,11.1171901 9.45990961,11.2948311 L5.50233313,13.7727273 L1.00126877,10.9545455 L5.50233313,8.13636364 L9.72016558,10.7772098 Z M14.7091607,8.00390375 C14.6397616,8.00130896 14.5700337,8 14.5,8 C14.4284448,8 14.3572088,8.00136645 14.2863166,8.00407469 L9.99993529,5.32030904 L5.50226842,8.13636364 L1.00126877,5.31818182 L5.50239785,2.5 L9.99993531,5.31605455 L14.4977316,2.5 L18.9986665,5.31818182 L14.7091607,8.00390375 Z M9.02481108,12.9741616 C9.0083956,13.1472297 9,13.3226344 9,13.5 C9,15.0905276 9.67514263,16.5233673 10.7544788,17.5275697 L9.99996764,18 L5.49890328,15.1816592 L9.02481108,12.9741616 Z" id="Combined-Shape" fill="#FFFFFF" fill-rule="nonzero"></path>
                            <g id="components/20/status/busy" transform="translate(10.000000, 9.000000)" fill-rule="evenodd">
                                <circle id="Combined-Shape" fill="#0062FF" cx="4.5" cy="4.5" r="4.5"></circle>
                                <path d="M4.99937859,7.45862496 L4.99937859,8.4000001 L3.00274658,6.9000001 L4.99937859,5.4000001 L4.99937859,6.43715109 C5.86230748,6.21534589 6.5,5.43214348 6.5,4.5 C6.5,4.12350825 6.39597045,3.77131391 6.215088,3.47059361 L7.072632,2.95589042 C7.34395568,3.40697086 7.5,3.93526238 7.5,4.5 C7.5,5.98671515 6.41854099,7.22084201 4.99937859,7.45862496 Z M4,1.54147922 L4,0.600000024 L6.00482178,2.10000002 L4,3.60000002 L4,2.56300874 C3.13738639,2.78503014 2.5,3.56808029 2.5,4.5 C2.5,4.87694808 2.60428188,5.22953982 2.78557006,5.53049964 L1.92835509,6.04574946 C1.65642282,5.59430973 1.5,5.06542212 1.5,4.5 C1.5,3.01350186 2.58114333,1.77951827 4,1.54147922 Z" id="Combined-Shape" fill="#FFFFFF"></path>
                            </g>
                        </g>
                    </g>
                </g>
            </g>
        </g>
        <g id="Group">
            <mask id="mask-6" fill="white">
                <use xlink:href="#path-5"></use>
            </mask>
            <use id="Rectangle" fill="#FFFFFF" fill-rule="nonzero" xlink:href="#path-5"></use>
            <g id="mac/dropboxstatus-idle" opacity="0.8" mask="url(#mask-6)">
                <g transform="translate(15.000000, 13.000000)" id="components/20/glyph/dropbox">
                    <g>
                        <path d="M19.9999312,19.995428 L29.5756778,14 L39.1585891,20 L29.5756778,26 L19.9999312,20.004572 L10.4243222,26 L0.84141093,20 L10.4243222,14 L19.9999312,19.995428 Z M19.9998623,7.99547098 L29.5754023,2 L29.5758156,2 L39.1584513,8 L29.5755401,14 L19.9998622,8.00452892 L10.4241844,14 L0.84141093,8 L10.4240466,2 L10.4244599,2 L19.9998623,7.99547098 Z M10.4170199,28.9996615 L19.9999311,23 L29.5829801,28.9996615 L19.9999311,35 L10.4170199,28.9996615 Z" id="Combined-Shape" fill="#000000"></path>
                    </g>
                </g>
            </g>
        </g>
    </g>
</svg>